<svg xmlns="http://www.w3.org/2000/svg" xmlns:xlink="http://www.w3.org/1999/xlink" contentStyleType="text/css" data-diagram-type="DESCRIPTION" height="770px" preserveAspectRatio="none" style="width:481px;height:770px;background:#FFFFFF;" version="1.1" viewBox="0 0 481 770" width="481px" zoomAndPan="magnify"><defs/><g><!--cluster Crystal Mall System--><g class="cluster" data-entity="Crystal Mall System" data-source-line="9" data-uid="ent0007" id="cluster_Crystal Mall System"><rect fill="none" height="708" rx="2.5" ry="2.5" style="stroke:#181818;stroke-width:1;" width="245.46" x="229.97" y="7"/><text fill="#000000" font-family="sans-serif" font-size="14" font-weight="bold" lengthAdjust="spacing" textLength="156.6182" x="274.3909" y="21.9951">Crystal Mall System</text></g><g class="entity" data-entity="Shop at Stores" data-source-line="10" data-uid="ent0008" id="entity_Shop at Stores"><ellipse cx="352.7017" cy="148.0003" fill="#F1F1F1" rx="73.7517" ry="17.1503" style="stroke:#181818;stroke-width:0.5;"/><text fill="#000000" font-family="sans-serif" font-size="14" lengthAdjust="spacing" textLength="102.7852" x="298.3091" y="151.7479">Shop at Stores</text></g><g class="entity" data-entity="Dine at Food Court" data-source-line="11" data-uid="ent0010" id="entity_Dine at Food Court"><ellipse cx="352.7035" cy="220.0047" fill="#F1F1F1" rx="85.7735" ry="19.5547" style="stroke:#181818;stroke-width:0.5;"/><text fill="#000000" font-family="sans-serif" font-size="14" lengthAdjust="spacing" textLength="132.1045" x="286.6513" y="222.8514">Dine at Food Court</text></g><g class="entity" data-entity="Watch Movies" data-source-line="12" data-uid="ent0012" id="entity_Watch Movies"><ellipse cx="352.7005" cy="291.0001" fill="#F1F1F1" rx="71.8005" ry="16.7601" style="stroke:#181818;stroke-width:0.5;"/><text fill="#000000" font-family="sans-serif" font-size="14" lengthAdjust="spacing" textLength="97.6582" x="300.8714" y="294.7477">Watch Movies</text></g><g class="entity" data-entity="Park Vehicle" data-source-line="13" data-uid="ent0014" id="entity_Park Vehicle"><ellipse cx="352.6976" cy="358.9995" fill="#F1F1F1" rx="67.6976" ry="15.9395" style="stroke:#181818;stroke-width:0.5;"/><text fill="#000000" font-family="sans-serif" font-size="14" lengthAdjust="spacing" textLength="86.4883" x="306.4534" y="362.7471">Park Vehicle</text></g><g class="entity" data-entity="Manage Store Operations" data-source-line="14" data-uid="ent0016" id="entity_Manage Store Operations"><ellipse cx="352.6997" cy="433.9959" fill="#F1F1F1" rx="106.7297" ry="23.7459" style="stroke:#181818;stroke-width:0.5;"/><text fill="#000000" font-family="sans-serif" font-size="14" lengthAdjust="spacing" textLength="178.7871" x="263.3062" y="436.8426">Manage Store Operations</text></g><g class="entity" data-entity="Manage Mall Operations" data-source-line="15" data-uid="ent0018" id="entity_Manage Mall Operations"><ellipse cx="352.705" cy="516.003" fill="#F1F1F1" rx="102.665" ry="22.933" style="stroke:#181818;stroke-width:0.5;"/><text fill="#000000" font-family="sans-serif" font-size="14" lengthAdjust="spacing" textLength="169.9141" x="267.7479" y="518.8497">Manage Mall Operations</text></g><g class="entity" data-entity="Maintain Facilities" data-source-line="16" data-uid="ent0020" id="entity_Maintain Facilities"><ellipse cx="352.7021" cy="608.9964" fill="#F1F1F1" rx="83.1321" ry="19.0264" style="stroke:#181818;stroke-width:0.5;"/><text fill="#000000" font-family="sans-serif" font-size="14" lengthAdjust="spacing" textLength="125.9863" x="289.1604" y="612.0288">Maintain Facilities</text></g><g class="entity" data-entity="Handle Security" data-source-line="17" data-uid="ent0022" id="entity_Handle Security"><ellipse cx="352.6991" cy="680.9958" fill="#F1F1F1" rx="77.0791" ry="17.8158" style="stroke:#181818;stroke-width:0.5;"/><text fill="#000000" font-family="sans-serif" font-size="14" lengthAdjust="spacing" textLength="111.3096" x="294.2078" y="684.701">Handle Security</text></g><g class="entity" data-entity="Process Payment" data-source-line="19" data-uid="ent0024" id="entity_Process Payment"><ellipse cx="352.7041" cy="61.0048" fill="#F1F1F1" rx="80.6241" ry="18.5248" style="stroke:#181818;stroke-width:0.5;"/><text fill="#000000" font-family="sans-serif" font-size="14" lengthAdjust="spacing" textLength="120.0322" x="291.2548" y="64.316">Process Payment</text></g><!--entity Customer--><g class="entity" data-entity="Customer" data-source-line="3" data-uid="ent0002" id="entity_Customer"><ellipse cx="67.482" cy="219.35" fill="#F1F1F1" rx="8" ry="8" style="stroke:#181818;stroke-width:0.5;"/><path d="M67.482,227.35 L67.482,254.35 M54.482,235.35 L80.482,235.35 M67.482,254.35 L54.482,269.35 M67.482,254.35 L80.482,269.35 " fill="none" style="stroke:#181818;stroke-width:0.5;"/><text fill="#000000" font-family="sans-serif" font-size="14" lengthAdjust="spacing" textLength="68.0039" x="33.48" y="283.8451">Customer</text></g><!--entity StoreManager--><g class="entity" data-entity="StoreManager" data-source-line="4" data-uid="ent0003" id="entity_StoreManager"><ellipse cx="67.4884" cy="364.35" fill="#F1F1F1" rx="8" ry="8" style="stroke:#181818;stroke-width:0.5;"/><path d="M67.4884,372.35 L67.4884,399.35 M54.4884,380.35 L80.4884,380.35 M67.4884,399.35 L54.4884,414.35 M67.4884,399.35 L80.4884,414.35 " fill="none" style="stroke:#181818;stroke-width:0.5;"/><text fill="#000000" font-family="sans-serif" font-size="14" lengthAdjust="spacing" textLength="98.6768" x="18.15" y="428.8451">StoreManager</text></g><!--entity MallManagement--><g class="entity" data-entity="MallManagement" data-source-line="5" data-uid="ent0004" id="entity_MallManagement"><ellipse cx="67.4906" cy="475.35" fill="#F1F1F1" rx="8" ry="8" style="stroke:#181818;stroke-width:0.5;"/><path d="M67.4906,483.35 L67.4906,510.35 M54.4906,491.35 L80.4906,491.35 M67.4906,510.35 L54.4906,525.35 M67.4906,510.35 L80.4906,525.35 " fill="none" style="stroke:#181818;stroke-width:0.5;"/><text fill="#000000" font-family="sans-serif" font-size="14" lengthAdjust="spacing" textLength="120.6611" x="7.16" y="539.8451">MallManagement</text></g><!--entity MaintenanceStaff--><g class="entity" data-entity="MaintenanceStaff" data-source-line="6" data-uid="ent0005" id="entity_MaintenanceStaff"><ellipse cx="67.4858" cy="586.35" fill="#F1F1F1" rx="8" ry="8" style="stroke:#181818;stroke-width:0.5;"/><path d="M67.4858,594.35 L67.4858,621.35 M54.4858,602.35 L80.4858,602.35 M67.4858,621.35 L54.4858,636.35 M67.4858,621.35 L80.4858,636.35 " fill="none" style="stroke:#181818;stroke-width:0.5;"/><text fill="#000000" font-family="sans-serif" font-size="14" lengthAdjust="spacing" textLength="122.9717" x="6" y="650.8451">MaintenanceStaff</text></g><!--entity SecurityStaff--><g class="entity" data-entity="SecurityStaff" data-source-line="7" data-uid="ent0006" id="entity_SecurityStaff"><ellipse cx="67.4814" cy="697.35" fill="#F1F1F1" rx="8" ry="8" style="stroke:#181818;stroke-width:0.5;"/><path d="M67.4814,705.35 L67.4814,732.35 M54.4814,713.35 L80.4814,713.35 M67.4814,732.35 L54.4814,747.35 M67.4814,732.35 L80.4814,747.35 " fill="none" style="stroke:#181818;stroke-width:0.5;"/><text fill="#000000" font-family="sans-serif" font-size="14" lengthAdjust="spacing" textLength="90.3027" x="22.33" y="761.8451">SecurityStaff</text></g><!--link Customer to Shop at Stores--><g class="link" data-entity-1="Customer" data-entity-2="Shop at Stores" data-source-line="10" data-uid="lnk9" id="link_Customer_Shop at Stores"><path d="M101.78,233.05 C132.5,218.72 179.65,197.73 221.97,183 C247.2,174.22 269.9949,167.7781 293.9149,161.6981 " fill="none" id="Customer-to-Shop at Stores" style="stroke:#181818;stroke-width:1;"/><polygon fill="#181818" points="299.73,160.22,290.022,158.5604,294.8841,161.4517,291.9928,166.3139,299.73,160.22" style="stroke:#181818;stroke-width:1;"/></g><!--link Customer to Dine at Food Court--><g class="link" data-entity-1="Customer" data-entity-2="Dine at Food Court" data-source-line="11" data-uid="lnk11" id="link_Customer_Dine at Food Court"><path d="M101.81,245.59 C143.77,241.29 211.2412,234.3813 267.6812,228.6013 " fill="none" id="Customer-to-Dine at Food Court" style="stroke:#181818;stroke-width:1;"/><polygon fill="#181818" points="273.65,227.99,264.2893,224.9277,268.676,228.4994,265.1043,232.8861,273.65,227.99" style="stroke:#181818;stroke-width:1;"/></g><!--link Customer to Watch Movies--><g class="link" data-entity-1="Customer" data-entity-2="Watch Movies" data-source-line="12" data-uid="lnk13" id="link_Customer_Watch Movies"><path d="M101.87,256.75 C118.89,260.51 139.96,264.88 158.97,268 C201.03,274.91 242.6241,279.9709 279.9641,283.9709 " fill="none" id="Customer-to-Watch Movies" style="stroke:#181818;stroke-width:1;"/><polygon fill="#181818" points="285.93,284.61,277.4073,279.6741,280.9584,284.0774,276.5551,287.6286,285.93,284.61" style="stroke:#181818;stroke-width:1;"/></g><!--link Customer to Park Vehicle--><g class="link" data-entity-1="Customer" data-entity-2="Park Vehicle" data-source-line="13" data-uid="lnk15" id="link_Customer_Park Vehicle"><path d="M101.74,267.94 C132.25,284.71 179.08,308.95 221.97,325 C247.59,334.59 271.1929,341.1515 295.5329,346.9415 " fill="none" id="Customer-to-Park Vehicle" style="stroke:#181818;stroke-width:1;"/><polygon fill="#181818" points="301.37,348.33,293.54,342.3558,296.5057,347.1729,291.6886,350.1386,301.37,348.33" style="stroke:#181818;stroke-width:1;"/></g><!--link StoreManager to Manage Store Operations--><g class="link" data-entity-1="StoreManager" data-entity-2="Manage Store Operations" data-source-line="14" data-uid="lnk17" id="link_StoreManager_Manage Store Operations"><path d="M117.17,400.88 C156.79,406.47 207.8389,413.6812 255.7189,420.4412 " fill="none" id="StoreManager-to-Manage Store Operations" style="stroke:#181818;stroke-width:1;"/><polygon fill="#181818" points="261.66,421.28,253.3076,416.0611,256.7091,420.581,252.1892,423.9825,261.66,421.28" style="stroke:#181818;stroke-width:1;"/></g><!--link MallManagement to Manage Mall Operations--><g class="link" data-entity-1="MallManagement" data-entity-2="Manage Mall Operations" data-source-line="15" data-uid="lnk19" id="link_MallManagement_Manage Mall Operations"><path d="M128.2,507.32 C163.83,508.7 203.9845,510.2681 245.0945,511.8581 " fill="none" id="MallManagement-to-Manage Mall Operations" style="stroke:#181818;stroke-width:1;"/><polygon fill="#181818" points="251.09,512.09,242.2513,507.7452,246.0937,511.8968,241.9421,515.7392,251.09,512.09" style="stroke:#181818;stroke-width:1;"/></g><!--link MaintenanceStaff to Maintain Facilities--><g class="link" data-entity-1="MaintenanceStaff" data-entity-2="Maintain Facilities" data-source-line="16" data-uid="lnk21" id="link_MaintenanceStaff_Maintain Facilities"><path d="M129.24,614.5 C170.2,613.49 218.7318,612.2885 263.5518,611.1785 " fill="none" id="MaintenanceStaff-to-Maintain Facilities" style="stroke:#181818;stroke-width:1;"/><polygon fill="#181818" points="269.55,611.03,260.4537,607.254,264.5515,611.1538,260.6518,615.2516,269.55,611.03" style="stroke:#181818;stroke-width:1;"/></g><!--link SecurityStaff to Handle Security--><g class="link" data-entity-1="SecurityStaff" data-entity-2="Handle Security" data-source-line="17" data-uid="lnk23" id="link_SecurityStaff_Handle Security"><path d="M113.05,719.76 C160.33,712.08 229.4876,700.8519 282.8076,692.1919 " fill="none" id="SecurityStaff-to-Handle Security" style="stroke:#181818;stroke-width:1;"/><polygon fill="#181818" points="288.73,691.23,279.2051,688.7246,283.7947,692.0316,280.4877,696.6211,288.73,691.23" style="stroke:#181818;stroke-width:1;"/></g><!--link Shop at Stores to Process Payment--><g class="link" data-entity-1="Shop at Stores" data-entity-2="Process Payment" data-source-line="19" data-uid="lnk25" id="link_Shop at Stores_Process Payment"><path d="M352.7,130.4 C352.7,115.7 352.7,100.8 352.7,85.79 " fill="none" id="Shop at Stores-to-Process Payment" style="stroke:#181818;stroke-width:1;stroke-dasharray:7.0,7.0;"/><polygon fill="#181818" points="352.7,79.79,348.7,88.79,352.7,84.79,356.7,88.79,352.7,79.79" style="stroke:#181818;stroke-width:1;"/><text fill="#000000" font-family="sans-serif" font-size="13" lengthAdjust="spacing" textLength="53.8726" x="314.7" y="109.7569">includes</text></g><!--link Dine at Food Court to Process Payment--><g class="link" data-entity-1="Dine at Food Court" data-entity-2="Process Payment" data-source-line="20" data-uid="lnk26" id="link_Dine at Food Court_Process Payment"><path d="M278.67,209.83 C258.72,204.35 238.2,195.94 221.97,183 C191.1,158.4 162.3,132.54 186.68,101.5 C206.83,75.84 234.3747,65.558 266.0147,61.258 " fill="none" id="Dine at Food Court-to-Process Payment" style="stroke:#181818;stroke-width:1;stroke-dasharray:7.0,7.0;"/><polygon fill="#181818" points="271.96,60.45,262.5033,57.6984,267.0055,61.1233,263.5806,65.6256,271.96,60.45" style="stroke:#181818;stroke-width:1;"/><text fill="#000000" font-family="sans-serif" font-size="13" lengthAdjust="spacing" textLength="53.8726" x="159.97" y="114.5669">includes</text></g><!--link Watch Movies to Process Payment--><g class="link" data-entity-1="Watch Movies" data-entity-2="Process Payment" data-source-line="21" data-uid="lnk27" id="link_Watch Movies_Process Payment"><path d="M288.24,298.64 C252.69,298.95 210.96,292.14 186.68,263.5 C171.93,246.12 126.72,220.44 221.97,113 C239.63,93.08 260.2355,82.4971 284.6355,74.8371 " fill="none" id="Watch Movies-to-Process Payment" style="stroke:#181818;stroke-width:1;stroke-dasharray:7.0,7.0;"/><polygon fill="#181818" points="290.36,73.04,280.5751,71.9193,285.5896,74.5376,282.9713,79.5521,290.36,73.04" style="stroke:#181818;stroke-width:1;"/><text fill="#000000" font-family="sans-serif" font-size="13" lengthAdjust="spacing" textLength="53.8726" x="159.97" y="259.5669">includes</text></g><!--link Manage Mall Operations to Handle Security--><g class="link" data-entity-1="Manage Mall Operations" data-entity-2="Handle Security" data-source-line="22" data-uid="lnk28" id="link_Manage Mall Operations_Handle Security"><path d="M254.31,522.7 C232.75,529 212.32,539.7 198.68,557.5 C173.94,589.79 192.45,618.02 221.97,646 C237.74,660.95 253.3564,668.2666 274.3064,673.3066 " fill="none" id="Manage Mall Operations-to-Handle Security" style="stroke:#181818;stroke-width:1;stroke-dasharray:7.0,7.0;"/><polygon fill="#181818" points="280.14,674.71,272.3253,668.7159,275.2787,673.5405,270.4541,676.4939,280.14,674.71" style="stroke:#181818;stroke-width:1;"/><text fill="#000000" font-family="sans-serif" font-size="13" lengthAdjust="spacing" textLength="29.7832" x="171.97" y="570.5669">uses</text></g><!--link Manage Mall Operations to Maintain Facilities--><g class="link" data-entity-1="Manage Mall Operations" data-entity-2="Maintain Facilities" data-source-line="23" data-uid="lnk29" id="link_Manage Mall Operations_Maintain Facilities"><path d="M352.7,539.2 C352.7,554.77 352.7,569.05 352.7,583.73 " fill="none" id="Manage Mall Operations-to-Maintain Facilities" style="stroke:#181818;stroke-width:1;stroke-dasharray:7.0,7.0;"/><polygon fill="#181818" points="352.7,589.73,356.7,580.73,352.7,584.73,348.7,580.73,352.7,589.73" style="stroke:#181818;stroke-width:1;"/><text fill="#000000" font-family="sans-serif" font-size="13" lengthAdjust="spacing" textLength="29.7832" x="326.7" y="569.0169">uses</text></g><!--SRC=[ZP31ReCm38RlF8NLqpXq3z33BapLBcYLaBQp5GnO2qcLc4beshil8QKQb6az12M__z_OdwP6G2muRZk1cXqfOMko39LO1yNWnVRaBiygVAX4W-rLAb7hfFHav2go4J9e55M2JJF7IGsEPKnQ5l-5fjK4kyADNb1FtQ0AT-fty9N1TG3Oxv_WeUhi6L3I73w_gJ-peLW_Mbj3OGSdjvvt5DL1QJzvgyC9tGUyKSTAKwp-tZWvqYCLuFLC3YEmgTMInS8-BRPsBo7D_g260qTKh5akKoxG9USBcZgmcojv5cnhGl0OTt9MaVTmmZ7EbSC1s2WzrEHZP0FQFR45nti2Vv2OekjTGdJm_yUsOCtHxny0]--></g></svg>