<svg xmlns="http://www.w3.org/2000/svg" xmlns:xlink="http://www.w3.org/1999/xlink" contentStyleType="text/css" data-diagram-type="CLASS" height="790px" preserveAspectRatio="none" style="width:330px;height:790px;background:#FFFFFF;" version="1.1" viewBox="0 0 330 790" width="330px" zoomAndPan="magnify"><title>Crystal Mall Management System</title><defs/><g><text fill="#4CAF50" font-family="sans-serif" font-size="16" font-weight="bold" lengthAdjust="spacing" textLength="302.3359" x="10" y="24.8516">Crystal Mall Management System</text><!--class Processes--><g class="entity" data-entity="Processes" data-source-line="11" data-uid="ent0002" id="entity_Processes"><rect fill="#F1F1F1" height="308.75" rx="2.5" ry="2.5" style="stroke:#4CAF50;stroke-width:0.5;" width="230.4561" x="52.9399" y="46.625"/><ellipse cx="129.1333" cy="62.625" fill="#4CAF50" rx="11" ry="11" style="stroke:#181818;stroke-width:1;"/><path d="M132.1021,68.2656 Q131.5239,68.5625 130.8833,68.7031 Q130.2427,68.8594 129.5396,68.8594 Q127.0396,68.8594 125.7114,67.2188 Q124.3989,65.5625 124.3989,62.4375 Q124.3989,59.3125 125.7114,57.6563 Q127.0396,56 129.5396,56 Q130.2427,56 130.8833,56.1563 Q131.5396,56.3125 132.1021,56.6094 L132.1021,59.3281 Q131.4771,58.75 130.8833,58.4844 Q130.2896,58.2031 129.6646,58.2031 Q128.3208,58.2031 127.6333,59.2813 Q126.9458,60.3438 126.9458,62.4375 Q126.9458,64.5313 127.6333,65.6094 Q128.3208,66.6719 129.6646,66.6719 Q130.2896,66.6719 130.8833,66.4063 Q131.4771,66.125 132.1021,65.5469 L132.1021,68.2656 Z " fill="#000000"/><text fill="#000000" font-family="sans-serif" font-size="14" lengthAdjust="spacing" textLength="69.5693" x="149.6333" y="67.4717">Processes</text><line style="stroke:#4CAF50;stroke-width:0.5;" x1="53.9399" x2="282.396" y1="78.625" y2="78.625"/><text fill="#000000" font-family="sans-serif" font-size="14" lengthAdjust="spacing" textLength="102.7852" x="58.9399" y="95.6201">Shop at Stores</text><text fill="#000000" font-family="sans-serif" font-size="14" lengthAdjust="spacing" textLength="132.1045" x="58.9399" y="111.917">Dine at Food Court</text><text fill="#000000" font-family="sans-serif" font-size="14" lengthAdjust="spacing" textLength="97.6582" x="58.9399" y="128.2139">Watch Movies</text><text fill="#000000" font-family="sans-serif" font-size="14" lengthAdjust="spacing" textLength="86.4883" x="58.9399" y="144.5107">Park Vehicle</text><text fill="#000000" font-family="sans-serif" font-size="14" lengthAdjust="spacing" textLength="178.7871" x="58.9399" y="160.8076">Manage Store Operations</text><text fill="#000000" font-family="sans-serif" font-size="14" lengthAdjust="spacing" textLength="165.8809" x="58.9399" y="177.1045">Generate Sales Reports</text><text fill="#000000" font-family="sans-serif" font-size="14" lengthAdjust="spacing" textLength="178.0146" x="58.9399" y="193.4014">Handle Customer Service</text><text fill="#000000" font-family="sans-serif" font-size="14" lengthAdjust="spacing" textLength="218.4561" x="58.9399" y="209.6982">Manage Food Court Operations</text><text fill="#000000" font-family="sans-serif" font-size="14" lengthAdjust="spacing" textLength="194.8447" x="58.9399" y="225.9951">Manage Cinema Operations</text><text fill="#000000" font-family="sans-serif" font-size="14" lengthAdjust="spacing" textLength="114.8164" x="58.9399" y="242.292">Organize Events</text><text fill="#000000" font-family="sans-serif" font-size="14" lengthAdjust="spacing" textLength="138.3525" x="58.9399" y="258.5889">Clean Mall Facilities</text><text fill="#000000" font-family="sans-serif" font-size="14" lengthAdjust="spacing" textLength="140.6973" x="58.9399" y="274.8857">Maintain Equipment</text><text fill="#000000" font-family="sans-serif" font-size="14" lengthAdjust="spacing" textLength="151.1699" x="58.9399" y="291.1826">Manage Parking Slots</text><text fill="#000000" font-family="sans-serif" font-size="14" lengthAdjust="spacing" textLength="143.5137" x="58.9399" y="307.4795">Monitor Surveillance</text><text fill="#000000" font-family="sans-serif" font-size="14" lengthAdjust="spacing" textLength="205.3447" x="58.9399" y="323.7764">Handle Emergency Response</text><text fill="#000000" font-family="sans-serif" font-size="14" lengthAdjust="spacing" textLength="163.5977" x="58.9399" y="340.0732">Manage Access Control</text><line style="stroke:#4CAF50;stroke-width:0.5;" x1="53.9399" x2="282.396" y1="347.375" y2="347.375"/></g><!--class Tables--><g class="entity" data-entity="Tables" data-source-line="30" data-uid="ent0003" id="entity_Tables"><rect fill="#F1F1F1" height="178.375" rx="2.5" ry="2.5" style="stroke:#4CAF50;stroke-width:0.5;" width="102.1592" x="117.0899" y="415.375"/><ellipse cx="143.0451" cy="431.375" fill="#FF9800" rx="11" ry="11" style="stroke:#181818;stroke-width:1;"/><path d="M146.0138,437.0156 Q145.4357,437.3125 144.7951,437.4531 Q144.1544,437.6094 143.4513,437.6094 Q140.9513,437.6094 139.6232,435.9688 Q138.3107,434.3125 138.3107,431.1875 Q138.3107,428.0625 139.6232,426.4063 Q140.9513,424.75 143.4513,424.75 Q144.1544,424.75 144.7951,424.9063 Q145.4513,425.0625 146.0138,425.3594 L146.0138,428.0781 Q145.3888,427.5 144.7951,427.2344 Q144.2013,426.9531 143.5763,426.9531 Q142.2326,426.9531 141.5451,428.0313 Q140.8576,429.0938 140.8576,431.1875 Q140.8576,433.2813 141.5451,434.3594 Q142.2326,435.4219 143.5763,435.4219 Q144.2013,435.4219 144.7951,435.1563 Q145.3888,434.875 146.0138,434.2969 L146.0138,437.0156 Z " fill="#000000"/><text fill="#000000" font-family="sans-serif" font-size="14" lengthAdjust="spacing" textLength="45.8145" x="159.4795" y="436.2217">Tables</text><line style="stroke:#4CAF50;stroke-width:0.5;" x1="118.0899" x2="218.2491" y1="447.375" y2="447.375"/><text fill="#000000" font-family="sans-serif" font-size="14" lengthAdjust="spacing" textLength="75.2979" x="123.0899" y="464.3701">Customers</text><text fill="#000000" font-family="sans-serif" font-size="14" lengthAdjust="spacing" textLength="44.6045" x="123.0899" y="480.667">Stores</text><text fill="#000000" font-family="sans-serif" font-size="14" lengthAdjust="spacing" textLength="37.2627" x="123.0899" y="496.9639">Sales</text><text fill="#000000" font-family="sans-serif" font-size="14" lengthAdjust="spacing" textLength="72.5293" x="123.0899" y="513.2607">FoodCourt</text><text fill="#000000" font-family="sans-serif" font-size="14" lengthAdjust="spacing" textLength="53.3682" x="123.0899" y="529.5576">Cinema</text><text fill="#000000" font-family="sans-serif" font-size="14" lengthAdjust="spacing" textLength="52.5342" x="123.0899" y="545.8545">Parking</text><text fill="#000000" font-family="sans-serif" font-size="14" lengthAdjust="spacing" textLength="90.1592" x="123.0899" y="562.1514">Maintenance</text><text fill="#000000" font-family="sans-serif" font-size="14" lengthAdjust="spacing" textLength="90.0361" x="123.0899" y="578.4482">SecurityLogs</text><line style="stroke:#4CAF50;stroke-width:0.5;" x1="118.0899" x2="218.2491" y1="585.75" y2="585.75"/></g><!--class ExternalEntities--><g class="entity" data-entity="ExternalEntities" data-source-line="41" data-uid="ent0004" id="entity_ExternalEntities"><rect fill="#F1F1F1" height="129.4844" rx="2.5" ry="2.5" style="stroke:#4CAF50;stroke-width:0.5;" width="173.2119" x="81.5599" y="653.755"/><ellipse cx="110.2836" cy="669.755" fill="#2196F3" rx="11" ry="11" style="stroke:#181818;stroke-width:1;"/><path d="M113.2524,675.3956 Q112.6742,675.6925 112.0336,675.8331 Q111.393,675.9894 110.6899,675.9894 Q108.1899,675.9894 106.8617,674.3488 Q105.5492,672.6925 105.5492,669.5675 Q105.5492,666.4425 106.8617,664.7863 Q108.1899,663.13 110.6899,663.13 Q111.393,663.13 112.0336,663.2863 Q112.6899,663.4425 113.2524,663.7394 L113.2524,666.4581 Q112.6274,665.88 112.0336,665.6144 Q111.4399,665.3331 110.8149,665.3331 Q109.4711,665.3331 108.7836,666.4113 Q108.0961,667.4738 108.0961,669.5675 Q108.0961,671.6613 108.7836,672.7394 Q109.4711,673.8019 110.8149,673.8019 Q111.4399,673.8019 112.0336,673.5363 Q112.6274,673.255 113.2524,672.6769 L113.2524,675.3956 Z " fill="#000000"/><text fill="#000000" font-family="sans-serif" font-size="14" lengthAdjust="spacing" textLength="110.7148" x="127.3333" y="674.6017">ExternalEntities</text><line style="stroke:#4CAF50;stroke-width:0.5;" x1="82.5599" x2="253.7719" y1="685.755" y2="685.755"/><text fill="#000000" font-family="sans-serif" font-size="14" lengthAdjust="spacing" textLength="68.0039" x="87.5599" y="702.7501">Customer</text><text fill="#000000" font-family="sans-serif" font-size="14" lengthAdjust="spacing" textLength="87.4727" x="87.5599" y="719.047">Store Owner</text><text fill="#000000" font-family="sans-serif" font-size="14" lengthAdjust="spacing" textLength="161.2119" x="87.5599" y="735.3439">Maintenance Company</text><text fill="#000000" font-family="sans-serif" font-size="14" lengthAdjust="spacing" textLength="128.543" x="87.5599" y="751.6407">Security Company</text><text fill="#000000" font-family="sans-serif" font-size="14" lengthAdjust="spacing" textLength="128.2148" x="87.5599" y="767.9376">Payment Gateway</text><line style="stroke:#4CAF50;stroke-width:0.5;" x1="82.5599" x2="253.7719" y1="775.2394" y2="775.2394"/></g><!--link Processes to Tables--><!--link Tables to ExternalEntities--><!--SRC=[VLDDZzCm4BtdLup41IHMQlbOiTAgKWd9Sg1gHLPmG1m6PqYjEkDWE-q6n7_7Tj8cBQjr52kUUHw_zyQnEyaD6goXf9_OAdTF3swfPCKriGFX9pA9FQ6ST8fopQwGlmdcru-bKgsqWMTlqcN-TZO128NMlaUngunkkHnW-Jmy_y6qASayMMbfZ3uyYPYGcSMH994afAQp3XMiK8M9iQ8ej_1XgfCaxeQDqOAi9Gktj_0yVJcSyW8M2_YJW1_5LZU0Vf_JXcmCVP1C8PHhNKAgM-DY-2iwiOMLtii1jq6pWo-qbK9H3FGq-bAmRiYWavfxy1rnMFiiAa_dCpNQk3xr4RaCYbhhT4q62Z9xASvAZbGkwmw0r7EkyJAvDXLow7AszzxqiLGHSczRZa8gwOvwLYZP-HUoNwriWflJ4u9QoHKKIW-LLfgbbmf5Q_OabK8UI0-2CY-c8XQTLsiRp-bCqbA4pdXHx8nMoTzZo-xnXnhxbUStxsRJVXrTwYbCkXPzZL_1hB5jlJEdXda9erZY4-U2H6kawpxfoevaiWV_xp2gZ5tqwKZhrVpcEd_z2AsH5QmFFAmdPtczTOFSdPrv5jnW5o_odRyi1-m2b_4MNttRoh8a_dwr68nA1h-ccKlM_m00]--></g></svg>