<svg xmlns="http://www.w3.org/2000/svg" xmlns:xlink="http://www.w3.org/1999/xlink" contentStyleType="text/css" data-diagram-type="DESCRIPTION" height="492px" preserveAspectRatio="none" style="width:1958px;height:492px;background:#FFFFFF;" version="1.1" viewBox="0 0 1958 492" width="1958px" zoomAndPan="magnify"><title>Crystal Mall Management System - Data Flow Diagram</title><defs/><g><text fill="#4CAF50" font-family="sans-serif" font-size="16" font-weight="bold" lengthAdjust="spacing" textLength="492.3438" x="726.2281" y="24.8516">Crystal Mall Management System - Data Flow Diagram</text><!--cluster MallServices--><g class="cluster" data-entity="MallServices" data-source-line="19" data-uid="ent0007" id="cluster_MallServices"><rect fill="#F1F1F1" height="103.43" rx="2.5" ry="2.5" style="stroke:#4CAF50;stroke-width:1;" width="1912" x="40.8" y="146.415"/><text fill="#000000" font-family="sans-serif" font-size="14" font-weight="bold" lengthAdjust="spacing" textLength="104.3848" x="944.6076" y="161.4101">Mall Services</text></g><g class="entity" data-entity="Shop at Stores" data-source-line="20" data-uid="ent0008" id="entity_Shop at Stores"><ellipse cx="685.8017" cy="207.6253" fill="#F1F1F1" rx="73.7517" ry="17.1503" style="stroke:#181818;stroke-width:0.5;"/><text fill="#000000" font-family="sans-serif" font-size="14" lengthAdjust="spacing" textLength="102.7852" x="631.4091" y="211.3729">Shop at Stores</text></g><g class="entity" data-entity="Dine at Food Court" data-source-line="21" data-uid="ent0009" id="entity_Dine at Food Court"><ellipse cx="142.8035" cy="207.6297" fill="#F1F1F1" rx="85.7735" ry="19.5547" style="stroke:#181818;stroke-width:0.5;"/><text fill="#000000" font-family="sans-serif" font-size="14" lengthAdjust="spacing" textLength="132.1045" x="76.7513" y="210.4764">Dine at Food Court</text></g><g class="entity" data-entity="Watch Movies" data-source-line="22" data-uid="ent0010" id="entity_Watch Movies"><ellipse cx="335.8005" cy="207.6251" fill="#F1F1F1" rx="71.8005" ry="16.7601" style="stroke:#181818;stroke-width:0.5;"/><text fill="#000000" font-family="sans-serif" font-size="14" lengthAdjust="spacing" textLength="97.6582" x="283.9714" y="211.3727">Watch Movies</text></g><g class="entity" data-entity="Park Vehicle" data-source-line="23" data-uid="ent0011" id="entity_Park Vehicle"><ellipse cx="509.7976" cy="207.6245" fill="#F1F1F1" rx="67.6976" ry="15.9395" style="stroke:#181818;stroke-width:0.5;"/><text fill="#000000" font-family="sans-serif" font-size="14" lengthAdjust="spacing" textLength="86.4883" x="463.5534" y="211.3721">Park Vehicle</text></g><g class="entity" data-entity="Manage Store Operations" data-source-line="24" data-uid="ent0012" id="entity_Manage Store Operations"><ellipse cx="1148.7997" cy="207.6209" fill="#F1F1F1" rx="106.7297" ry="23.7459" style="stroke:#181818;stroke-width:0.5;"/><text fill="#000000" font-family="sans-serif" font-size="14" lengthAdjust="spacing" textLength="178.7871" x="1059.4062" y="210.4676">Manage Store Operations</text></g><g class="entity" data-entity="Handle Customer Service" data-source-line="25" data-uid="ent0013" id="entity_Handle Customer Service"><ellipse cx="900.8046" cy="207.6299" fill="#F1F1F1" rx="106.3746" ry="23.6749" style="stroke:#181818;stroke-width:0.5;"/><text fill="#000000" font-family="sans-serif" font-size="14" lengthAdjust="spacing" textLength="178.0146" x="811.7973" y="210.4766">Handle Customer Service</text></g><g class="entity" data-entity="Organize Events" data-source-line="26" data-uid="ent0014" id="entity_Organize Events"><ellipse cx="1368.8047" cy="207.6219" fill="#F1F1F1" rx="78.4847" ry="18.0969" style="stroke:#181818;stroke-width:0.5;"/><text fill="#000000" font-family="sans-serif" font-size="14" lengthAdjust="spacing" textLength="114.8164" x="1309.1405" y="211.1709">Organize Events</text></g><g class="entity" data-entity="Monitor Surveillance" data-source-line="27" data-uid="ent0015" id="entity_Monitor Surveillance"><ellipse cx="1572.8041" cy="207.6218" fill="#F1F1F1" rx="90.7841" ry="20.5568" style="stroke:#181818;stroke-width:0.5;"/><text fill="#000000" font-family="sans-serif" font-size="14" lengthAdjust="spacing" textLength="143.5137" x="1501.0473" y="210.4685">Monitor Surveillance</text></g><g class="entity" data-entity="Handle Emergency Response" data-source-line="28" data-uid="ent0016" id="entity_Handle Emergency Response"><ellipse cx="1817.7986" cy="207.6267" fill="#F1F1F1" rx="119.0586" ry="26.2117" style="stroke:#181818;stroke-width:0.5;"/><text fill="#000000" font-family="sans-serif" font-size="14" lengthAdjust="spacing" textLength="205.3447" x="1715.1263" y="210.4734">Handle Emergency Response</text></g><!--entity Customer--><g class="entity" data-entity="Customer" data-source-line="12" data-uid="ent0002" id="entity_Customer"><ellipse cx="422.802" cy="53.625" fill="#F1F1F1" rx="8" ry="8" style="stroke:#181818;stroke-width:0.5;"/><path d="M422.802,61.625 L422.802,88.625 M409.802,69.625 L435.802,69.625 M422.802,88.625 L409.802,103.625 M422.802,88.625 L435.802,103.625 " fill="none" style="stroke:#181818;stroke-width:0.5;"/><text fill="#000000" font-family="sans-serif" font-size="14" lengthAdjust="spacing" textLength="68.0039" x="388.8" y="118.1201">Customer</text></g><!--entity StoreOwner--><g class="entity" data-entity="StoreOwner" data-source-line="13" data-uid="ent0003" id="entity_StoreOwner"><ellipse cx="1148.7963" cy="53.625" fill="#F1F1F1" rx="8" ry="8" style="stroke:#181818;stroke-width:0.5;"/><path d="M1148.7963,61.625 L1148.7963,88.625 M1135.7963,69.625 L1161.7963,69.625 M1148.7963,88.625 L1135.7963,103.625 M1148.7963,88.625 L1161.7963,103.625 " fill="none" style="stroke:#181818;stroke-width:0.5;"/><text fill="#000000" font-family="sans-serif" font-size="14" lengthAdjust="spacing" textLength="87.4727" x="1105.06" y="118.1201">Store Owner</text></g><!--entity SecurityCompany--><g class="entity" data-entity="SecurityCompany" data-source-line="14" data-uid="ent0004" id="entity_SecurityCompany"><ellipse cx="1572.8015" cy="53.625" fill="#F1F1F1" rx="8" ry="8" style="stroke:#181818;stroke-width:0.5;"/><path d="M1572.8015,61.625 L1572.8015,88.625 M1559.8015,69.625 L1585.8015,69.625 M1572.8015,88.625 L1559.8015,103.625 M1572.8015,88.625 L1585.8015,103.625 " fill="none" style="stroke:#181818;stroke-width:0.5;"/><text fill="#000000" font-family="sans-serif" font-size="14" lengthAdjust="spacing" textLength="128.543" x="1508.53" y="118.1201">Security Company</text></g><!--entity MaintenanceCompany--><g class="entity" data-entity="MaintenanceCompany" data-source-line="15" data-uid="ent0005" id="entity_MaintenanceCompany"><ellipse cx="1817.796" cy="53.625" fill="#F1F1F1" rx="8" ry="8" style="stroke:#181818;stroke-width:0.5;"/><path d="M1817.796,61.625 L1817.796,88.625 M1804.796,69.625 L1830.796,69.625 M1817.796,88.625 L1804.796,103.625 M1817.796,88.625 L1830.796,103.625 " fill="none" style="stroke:#181818;stroke-width:0.5;"/><text fill="#000000" font-family="sans-serif" font-size="14" lengthAdjust="spacing" textLength="161.2119" x="1737.19" y="118.1201">Maintenance Company</text></g><!--entity PaymentGateway--><g class="entity" data-entity="PaymentGateway" data-source-line="16" data-uid="ent0006" id="entity_PaymentGateway"><ellipse cx="151.7974" cy="302.345" fill="#F1F1F1" rx="8" ry="8" style="stroke:#181818;stroke-width:0.5;"/><path d="M151.7974,310.345 L151.7974,337.345 M138.7974,318.345 L164.7974,318.345 M151.7974,337.345 L138.7974,352.345 M151.7974,337.345 L164.7974,352.345 " fill="none" style="stroke:#181818;stroke-width:0.5;"/><text fill="#000000" font-family="sans-serif" font-size="14" lengthAdjust="spacing" textLength="128.2148" x="87.69" y="366.8401">Payment Gateway</text></g><!--entity CustomersDB--><g class="entity" data-entity="CustomersDB" data-source-line="32" data-uid="ent0017" id="entity_CustomersDB"><path d="M1051.52,319.345 C1051.52,309.345 1134.7944,309.345 1134.7944,309.345 C1134.7944,309.345 1218.0688,309.345 1218.0688,319.345 L1218.0688,344.6419 C1218.0688,354.6419 1134.7944,354.6419 1134.7944,354.6419 C1134.7944,354.6419 1051.52,354.6419 1051.52,344.6419 L1051.52,319.345 " fill="#F1F1F1" style="stroke:#181818;stroke-width:0.5;"/><path d="M1051.52,319.345 C1051.52,329.345 1134.7944,329.345 1134.7944,329.345 C1134.7944,329.345 1218.0688,329.345 1218.0688,319.345 " fill="none" style="stroke:#181818;stroke-width:0.5;"/><text fill="#000000" font-family="sans-serif" font-size="14" lengthAdjust="spacing" textLength="146.5488" x="1061.52" y="346.3401">Customers Database</text></g><!--entity StoresDB--><g class="entity" data-entity="StoresDB" data-source-line="33" data-uid="ent0018" id="entity_StoresDB"><path d="M748.87,319.345 C748.87,309.345 816.7977,309.345 816.7977,309.345 C816.7977,309.345 884.7255,309.345 884.7255,319.345 L884.7255,344.6419 C884.7255,354.6419 816.7977,354.6419 816.7977,354.6419 C816.7977,354.6419 748.87,354.6419 748.87,344.6419 L748.87,319.345 " fill="#F1F1F1" style="stroke:#181818;stroke-width:0.5;"/><path d="M748.87,319.345 C748.87,329.345 816.7977,329.345 816.7977,329.345 C816.7977,329.345 884.7255,329.345 884.7255,319.345 " fill="none" style="stroke:#181818;stroke-width:0.5;"/><text fill="#000000" font-family="sans-serif" font-size="14" lengthAdjust="spacing" textLength="115.8555" x="758.87" y="346.3401">Stores Database</text></g><!--entity SalesDB--><g class="entity" data-entity="SalesDB" data-source-line="34" data-uid="ent0019" id="entity_SalesDB"><path d="M259.67,319.345 C259.67,309.345 318.7965,309.345 318.7965,309.345 C318.7965,309.345 377.9229,309.345 377.9229,319.345 L377.9229,344.6419 C377.9229,354.6419 318.7965,354.6419 318.7965,354.6419 C318.7965,354.6419 259.67,354.6419 259.67,344.6419 L259.67,319.345 " fill="#F1F1F1" style="stroke:#181818;stroke-width:0.5;"/><path d="M259.67,319.345 C259.67,329.345 318.7965,329.345 318.7965,329.345 C318.7965,329.345 377.9229,329.345 377.9229,319.345 " fill="none" style="stroke:#181818;stroke-width:0.5;"/><text fill="#000000" font-family="sans-serif" font-size="14" lengthAdjust="spacing" textLength="98.2529" x="269.67" y="346.3401">Sales Records</text></g><!--entity ParkingDB--><g class="entity" data-entity="ParkingDB" data-source-line="35" data-uid="ent0020" id="entity_ParkingDB"><path d="M443.04,319.345 C443.04,309.345 509.8022,309.345 509.8022,309.345 C509.8022,309.345 576.5644,309.345 576.5644,319.345 L576.5644,344.6419 C576.5644,354.6419 509.8022,354.6419 509.8022,354.6419 C509.8022,354.6419 443.04,354.6419 443.04,344.6419 L443.04,319.345 " fill="#F1F1F1" style="stroke:#181818;stroke-width:0.5;"/><path d="M443.04,319.345 C443.04,329.345 509.8022,329.345 509.8022,329.345 C509.8022,329.345 576.5644,329.345 576.5644,319.345 " fill="none" style="stroke:#181818;stroke-width:0.5;"/><text fill="#000000" font-family="sans-serif" font-size="14" lengthAdjust="spacing" textLength="113.5244" x="453.04" y="346.3401">Parking Records</text></g><!--entity SecurityDB--><g class="entity" data-entity="SecurityDB" data-source-line="36" data-uid="ent0021" id="entity_SecurityDB"><path d="M1515.56,319.345 C1515.56,309.345 1572.8032,309.345 1572.8032,309.345 C1572.8032,309.345 1630.0463,309.345 1630.0463,319.345 L1630.0463,344.6419 C1630.0463,354.6419 1572.8032,354.6419 1572.8032,354.6419 C1572.8032,354.6419 1515.56,354.6419 1515.56,344.6419 L1515.56,319.345 " fill="#F1F1F1" style="stroke:#181818;stroke-width:0.5;"/><path d="M1515.56,319.345 C1515.56,329.345 1572.8032,329.345 1572.8032,329.345 C1572.8032,329.345 1630.0463,329.345 1630.0463,319.345 " fill="none" style="stroke:#181818;stroke-width:0.5;"/><text fill="#000000" font-family="sans-serif" font-size="14" lengthAdjust="spacing" textLength="94.4863" x="1525.56" y="346.3401">Security Logs</text></g><!--entity MaintenanceDB--><g class="entity" data-entity="MaintenanceDB" data-source-line="37" data-uid="ent0022" id="entity_MaintenanceDB"><path d="M1733.33,319.345 C1733.33,309.345 1817.8007,309.345 1817.8007,309.345 C1817.8007,309.345 1902.2714,309.345 1902.2714,319.345 L1902.2714,344.6419 C1902.2714,354.6419 1817.8007,354.6419 1817.8007,354.6419 C1817.8007,354.6419 1733.33,354.6419 1733.33,344.6419 L1733.33,319.345 " fill="#F1F1F1" style="stroke:#181818;stroke-width:0.5;"/><path d="M1733.33,319.345 C1733.33,329.345 1817.8007,329.345 1817.8007,329.345 C1817.8007,329.345 1902.2714,329.345 1902.2714,319.345 " fill="none" style="stroke:#181818;stroke-width:0.5;"/><text fill="#000000" font-family="sans-serif" font-size="14" lengthAdjust="spacing" textLength="148.9414" x="1743.33" y="346.3401">Maintenance Reports</text></g><!--entity TransactionsDB--><g class="entity" data-entity="TransactionsDB" data-source-line="38" data-uid="ent0023" id="entity_TransactionsDB"><path d="M97.08,440.135 C97.08,430.135 151.8007,430.135 151.8007,430.135 C151.8007,430.135 206.5214,430.135 206.5214,440.135 L206.5214,465.4319 C206.5214,475.4319 151.8007,475.4319 151.8007,475.4319 C151.8007,475.4319 97.08,475.4319 97.08,465.4319 L97.08,440.135 " fill="#F1F1F1" style="stroke:#181818;stroke-width:0.5;"/><path d="M97.08,440.135 C97.08,450.135 151.8007,450.135 151.8007,450.135 C151.8007,450.135 206.5214,450.135 206.5214,440.135 " fill="none" style="stroke:#181818;stroke-width:0.5;"/><text fill="#000000" font-family="sans-serif" font-size="14" lengthAdjust="spacing" textLength="89.4414" x="107.08" y="467.1301">Transactions</text></g><!--link Customer to Shop at Stores--><g class="link" data-entity-1="Customer" data-entity-2="Shop at Stores" data-source-line="41" data-uid="lnk24" id="link_Customer_Shop at Stores"><path d="M457.09,91.445 C492.78,99.735 549.68,115.265 594.8,138.415 C622.55,152.665 646.1877,171.3618 663.6777,186.6118 " fill="none" id="Customer-to-Shop at Stores" style="stroke:#4CAF50;stroke-width:1;"/><polygon fill="#4CAF50" points="668.2,190.555,664.0453,181.6254,664.4314,187.269,658.7877,187.6552,668.2,190.555" style="stroke:#4CAF50;stroke-width:1;"/></g><!--link Customer to Dine at Food Court--><g class="link" data-entity-1="Customer" data-entity-2="Dine at Food Court" data-source-line="42" data-uid="lnk25" id="link_Customer_Dine at Food Court"><path d="M388.33,91.815 C352.06,100.455 293.81,116.315 246.8,138.415 C217.29,152.295 191.2312,169.9535 170.8612,185.0435 " fill="none" id="Customer-to-Dine at Food Court" style="stroke:#4CAF50;stroke-width:1;"/><polygon fill="#4CAF50" points="166.04,188.615,175.6528,186.4718,170.0577,185.6387,170.8908,180.0436,166.04,188.615" style="stroke:#4CAF50;stroke-width:1;"/></g><!--link Customer to Watch Movies--><g class="link" data-entity-1="Customer" data-entity-2="Watch Movies" data-source-line="43" data-uid="lnk26" id="link_Customer_Watch Movies"><path d="M396.22,121.645 C379.73,144.835 362.8771,168.5452 350.4971,185.9552 " fill="none" id="Customer-to-Watch Movies" style="stroke:#4CAF50;stroke-width:1;"/><polygon fill="#4CAF50" points="347.02,190.845,355.4955,185.8284,349.9175,186.7702,348.9757,181.1923,347.02,190.845" style="stroke:#4CAF50;stroke-width:1;"/></g><!--link Customer to Park Vehicle--><g class="link" data-entity-1="Customer" data-entity-2="Park Vehicle" data-source-line="44" data-uid="lnk27" id="link_Customer_Park Vehicle"><path d="M449.37,121.645 C466.06,145.125 483.2116,169.2461 495.5416,186.5761 " fill="none" id="Customer-to-Park Vehicle" style="stroke:#4CAF50;stroke-width:1;"/><polygon fill="#4CAF50" points="499.02,191.465,497.0617,181.8128,496.1214,187.3909,490.5432,186.4506,499.02,191.465" style="stroke:#4CAF50;stroke-width:1;"/></g><!--link Shop at Stores to StoresDB--><g class="link" data-entity-1="Shop at Stores" data-entity-2="StoresDB" data-source-line="46" data-uid="lnk28" id="link_Shop at Stores_StoresDB"><path d="M702.92,224.625 C726.09,246.265 763.1047,280.8399 789.0947,305.1099 " fill="none" id="Shop at Stores-to-StoresDB" style="stroke:#4CAF50;stroke-width:1;"/><polygon fill="#4CAF50" points="793.48,309.205,789.6321,300.1389,789.8256,305.7925,784.1721,305.9859,793.48,309.205" style="stroke:#4CAF50;stroke-width:1;"/></g><!--link Dine at Food Court to SalesDB--><g class="link" data-entity-1="Dine at Food Court" data-entity-2="SalesDB" data-source-line="47" data-uid="lnk29" id="link_Dine at Food Court_SalesDB"><path d="M168.77,226.685 C200.23,248.555 248.2736,281.9601 282.1336,305.5001 " fill="none" id="Dine at Food Court-to-SalesDB" style="stroke:#4CAF50;stroke-width:1;"/><polygon fill="#4CAF50" points="287.06,308.925,281.9536,300.5033,282.9546,306.0709,277.387,307.0719,287.06,308.925" style="stroke:#4CAF50;stroke-width:1;"/></g><!--link Watch Movies to SalesDB--><g class="link" data-entity-1="Watch Movies" data-entity-2="SalesDB" data-source-line="48" data-uid="lnk30" id="link_Watch Movies_SalesDB"><path d="M333.54,224.875 C330.54,246.465 326.0555,278.7321 322.6955,302.9221 " fill="none" id="Watch Movies-to-SalesDB" style="stroke:#4CAF50;stroke-width:1;"/><polygon fill="#4CAF50" points="321.87,308.865,327.0702,300.5009,322.5579,303.9125,319.1463,299.4003,321.87,308.865" style="stroke:#4CAF50;stroke-width:1;"/></g><!--link Park Vehicle to ParkingDB--><g class="link" data-entity-1="Park Vehicle" data-entity-2="ParkingDB" data-source-line="49" data-uid="lnk31" id="link_Park Vehicle_ParkingDB"><path d="M509.8,223.635 C509.8,245.075 509.8,278.605 509.8,303.255 " fill="none" id="Park Vehicle-to-ParkingDB" style="stroke:#4CAF50;stroke-width:1;"/><polygon fill="#4CAF50" points="509.8,309.255,513.8,300.255,509.8,304.255,505.8,300.255,509.8,309.255" style="stroke:#4CAF50;stroke-width:1;"/></g><!--link StoreOwner to Manage Store Operations--><g class="link" data-entity-1="StoreOwner" data-entity-2="Manage Store Operations" data-source-line="51" data-uid="lnk32" id="link_StoreOwner_Manage Store Operations"><path d="M1148.8,121.645 C1148.8,141.885 1148.8,160.245 1148.8,177.685 " fill="none" id="StoreOwner-to-Manage Store Operations" style="stroke:#4CAF50;stroke-width:1;"/><polygon fill="#4CAF50" points="1148.8,183.685,1152.8,174.685,1148.8,178.685,1144.8,174.685,1148.8,183.685" style="stroke:#4CAF50;stroke-width:1;"/></g><!--link Manage Store Operations to StoresDB--><g class="link" data-entity-1="Manage Store Operations" data-entity-2="StoresDB" data-source-line="52" data-uid="lnk33" id="link_Manage Store Operations_StoresDB"><path d="M1098.9,228.955 C1076.34,238.005 1049.31,248.675 1024.8,257.845 C977.12,275.675 928.5124,292.7694 887.3524,306.9594 " fill="none" id="Manage Store Operations-to-StoresDB" style="stroke:#4CAF50;stroke-width:1;"/><polygon fill="#4CAF50" points="881.68,308.915,891.4923,309.7632,886.407,307.2854,888.8848,302.2001,881.68,308.915" style="stroke:#4CAF50;stroke-width:1;"/></g><!--link Customer to Handle Customer Service--><g class="link" data-entity-1="Customer" data-entity-2="Handle Customer Service" data-source-line="54" data-uid="lnk34" id="link_Customer_Handle Customer Service"><path d="M457.17,85.545 C521.53,88.795 663.91,100.085 776.8,138.415 C809.72,149.595 839.0633,166.0412 863.2633,181.3912 " fill="none" id="Customer-to-Handle Customer Service" style="stroke:#4CAF50;stroke-width:1;"/><polygon fill="#4CAF50" points="868.33,184.605,862.8725,176.4065,864.1077,181.9268,858.5874,183.1621,868.33,184.605" style="stroke:#4CAF50;stroke-width:1;"/></g><!--link Handle Customer Service to CustomersDB--><g class="link" data-entity-1="Handle Customer Service" data-entity-2="CustomersDB" data-source-line="55" data-uid="lnk35" id="link_Handle Customer Service_CustomersDB"><path d="M941.56,229.945 C983.85,252.055 1044.373,283.7049 1087.213,306.1049 " fill="none" id="Handle Customer Service-to-CustomersDB" style="stroke:#4CAF50;stroke-width:1;"/><polygon fill="#4CAF50" points="1092.53,308.885,1086.4079,301.1701,1088.0991,306.5682,1082.701,308.2595,1092.53,308.885" style="stroke:#4CAF50;stroke-width:1;"/></g><!--link Organize Events to CustomersDB--><g class="link" data-entity-1="Organize Events" data-entity-2="CustomersDB" data-source-line="57" data-uid="lnk36" id="link_Organize Events_CustomersDB"><path d="M1338.21,224.625 C1296.95,246.195 1228.6374,281.9255 1182.1874,306.2055 " fill="none" id="Organize Events-to-CustomersDB" style="stroke:#4CAF50;stroke-width:1;"/><polygon fill="#4CAF50" points="1176.87,308.985,1186.6991,308.3607,1181.3012,306.6688,1182.9931,301.2709,1176.87,308.985" style="stroke:#4CAF50;stroke-width:1;"/></g><!--link SecurityCompany to Monitor Surveillance--><g class="link" data-entity-1="SecurityCompany" data-entity-2="Monitor Surveillance" data-source-line="59" data-uid="lnk37" id="link_SecurityCompany_Monitor Surveillance"><path d="M1572.8,121.645 C1572.8,143.155 1572.8,163.305 1572.8,180.875 " fill="none" id="SecurityCompany-to-Monitor Surveillance" style="stroke:#4CAF50;stroke-width:1;"/><polygon fill="#4CAF50" points="1572.8,186.875,1576.8,177.875,1572.8,181.875,1568.8,177.875,1572.8,186.875" style="stroke:#4CAF50;stroke-width:1;"/></g><!--link Monitor Surveillance to SecurityDB--><g class="link" data-entity-1="Monitor Surveillance" data-entity-2="SecurityDB" data-source-line="60" data-uid="lnk38" id="link_Monitor Surveillance_SecurityDB"><path d="M1572.8,228.565 C1572.8,250.635 1572.8,280.125 1572.8,302.995 " fill="none" id="Monitor Surveillance-to-SecurityDB" style="stroke:#4CAF50;stroke-width:1;"/><polygon fill="#4CAF50" points="1572.8,308.995,1576.8,299.995,1572.8,303.995,1568.8,299.995,1572.8,308.995" style="stroke:#4CAF50;stroke-width:1;"/></g><!--link MaintenanceCompany to Handle Emergency Response--><g class="link" data-entity-1="MaintenanceCompany" data-entity-2="Handle Emergency Response" data-source-line="62" data-uid="lnk39" id="link_MaintenanceCompany_Handle Emergency Response"><path d="M1817.8,121.645 C1817.8,140.905 1817.8,157.885 1817.8,175.095 " fill="none" id="MaintenanceCompany-to-Handle Emergency Response" style="stroke:#4CAF50;stroke-width:1;"/><polygon fill="#4CAF50" points="1817.8,181.095,1821.8,172.095,1817.8,176.095,1813.8,172.095,1817.8,181.095" style="stroke:#4CAF50;stroke-width:1;"/></g><!--link Handle Emergency Response to MaintenanceDB--><g class="link" data-entity-1="Handle Emergency Response" data-entity-2="MaintenanceDB" data-source-line="63" data-uid="lnk40" id="link_Handle Emergency Response_MaintenanceDB"><path d="M1817.8,234.285 C1817.8,256.425 1817.8,282.075 1817.8,303.055 " fill="none" id="Handle Emergency Response-to-MaintenanceDB" style="stroke:#4CAF50;stroke-width:1;"/><polygon fill="#4CAF50" points="1817.8,309.055,1821.8,300.055,1817.8,304.055,1813.8,300.055,1817.8,309.055" style="stroke:#4CAF50;stroke-width:1;"/></g><!--link Customer to PaymentGateway--><g class="link" data-entity-1="Customer" data-entity-2="PaymentGateway" data-source-line="65" data-uid="lnk41" id="link_Customer_PaymentGateway"><path d="M388.4,83.685 C303.16,83.045 85.76,86.635 40.8,138.415 C6,178.495 15.63,211.115 40.8,257.845 C51.14,277.045 63.8555,288.8979 82.2455,300.1779 " fill="none" id="Customer-to-PaymentGateway" style="stroke:#4CAF50;stroke-width:1;"/><polygon fill="#4CAF50" points="87.36,303.315,81.7796,295.1996,83.0979,300.7007,77.5968,302.019,87.36,303.315" style="stroke:#4CAF50;stroke-width:1;"/></g><!--link Shop at Stores to PaymentGateway--><g class="link" data-entity-1="Shop at Stores" data-entity-2="PaymentGateway" data-source-line="66" data-uid="lnk42" id="link_Shop at Stores_PaymentGateway"><path d="M662.98,224.275 C645.22,235.615 619.52,250.235 594.8,257.845 C444.08,304.245 394.73,255.355 241.8,293.845 C233.27,295.985 230.1401,296.7482 221.5701,299.8582 " fill="none" id="Shop at Stores-to-PaymentGateway" style="stroke:#4CAF50;stroke-width:1;"/><polygon fill="#4CAF50" points="215.93,301.905,225.7547,302.5949,220.6301,300.1994,223.0257,295.0748,215.93,301.905" style="stroke:#4CAF50;stroke-width:1;"/></g><!--link Dine at Food Court to PaymentGateway--><g class="link" data-entity-1="Dine at Food Court" data-entity-2="PaymentGateway" data-source-line="67" data-uid="lnk43" id="link_Dine at Food Court_PaymentGateway"><path d="M144.19,227.485 C145.47,244.975 146.9914,265.5511 148.5914,287.3811 " fill="none" id="Dine at Food Court-to-PaymentGateway" style="stroke:#4CAF50;stroke-width:1;"/><polygon fill="#4CAF50" points="149.03,293.365,152.3614,284.0967,148.6645,288.3784,144.3828,284.6815,149.03,293.365" style="stroke:#4CAF50;stroke-width:1;"/></g><!--link Watch Movies to PaymentGateway--><g class="link" data-entity-1="Watch Movies" data-entity-2="PaymentGateway" data-source-line="68" data-uid="lnk44" id="link_Watch Movies_PaymentGateway"><path d="M312.87,223.875 C286.86,241.175 248.4862,266.6927 213.2962,290.0927 " fill="none" id="Watch Movies-to-PaymentGateway" style="stroke:#4CAF50;stroke-width:1;"/><polygon fill="#4CAF50" points="208.3,293.415,218.0092,291.7624,212.4635,290.6464,213.5795,285.1007,208.3,293.415" style="stroke:#4CAF50;stroke-width:1;"/></g><!--link PaymentGateway to TransactionsDB--><g class="link" data-entity-1="PaymentGateway" data-entity-2="TransactionsDB" data-source-line="70" data-uid="lnk45" id="link_PaymentGateway_TransactionsDB"><path d="M151.8,370.575 C151.8,390.015 151.8,407.085 151.8,423.655 " fill="none" id="PaymentGateway-to-TransactionsDB" style="stroke:#4CAF50;stroke-width:1;"/><polygon fill="#4CAF50" points="151.8,429.655,155.8,420.655,151.8,424.655,147.8,420.655,151.8,429.655" style="stroke:#4CAF50;stroke-width:1;"/></g><!--SRC=[VLJBRjim4BppAuZqqFPW807Q7WiaVhI76Z7Ye3rlf8rCc2O5ahBZ5lttyYLPAqkL0SAS6JvsEAJT2rM3WGClyHKQwPxnpTrBKQa3AiSBtw1XjbCvuIIkj79RyHlvtPSnQgwbDlpTf_dzwlDjJs2mSA0gYGzGx2kZ6rLcwUek_4QbsfHefcO4O_HfYdozREKsVep5BVAvELi7agz1XaP1XR7OhOVnm6Ty0GxuIkeJNmYe_5oClUVBD- -4yiEMoayZq38ed9_yPjvOfmzeRZXOtdPQSkjRv8ydbVdOZzrEWKLZX3lpkJxKeCv9bi6CjTer27yU2bI1HDx31oCsS8wrVGE79qZgZ6KerBOnka1hVKsTyM4nRyyMpL5uBYyZPGlmFupxxyDsfsiEBXLcFoPm8HG6SALrwJVQ69U9N-2A7L_he-Yq6p1x_XDtef2OeNGcF7jNem4dj6e7V0TLXbFCJhTRpEoZgK25R2wFliPsp5eh4VpODkQ8GihW59rkwQUgK1Ld_eIszgjv_c_m9eOXLSTA__y5B5uEtKO-OEJuxUAX9qwZgJ9XL0RIgvwmy9bFXaU4Q89RGbL4bJ4wLvkg7xgo9594rW_K4zRQE3iC5D4_6r3MHoiSHnJs0Qzi_GgNXtKdD9jzlGuAPSSIGnKqEfIZ6MB3jQAeCtnihQJ8RjEbA4LMYjJ5VNQvt6bRapcUPEXE1rLE1d-IYUFwcMHNz-DQCdXxSYcZ5sWSJaLSuiQkdoTIqDZL-myNnzA0KgC6xzje6eQQgKmCTTVH6Bwcj1ybz9By0m00]--></g></svg>