<svg xmlns="http://www.w3.org/2000/svg" xmlns:xlink="http://www.w3.org/1999/xlink" contentStyleType="text/css" data-diagram-type="CLASS" height="563px" preserveAspectRatio="none" style="width:632px;height:563px;background:#FFFFFF;" version="1.1" viewBox="0 0 632 563" width="632px" zoomAndPan="magnify"><title>Crystal Mall Management System - Database Model Diagram</title><defs/><g><text fill="#4CAF50" font-family="sans-serif" font-size="16" font-weight="bold" lengthAdjust="spacing" textLength="547.4844" x="35.7456" y="24.8516">Crystal Mall Management System - Database Model Diagram</text><!--class Customers--><g class="entity" data-entity="Customers" data-source-line="11" data-uid="ent0002" id="entity_Customers"><rect fill="#F1F1F1" height="113.1875" rx="2.5" ry="2.5" style="stroke:#4CAF50;stroke-width:0.5;" width="141.9102" x="59.81" y="236.815"/><ellipse cx="90.3855" cy="252.815" fill="#ADD1B2" rx="11" ry="11" style="stroke:#181818;stroke-width:1;"/><path d="M94.4949,258.815 L86.7762,258.815 L86.7762,246.4244 L94.4949,246.4244 L94.4949,248.5806 L89.2293,248.5806 L89.2293,251.2525 L93.9949,251.2525 L93.9949,253.4088 L89.2293,253.4088 L89.2293,256.6588 L94.4949,256.6588 L94.4949,258.815 Z " fill="#000000"/><text fill="#000000" font-family="sans-serif" font-size="14" lengthAdjust="spacing" textLength="75.2979" x="107.8468" y="257.6617">Customers</text><line style="stroke:#4CAF50;stroke-width:0.5;" x1="60.81" x2="200.7202" y1="268.815" y2="268.815"/><ellipse cx="70.81" cy="282.4634" fill="none" rx="3" ry="3" style="stroke:#038048;stroke-width:1;"/><text fill="#000000" font-family="sans-serif" font-size="14" lengthAdjust="spacing" textLength="115.9102" x="79.81" y="285.8101">CustomerID [PK]</text><line style="stroke:#4CAF50;stroke-width:1;" x1="60.81" x2="200.7202" y1="293.1119" y2="293.1119"/><text fill="#000000" font-family="sans-serif" font-size="14" lengthAdjust="spacing" textLength="41.3027" x="110.1137" y="310.107">Name</text><text fill="#000000" font-family="sans-serif" font-size="14" lengthAdjust="spacing" textLength="43.3672" x="109.0815" y="326.4039">Phone</text><text fill="#000000" font-family="sans-serif" font-size="14" lengthAdjust="spacing" textLength="38.8418" x="111.3442" y="342.7007">Email</text></g><!--class Stores--><g class="entity" data-entity="Stores" data-source-line="19" data-uid="ent0003" id="entity_Stores"><rect fill="#F1F1F1" height="113.1875" rx="2.5" ry="2.5" style="stroke:#4CAF50;stroke-width:0.5;" width="111.2168" x="333.15" y="236.815"/><ellipse cx="363.7255" cy="252.815" fill="#ADD1B2" rx="11" ry="11" style="stroke:#181818;stroke-width:1;"/><path d="M367.8349,258.815 L360.1162,258.815 L360.1162,246.4244 L367.8349,246.4244 L367.8349,248.5806 L362.5693,248.5806 L362.5693,251.2525 L367.3349,251.2525 L367.3349,253.4088 L362.5693,253.4088 L362.5693,256.6588 L367.8349,256.6588 L367.8349,258.815 Z " fill="#000000"/><text fill="#000000" font-family="sans-serif" font-size="14" lengthAdjust="spacing" textLength="44.6045" x="381.1868" y="257.6617">Stores</text><line style="stroke:#4CAF50;stroke-width:0.5;" x1="334.15" x2="443.3668" y1="268.815" y2="268.815"/><ellipse cx="344.15" cy="282.4634" fill="none" rx="3" ry="3" style="stroke:#038048;stroke-width:1;"/><text fill="#000000" font-family="sans-serif" font-size="14" lengthAdjust="spacing" textLength="85.2168" x="353.15" y="285.8101">StoreID [PK]</text><line style="stroke:#4CAF50;stroke-width:1;" x1="334.15" x2="443.3668" y1="293.1119" y2="293.1119"/><text fill="#000000" font-family="sans-serif" font-size="14" lengthAdjust="spacing" textLength="78.6133" x="349.4518" y="310.107">StoreName</text><text fill="#000000" font-family="sans-serif" font-size="14" lengthAdjust="spacing" textLength="63.9502" x="356.7833" y="326.4039">Category</text><text fill="#000000" font-family="sans-serif" font-size="14" lengthAdjust="spacing" textLength="59.459" x="359.0289" y="342.7007">Location</text></g><!--class Sales--><g class="entity" data-entity="Sales" data-source-line="27" data-uid="ent0004" id="entity_Sales"><rect fill="#F1F1F1" height="129.4844" rx="2.5" ry="2.5" style="stroke:#4CAF50;stroke-width:0.5;" width="127.5205" x="170" y="427.005"/><ellipse cx="211.216" cy="443.005" fill="#ADD1B2" rx="11" ry="11" style="stroke:#181818;stroke-width:1;"/><path d="M215.3254,449.005 L207.6066,449.005 L207.6066,436.6144 L215.3254,436.6144 L215.3254,438.7706 L210.0598,438.7706 L210.0598,441.4425 L214.8254,441.4425 L214.8254,443.5988 L210.0598,443.5988 L210.0598,446.8488 L215.3254,446.8488 L215.3254,449.005 Z " fill="#000000"/><text fill="#000000" font-family="sans-serif" font-size="14" lengthAdjust="spacing" textLength="37.2627" x="231.0418" y="447.8517">Sales</text><line style="stroke:#4CAF50;stroke-width:0.5;" x1="171" x2="296.5205" y1="459.005" y2="459.005"/><ellipse cx="192.8228" cy="472.6534" fill="none" rx="3" ry="3" style="stroke:#038048;stroke-width:1;"/><text fill="#000000" font-family="sans-serif" font-size="14" lengthAdjust="spacing" textLength="77.875" x="201.8228" y="476.0001">SaleID [PK]</text><line style="stroke:#4CAF50;stroke-width:1;" x1="171" x2="296.5205" y1="483.3019" y2="483.3019"/><text fill="#000000" font-family="sans-serif" font-size="14" lengthAdjust="spacing" textLength="84.8271" x="191.3467" y="500.297">StoreID [FK]</text><text fill="#000000" font-family="sans-serif" font-size="14" lengthAdjust="spacing" textLength="115.5205" x="176" y="516.5939">CustomerID [FK]</text><text fill="#000000" font-family="sans-serif" font-size="14" lengthAdjust="spacing" textLength="63.4307" x="202.0449" y="532.8907">SaleDate</text><text fill="#000000" font-family="sans-serif" font-size="14" lengthAdjust="spacing" textLength="55.0156" x="206.2524" y="549.1876">Amount</text></g><!--class FoodCourt--><g class="entity" data-entity="FoodCourt" data-source-line="36" data-uid="ent0005" id="entity_FoodCourt"><rect fill="#F1F1F1" height="113.1875" rx="2.5" ry="2.5" style="stroke:#4CAF50;stroke-width:0.5;" width="146.4355" x="479.54" y="435.145"/><ellipse cx="513.3978" cy="451.145" fill="#ADD1B2" rx="11" ry="11" style="stroke:#181818;stroke-width:1;"/><path d="M517.5072,457.145 L509.7884,457.145 L509.7884,444.7544 L517.5072,444.7544 L517.5072,446.9106 L512.2416,446.9106 L512.2416,449.5825 L517.0072,449.5825 L517.0072,451.7388 L512.2416,451.7388 L512.2416,454.9888 L517.5072,454.9888 L517.5072,457.145 Z " fill="#000000"/><text fill="#000000" font-family="sans-serif" font-size="14" lengthAdjust="spacing" textLength="72.5293" x="531.5884" y="455.9917">FoodCourt</text><line style="stroke:#4CAF50;stroke-width:0.5;" x1="480.54" x2="624.9755" y1="467.145" y2="467.145"/><ellipse cx="490.54" cy="480.7934" fill="none" rx="3" ry="3" style="stroke:#038048;stroke-width:1;"/><text fill="#000000" font-family="sans-serif" font-size="14" lengthAdjust="spacing" textLength="120.4355" x="499.54" y="484.1401">FoodCourtID [PK]</text><line style="stroke:#4CAF50;stroke-width:1;" x1="480.54" x2="624.9755" y1="491.4419" y2="491.4419"/><text fill="#000000" font-family="sans-serif" font-size="14" lengthAdjust="spacing" textLength="91.5742" x="506.9707" y="508.437">VendorName</text><text fill="#000000" font-family="sans-serif" font-size="14" lengthAdjust="spacing" textLength="59.459" x="523.0283" y="524.7339">Location</text><text fill="#000000" font-family="sans-serif" font-size="14" lengthAdjust="spacing" textLength="37.2627" x="534.1264" y="541.0307">Sales</text></g><!--class Cinema--><g class="entity" data-entity="Cinema" data-source-line="44" data-uid="ent0006" id="entity_Cinema"><rect fill="#F1F1F1" height="113.1875" rx="2.5" ry="2.5" style="stroke:#4CAF50;stroke-width:0.5;" width="111.6816" x="332.92" y="435.145"/><ellipse cx="359.7611" cy="451.145" fill="#ADD1B2" rx="11" ry="11" style="stroke:#181818;stroke-width:1;"/><path d="M363.8704,457.145 L356.1517,457.145 L356.1517,444.7544 L363.8704,444.7544 L363.8704,446.9106 L358.6048,446.9106 L358.6048,449.5825 L363.3704,449.5825 L363.3704,451.7388 L358.6048,451.7388 L358.6048,454.9888 L363.8704,454.9888 L363.8704,457.145 Z " fill="#000000"/><text fill="#000000" font-family="sans-serif" font-size="14" lengthAdjust="spacing" textLength="53.3682" x="376.3924" y="455.9917">Cinema</text><line style="stroke:#4CAF50;stroke-width:0.5;" x1="333.92" x2="443.6016" y1="467.145" y2="467.145"/><ellipse cx="343.92" cy="480.7934" fill="none" rx="3" ry="3" style="stroke:#038048;stroke-width:1;"/><text fill="#000000" font-family="sans-serif" font-size="14" lengthAdjust="spacing" textLength="85.6816" x="352.92" y="484.1401">ShowID [PK]</text><line style="stroke:#4CAF50;stroke-width:1;" x1="333.92" x2="443.6016" y1="491.4419" y2="491.4419"/><text fill="#000000" font-family="sans-serif" font-size="14" lengthAdjust="spacing" textLength="82.7354" x="347.3931" y="508.437">MovieName</text><text fill="#000000" font-family="sans-serif" font-size="14" lengthAdjust="spacing" textLength="72.4678" x="352.5269" y="524.7339">ShowTime</text><text fill="#000000" font-family="sans-serif" font-size="14" lengthAdjust="spacing" textLength="79.8711" x="348.8253" y="541.0307">TicketsSold</text></g><!--class Parking--><g class="entity" data-entity="Parking" data-source-line="52" data-uid="ent0007" id="entity_Parking"><rect fill="#F1F1F1" height="113.1875" rx="2.5" ry="2.5" style="stroke:#4CAF50;stroke-width:0.5;" width="127.5205" x="7" y="435.145"/><ellipse cx="41.3438" cy="451.145" fill="#ADD1B2" rx="11" ry="11" style="stroke:#181818;stroke-width:1;"/><path d="M45.4532,457.145 L37.7345,457.145 L37.7345,444.7544 L45.4532,444.7544 L45.4532,446.9106 L40.1876,446.9106 L40.1876,449.5825 L44.9532,449.5825 L44.9532,451.7388 L40.1876,451.7388 L40.1876,454.9888 L45.4532,454.9888 L45.4532,457.145 Z " fill="#000000"/><text fill="#000000" font-family="sans-serif" font-size="14" lengthAdjust="spacing" textLength="52.5342" x="59.6425" y="455.9917">Parking</text><line style="stroke:#4CAF50;stroke-width:0.5;" x1="8" x2="133.5205" y1="467.145" y2="467.145"/><ellipse cx="18.54" cy="480.7934" fill="none" rx="3" ry="3" style="stroke:#038048;stroke-width:1;"/><text fill="#000000" font-family="sans-serif" font-size="14" lengthAdjust="spacing" textLength="100.4404" x="27.54" y="484.1401">ParkingID [PK]</text><line style="stroke:#4CAF50;stroke-width:1;" x1="8" x2="133.5205" y1="491.4419" y2="491.4419"/><text fill="#000000" font-family="sans-serif" font-size="14" lengthAdjust="spacing" textLength="83.0703" x="29.2251" y="508.437">SlotNumber</text><text fill="#000000" font-family="sans-serif" font-size="14" lengthAdjust="spacing" textLength="85.4902" x="28.0151" y="524.7339">VehicleType</text><text fill="#000000" font-family="sans-serif" font-size="14" lengthAdjust="spacing" textLength="115.5205" x="13" y="541.0307">CustomerID [FK]</text></g><!--class Maintenance--><g class="entity" data-entity="Maintenance" data-source-line="60" data-uid="ent0008" id="entity_Maintenance"><rect fill="#F1F1F1" height="113.1875" rx="2.5" ry="2.5" style="stroke:#4CAF50;stroke-width:0.5;" width="164.0654" x="217.73" y="46.625"/><ellipse cx="251.5878" cy="62.625" fill="#ADD1B2" rx="11" ry="11" style="stroke:#181818;stroke-width:1;"/><path d="M255.6972,68.625 L247.9784,68.625 L247.9784,56.2344 L255.6972,56.2344 L255.6972,58.3906 L250.4316,58.3906 L250.4316,61.0625 L255.1972,61.0625 L255.1972,63.2188 L250.4316,63.2188 L250.4316,66.4688 L255.6972,66.4688 L255.6972,68.625 Z " fill="#000000"/><text fill="#000000" font-family="sans-serif" font-size="14" lengthAdjust="spacing" textLength="90.1592" x="269.7784" y="67.4717">Maintenance</text><line style="stroke:#4CAF50;stroke-width:0.5;" x1="218.73" x2="380.7954" y1="78.625" y2="78.625"/><ellipse cx="228.73" cy="92.2734" fill="none" rx="3" ry="3" style="stroke:#038048;stroke-width:1;"/><text fill="#000000" font-family="sans-serif" font-size="14" lengthAdjust="spacing" textLength="138.0654" x="237.73" y="95.6201">MaintenanceID [PK]</text><line style="stroke:#4CAF50;stroke-width:1;" x1="218.73" x2="380.7954" y1="102.9219" y2="102.9219"/><text fill="#000000" font-family="sans-serif" font-size="14" lengthAdjust="spacing" textLength="52.6025" x="273.4614" y="119.917">Activity</text><text fill="#000000" font-family="sans-serif" font-size="14" lengthAdjust="spacing" textLength="33.4619" x="283.0318" y="136.2139">Date</text><text fill="#000000" font-family="sans-serif" font-size="14" lengthAdjust="spacing" textLength="96.127" x="251.6992" y="152.5107">AssignedStaff</text></g><!--class SecurityLogs--><g class="entity" data-entity="SecurityLogs" data-source-line="68" data-uid="ent0009" id="entity_SecurityLogs"><rect fill="#F1F1F1" height="113.1875" rx="2.5" ry="2.5" style="stroke:#4CAF50;stroke-width:0.5;" width="122.0361" x="416.74" y="46.625"/><ellipse cx="431.74" cy="62.625" fill="#ADD1B2" rx="11" ry="11" style="stroke:#181818;stroke-width:1;"/><path d="M435.8494,68.625 L428.1306,68.625 L428.1306,56.2344 L435.8494,56.2344 L435.8494,58.3906 L430.5838,58.3906 L430.5838,61.0625 L435.3494,61.0625 L435.3494,63.2188 L430.5838,63.2188 L430.5838,66.4688 L435.8494,66.4688 L435.8494,68.625 Z " fill="#000000"/><text fill="#000000" font-family="sans-serif" font-size="14" lengthAdjust="spacing" textLength="90.0361" x="445.74" y="67.4717">SecurityLogs</text><line style="stroke:#4CAF50;stroke-width:0.5;" x1="417.74" x2="537.7761" y1="78.625" y2="78.625"/><ellipse cx="427.74" cy="92.2734" fill="none" rx="3" ry="3" style="stroke:#038048;stroke-width:1;"/><text fill="#000000" font-family="sans-serif" font-size="14" lengthAdjust="spacing" textLength="73.1582" x="436.74" y="95.6201">LogID [PK]</text><line style="stroke:#4CAF50;stroke-width:1;" x1="417.74" x2="537.7761" y1="102.9219" y2="102.9219"/><text fill="#000000" font-family="sans-serif" font-size="14" lengthAdjust="spacing" textLength="52.6025" x="440.0178" y="119.917">Activity</text><text fill="#000000" font-family="sans-serif" font-size="14" lengthAdjust="spacing" textLength="33.4619" x="449.5881" y="136.2139">Date</text><text fill="#000000" font-family="sans-serif" font-size="14" lengthAdjust="spacing" textLength="48.5352" x="442.0515" y="152.5107">Details</text></g><!--link Customers to Sales--><g class="link" data-entity-1="Customers" data-entity-2="Sales" data-source-line="77" data-uid="lnk10" id="link_Customers_Sales"><path codeLine="77" d="M152.8644,357.693 C158.8644,373.153 163.05,382.265 170.76,397.005 C175.89,406.815 172.2211,401.6443 178.3511,411.3543 " fill="none" id="Customers-Sales" style="stroke:#4CAF50;stroke-width:1;"/><line style="stroke:#4CAF50;stroke-width:1;" x1="147.6882" x2="155.1462" y1="355.4112" y2="352.5168"/><line style="stroke:#4CAF50;stroke-width:1;" x1="148.7736" x2="156.2317" y1="358.208" y2="355.3135"/><line style="stroke:#4CAF50;stroke-width:1;" x1="152.8644" x2="149.97" y1="357.693" y2="350.235"/><line style="stroke:#4CAF50;stroke-width:1;" x1="183.6894" x2="193.0336" y1="419.8103" y2="423.372"/><line style="stroke:#4CAF50;stroke-width:1;" x1="183.6894" x2="182.8864" y1="419.8103" y2="429.778"/><line style="stroke:#4CAF50;stroke-width:1;" x1="183.6894" x2="187.96" y1="419.8103" y2="426.575"/><ellipse cx="180.4864" cy="414.7367" fill="none" rx="4" ry="4" style="stroke:#4CAF50;stroke-width:1;"/><text fill="#000000" font-family="sans-serif" font-size="13" lengthAdjust="spacing" textLength="41.4819" x="171.76" y="393.0719">Makes</text></g><!--link Stores to Sales--><g class="link" data-entity-1="Stores" data-entity-2="Sales" data-source-line="78" data-uid="lnk11" id="link_Stores_Sales"><path codeLine="78" d="M331.558,356.2234 C322.978,365.9834 319.61,370.155 311.76,380.005 C300.03,394.715 298.4248,396.3569 287.4448,411.8569 " fill="none" id="Stores-Sales" style="stroke:#4CAF50;stroke-width:1;"/><line style="stroke:#4CAF50;stroke-width:1;" x1="331.1948" x2="337.2032" y1="350.5782" y2="355.8602"/><line style="stroke:#4CAF50;stroke-width:1;" x1="329.2141" x2="335.2225" y1="352.8314" y2="358.1133"/><line style="stroke:#4CAF50;stroke-width:1;" x1="331.558" x2="336.84" y1="356.2234" y2="350.215"/><line style="stroke:#4CAF50;stroke-width:1;" x1="281.6644" x2="281.936" y1="420.017" y2="430.0133"/><line style="stroke:#4CAF50;stroke-width:1;" x1="281.6644" x2="272.144" y1="420.017" y2="423.0767"/><line style="stroke:#4CAF50;stroke-width:1;" x1="281.6644" x2="277.04" y1="420.017" y2="426.545"/><ellipse cx="285.1327" cy="415.1209" fill="none" rx="4" ry="4" style="stroke:#4CAF50;stroke-width:1;"/><text fill="#000000" font-family="sans-serif" font-size="13" lengthAdjust="spacing" textLength="67.4883" x="312.76" y="393.0719">Generates</text></g><!--link Customers to Parking--><g class="link" data-entity-1="Customers" data-entity-2="Parking" data-source-line="79" data-uid="lnk12" id="link_Customers_Parking"><path codeLine="79" d="M102.4702,357.9133 C98.5802,367.6433 97.82,370.315 94.76,380.005 C89.22,397.545 88.2437,399.4323 84.5137,417.1223 " fill="none" id="Customers-Parking" style="stroke:#4CAF50;stroke-width:1;"/><line style="stroke:#4CAF50;stroke-width:1;" x1="100.2409" x2="107.6693" y1="352.7143" y2="355.6841"/><line style="stroke:#4CAF50;stroke-width:1;" x1="99.1272" x2="106.5556" y1="355.4999" y2="358.4697"/><line style="stroke:#4CAF50;stroke-width:1;" x1="102.4702" x2="105.44" y1="357.9133" y2="350.485"/><line style="stroke:#4CAF50;stroke-width:1;" x1="82.4505" x2="86.6709" y1="426.9071" y2="435.9729"/><line style="stroke:#4CAF50;stroke-width:1;" x1="82.4505" x2="74.9291" y1="426.9071" y2="433.4971"/><line style="stroke:#4CAF50;stroke-width:1;" x1="82.4505" x2="80.8" y1="426.9071" y2="434.735"/><ellipse cx="83.6884" cy="421.0362" fill="none" rx="4" ry="4" style="stroke:#4CAF50;stroke-width:1;"/><text fill="#000000" font-family="sans-serif" font-size="13" lengthAdjust="spacing" textLength="31.0591" x="95.76" y="393.0719">Uses</text></g><!--link Stores to FoodCourt--><g class="link" data-entity-1="Stores" data-entity-2="FoodCourt" data-source-line="80" data-uid="lnk13" id="link_Stores_FoodCourt"><path codeLine="80" d="M440.6686,356.5449 C462.7286,382.9549 472.3077,394.4429 494.3777,420.8529 " fill="none" id="Stores-FoodCourt" style="stroke:#4CAF50;stroke-width:1;"/><line style="stroke:#4CAF50;stroke-width:1;" x1="435.0344" x2="441.1742" y1="356.0392" y2="350.9106"/><line style="stroke:#4CAF50;stroke-width:1;" x1="436.9576" x2="443.0974" y1="358.3417" y2="353.2131"/><line style="stroke:#4CAF50;stroke-width:1;" x1="440.6686" x2="435.54" y1="356.5449" y2="350.405"/><line style="stroke:#4CAF50;stroke-width:1;" x1="500.7901" x2="510.524" y1="428.5263" y2="430.8176"/><line style="stroke:#4CAF50;stroke-width:1;" x1="500.7901" x2="501.316" y1="428.5263" y2="438.5124"/><line style="stroke:#4CAF50;stroke-width:1;" x1="500.7901" x2="505.92" y1="428.5263" y2="434.665"/><ellipse cx="496.9426" cy="423.9222" fill="none" rx="4" ry="4" style="stroke:#4CAF50;stroke-width:1;"/><text fill="#000000" font-family="sans-serif" font-size="13" lengthAdjust="spacing" textLength="56.9575" x="471.76" y="393.0719">Contains</text></g><!--link Stores to Cinema--><g class="link" data-entity-1="Stores" data-entity-2="Cinema" data-source-line="81" data-uid="lnk14" id="link_Stores_Cinema"><path codeLine="81" d="M388.76,358.405 C388.76,384.815 388.76,390.255 388.76,416.665 " fill="none" id="Stores-Cinema" style="stroke:#4CAF50;stroke-width:1;"/><line style="stroke:#4CAF50;stroke-width:1;" x1="384.76" x2="392.76" y1="354.405" y2="354.405"/><line style="stroke:#4CAF50;stroke-width:1;" x1="384.76" x2="392.76" y1="357.405" y2="357.405"/><line style="stroke:#4CAF50;stroke-width:1;" x1="388.76" x2="388.76" y1="358.405" y2="350.405"/><line style="stroke:#4CAF50;stroke-width:1;" x1="388.76" x2="394.76" y1="426.665" y2="434.665"/><line style="stroke:#4CAF50;stroke-width:1;" x1="388.76" x2="382.76" y1="426.665" y2="434.665"/><line style="stroke:#4CAF50;stroke-width:1;" x1="388.76" x2="388.76" y1="426.665" y2="434.665"/><ellipse cx="388.76" cy="420.665" fill="none" rx="4" ry="4" style="stroke:#4CAF50;stroke-width:1;"/><text fill="#000000" font-family="sans-serif" font-size="13" lengthAdjust="spacing" textLength="56.9575" x="389.76" y="393.0719">Contains</text></g><!--link Maintenance to Stores--><g class="link" data-entity-1="Maintenance" data-entity-2="Stores" data-source-line="82" data-uid="lnk15" id="link_Maintenance_Stores"><path codeLine="82" d="M329.6417,167.4063 C341.0217,191.4563 343.1764,196.0021 354.5564,220.0721 " fill="none" id="Maintenance-Stores" style="stroke:#4CAF50;stroke-width:1;"/><line style="stroke:#4CAF50;stroke-width:1;" x1="324.3152" x2="331.5465" y1="165.5015" y2="162.0798"/><line style="stroke:#4CAF50;stroke-width:1;" x1="325.5983" x2="332.8297" y1="168.2133" y2="164.7915"/><line style="stroke:#4CAF50;stroke-width:1;" x1="329.6417" x2="326.22" y1="167.4063" y2="160.175"/><line style="stroke:#4CAF50;stroke-width:1;" x1="358.8306" x2="367.6743" y1="229.1126" y2="233.7805"/><line style="stroke:#4CAF50;stroke-width:1;" x1="358.8306" x2="356.8257" y1="229.1126" y2="238.9095"/><line style="stroke:#4CAF50;stroke-width:1;" x1="358.8306" x2="362.25" y1="229.1126" y2="236.345"/><ellipse cx="356.2661" cy="223.6883" fill="none" rx="4" ry="4" style="stroke:#4CAF50;stroke-width:1;"/><text fill="#000000" font-family="sans-serif" font-size="13" lengthAdjust="spacing" textLength="62.7212" x="347.76" y="202.8819">Maintains</text></g><!--link SecurityLogs to Stores--><g class="link" data-entity-1="SecurityLogs" data-entity-2="Stores" data-source-line="83" data-uid="lnk16" id="link_SecurityLogs_Stores"><path codeLine="83" d="M447.8783,167.4063 C436.4983,191.4563 434.3436,196.0021 422.9636,220.0721 " fill="none" id="SecurityLogs-Stores" style="stroke:#4CAF50;stroke-width:1;"/><line style="stroke:#4CAF50;stroke-width:1;" x1="445.9735" x2="453.2048" y1="162.0798" y2="165.5015"/><line style="stroke:#4CAF50;stroke-width:1;" x1="444.6903" x2="451.9217" y1="164.7915" y2="168.2133"/><line style="stroke:#4CAF50;stroke-width:1;" x1="447.8783" x2="451.3" y1="167.4063" y2="160.175"/><line style="stroke:#4CAF50;stroke-width:1;" x1="418.6894" x2="420.6943" y1="229.1126" y2="238.9095"/><line style="stroke:#4CAF50;stroke-width:1;" x1="418.6894" x2="409.8457" y1="229.1126" y2="233.7805"/><line style="stroke:#4CAF50;stroke-width:1;" x1="418.6894" x2="415.27" y1="229.1126" y2="236.345"/><ellipse cx="421.2539" cy="223.6883" fill="none" rx="4" ry="4" style="stroke:#4CAF50;stroke-width:1;"/><text fill="#000000" font-family="sans-serif" font-size="13" lengthAdjust="spacing" textLength="56.1895" x="436.76" y="202.8819">Monitors</text></g><!--SRC=[ZLF1Rjim3BtxAuJiiCCGe0Ms7NRpd7eOLXV1dErIxC3QZ2D45WD9RfUr-_VHYYDhirVK0Hpn-UcHUgJiNke366X5ZLlebDlWJvSgsUWMjHCLlz0aDh2ST0fpqgwKlr1Slf_xb94Y8rwzpTBytKL4g1HO-n6gVMEeq_L0oo_xtuH6faRph59g33qyouYAkV1FalWYHMQEre4I1QZ-fQ51VzoIOMp5Kgp0mHrO50NLgCHAGiEgIS8awOuYwwoZ5eqLZudWvqr0Fg_4xVhB3uykb_xl1bhqY_MEz6brrO9KoU-WLpeoE8hvS4R9uq4k0uSDcQCFhga29qd7eg1YJOx-9zdZ-O371pbZ_Lvsv9GsRRbvBigJ4t4lE-D2he3C9FoEkYOJ3X7gFkUnaN8cDROm7c573pEA1TtBqPMUj953i97L7fqjITMHx1eCpqaJT8TupXr5xgPhx_WAd6hVoKhXvdZ0MQ_650L8lZWQT8KXJOJDf4eh9-zvgmz6iwtbguXrwM2xZNkBLMTuSKtDs68ENYoyGiSZwCr-BRwYyasmEtcmoJZSJq_B9JqEW_H1B0hOerqamxJ- -_KJQZIipuo9nDbofdspKurnX9YGyQrbgoQaOHh-OiG-d-ivRVBbog0K-pKbafOSsCKV]--></g></svg>