<svg xmlns="http://www.w3.org/2000/svg" xmlns:xlink="http://www.w3.org/1999/xlink" contentStyleType="text/css" data-diagram-type="ACTIVITY" height="982px" preserveAspectRatio="none" style="width:166px;height:982px;background:#FFFFFF;" version="1.1" viewBox="0 0 166 982" width="166px" zoomAndPan="magnify"><defs/><g><ellipse cx="83.3672" cy="20" fill="#222222" rx="10" ry="10" style="stroke:#222222;stroke-width:1;"/><rect fill="#F1F1F1" height="33.9688" rx="12.5" ry="12.5" style="stroke:#181818;stroke-width:0.5;" width="101.3398" x="32.6973" y="50"/><text fill="#000000" font-family="sans-serif" font-size="12" lengthAdjust="spacing" textLength="81.3398" x="42.6973" y="71.1387">Browse Items</text><rect fill="#F1F1F1" height="33.9688" rx="12.5" ry="12.5" style="stroke:#181818;stroke-width:0.5;" width="94.4023" x="36.166" y="103.9688"/><text fill="#000000" font-family="sans-serif" font-size="12" lengthAdjust="spacing" textLength="74.4023" x="46.166" y="125.1074">Select Items</text><rect fill="#F1F1F1" height="33.9688" rx="12.5" ry="12.5" style="stroke:#181818;stroke-width:0.5;" width="144.7344" x="11" y="157.9375"/><text fill="#000000" font-family="sans-serif" font-size="12" lengthAdjust="spacing" textLength="124.7344" x="21" y="179.0762">Proceed to Checkout</text><rect fill="#F1F1F1" height="33.9688" rx="12.5" ry="12.5" style="stroke:#181818;stroke-width:0.5;" width="108.9277" x="28.9033" y="211.9063"/><text fill="#000000" font-family="sans-serif" font-size="12" lengthAdjust="spacing" textLength="88.9277" x="38.9033" y="233.0449">Make Payment</text><ellipse cx="83.3672" cy="276.875" fill="none" rx="11" ry="11" style="stroke:#222222;stroke-width:1;"/><ellipse cx="83.3672" cy="276.875" fill="#222222" rx="6" ry="6" style="stroke:#222222;stroke-width:1;"/><ellipse cx="83.3672" cy="307.875" fill="#222222" rx="10" ry="10" style="stroke:#222222;stroke-width:1;"/><rect fill="#F1F1F1" height="33.9688" rx="12.5" ry="12.5" style="stroke:#181818;stroke-width:0.5;" width="109.5371" x="28.5986" y="337.875"/><text fill="#000000" font-family="sans-serif" font-size="12" lengthAdjust="spacing" textLength="89.5371" x="38.5986" y="359.0137">Browse Movies</text><rect fill="#F1F1F1" height="33.9688" rx="12.5" ry="12.5" style="stroke:#181818;stroke-width:0.5;" width="96.3477" x="35.1934" y="391.8438"/><text fill="#000000" font-family="sans-serif" font-size="12" lengthAdjust="spacing" textLength="76.3477" x="45.1934" y="412.9824">Select Movie</text><rect fill="#F1F1F1" height="33.9688" rx="12.5" ry="12.5" style="stroke:#181818;stroke-width:0.5;" width="83.0527" x="41.8408" y="445.8125"/><text fill="#000000" font-family="sans-serif" font-size="12" lengthAdjust="spacing" textLength="63.0527" x="51.8408" y="466.9512">Buy Ticket</text><rect fill="#F1F1F1" height="33.9688" rx="12.5" ry="12.5" style="stroke:#181818;stroke-width:0.5;" width="128.627" x="19.0537" y="499.7813"/><text fill="#000000" font-family="sans-serif" font-size="12" lengthAdjust="spacing" textLength="108.627" x="29.0537" y="520.9199">Enter Cinema Hall</text><rect fill="#F1F1F1" height="33.9688" rx="12.5" ry="12.5" style="stroke:#181818;stroke-width:0.5;" width="97.4551" x="34.6396" y="553.75"/><text fill="#000000" font-family="sans-serif" font-size="12" lengthAdjust="spacing" textLength="77.4551" x="44.6396" y="574.8887">Watch Movie</text><ellipse cx="83.3672" cy="618.7188" fill="none" rx="11" ry="11" style="stroke:#222222;stroke-width:1;"/><ellipse cx="83.3672" cy="618.7188" fill="#222222" rx="6" ry="6" style="stroke:#222222;stroke-width:1;"/><ellipse cx="83.3672" cy="649.7188" fill="#222222" rx="10" ry="10" style="stroke:#222222;stroke-width:1;"/><rect fill="#F1F1F1" height="33.9688" rx="12.5" ry="12.5" style="stroke:#181818;stroke-width:0.5;" width="123.5996" x="21.5674" y="679.7188"/><text fill="#000000" font-family="sans-serif" font-size="12" lengthAdjust="spacing" textLength="103.5996" x="31.5674" y="700.8574">Enter Parking Lot</text><rect fill="#F1F1F1" height="33.9688" rx="12.5" ry="12.5" style="stroke:#181818;stroke-width:0.5;" width="121.1152" x="22.8096" y="733.6875"/><text fill="#000000" font-family="sans-serif" font-size="12" lengthAdjust="spacing" textLength="101.1152" x="32.8096" y="754.8262">Find Parking Slot</text><rect fill="#F1F1F1" height="33.9688" rx="12.5" ry="12.5" style="stroke:#181818;stroke-width:0.5;" width="94.1328" x="36.3008" y="787.6563"/><text fill="#000000" font-family="sans-serif" font-size="12" lengthAdjust="spacing" textLength="74.1328" x="46.3008" y="808.7949">Park Vehicle</text><rect fill="#F1F1F1" height="33.9688" rx="12.5" ry="12.5" style="stroke:#181818;stroke-width:0.5;" width="116.0176" x="25.3584" y="841.625"/><text fill="#000000" font-family="sans-serif" font-size="12" lengthAdjust="spacing" textLength="96.0176" x="35.3584" y="862.7637">Pay Parking Fee</text><rect fill="#F1F1F1" height="33.9688" rx="12.5" ry="12.5" style="stroke:#181818;stroke-width:0.5;" width="114.1133" x="26.3105" y="895.5938"/><text fill="#000000" font-family="sans-serif" font-size="12" lengthAdjust="spacing" textLength="94.1133" x="36.3105" y="916.7324">Exit Parking Lot</text><ellipse cx="83.3672" cy="960.5625" fill="none" rx="11" ry="11" style="stroke:#222222;stroke-width:1;"/><ellipse cx="83.3672" cy="960.5625" fill="#222222" rx="6" ry="6" style="stroke:#222222;stroke-width:1;"/><line style="stroke:#181818;stroke-width:1;" x1="83.3672" x2="83.3672" y1="30" y2="50"/><polygon fill="#181818" points="79.3672,40,83.3672,50,87.3672,40,83.3672,44" style="stroke:#181818;stroke-width:1;"/><line style="stroke:#181818;stroke-width:1;" x1="83.3672" x2="83.3672" y1="83.9688" y2="103.9688"/><polygon fill="#181818" points="79.3672,93.9688,83.3672,103.9688,87.3672,93.9688,83.3672,97.9688" style="stroke:#181818;stroke-width:1;"/><line style="stroke:#181818;stroke-width:1;" x1="83.3672" x2="83.3672" y1="137.9375" y2="157.9375"/><polygon fill="#181818" points="79.3672,147.9375,83.3672,157.9375,87.3672,147.9375,83.3672,151.9375" style="stroke:#181818;stroke-width:1;"/><line style="stroke:#181818;stroke-width:1;" x1="83.3672" x2="83.3672" y1="191.9063" y2="211.9063"/><polygon fill="#181818" points="79.3672,201.9063,83.3672,211.9063,87.3672,201.9063,83.3672,205.9063" style="stroke:#181818;stroke-width:1;"/><line style="stroke:#181818;stroke-width:1;" x1="83.3672" x2="83.3672" y1="245.875" y2="265.875"/><polygon fill="#181818" points="79.3672,255.875,83.3672,265.875,87.3672,255.875,83.3672,259.875" style="stroke:#181818;stroke-width:1;"/><line style="stroke:#181818;stroke-width:1;" x1="83.3672" x2="83.3672" y1="317.875" y2="337.875"/><polygon fill="#181818" points="79.3672,327.875,83.3672,337.875,87.3672,327.875,83.3672,331.875" style="stroke:#181818;stroke-width:1;"/><line style="stroke:#181818;stroke-width:1;" x1="83.3672" x2="83.3672" y1="371.8438" y2="391.8438"/><polygon fill="#181818" points="79.3672,381.8438,83.3672,391.8438,87.3672,381.8438,83.3672,385.8438" style="stroke:#181818;stroke-width:1;"/><line style="stroke:#181818;stroke-width:1;" x1="83.3672" x2="83.3672" y1="425.8125" y2="445.8125"/><polygon fill="#181818" points="79.3672,435.8125,83.3672,445.8125,87.3672,435.8125,83.3672,439.8125" style="stroke:#181818;stroke-width:1;"/><line style="stroke:#181818;stroke-width:1;" x1="83.3672" x2="83.3672" y1="479.7813" y2="499.7813"/><polygon fill="#181818" points="79.3672,489.7813,83.3672,499.7813,87.3672,489.7813,83.3672,493.7813" style="stroke:#181818;stroke-width:1;"/><line style="stroke:#181818;stroke-width:1;" x1="83.3672" x2="83.3672" y1="533.75" y2="553.75"/><polygon fill="#181818" points="79.3672,543.75,83.3672,553.75,87.3672,543.75,83.3672,547.75" style="stroke:#181818;stroke-width:1;"/><line style="stroke:#181818;stroke-width:1;" x1="83.3672" x2="83.3672" y1="587.7188" y2="607.7188"/><polygon fill="#181818" points="79.3672,597.7188,83.3672,607.7188,87.3672,597.7188,83.3672,601.7188" style="stroke:#181818;stroke-width:1;"/><line style="stroke:#181818;stroke-width:1;" x1="83.3672" x2="83.3672" y1="659.7188" y2="679.7188"/><polygon fill="#181818" points="79.3672,669.7188,83.3672,679.7188,87.3672,669.7188,83.3672,673.7188" style="stroke:#181818;stroke-width:1;"/><line style="stroke:#181818;stroke-width:1;" x1="83.3672" x2="83.3672" y1="713.6875" y2="733.6875"/><polygon fill="#181818" points="79.3672,723.6875,83.3672,733.6875,87.3672,723.6875,83.3672,727.6875" style="stroke:#181818;stroke-width:1;"/><line style="stroke:#181818;stroke-width:1;" x1="83.3672" x2="83.3672" y1="767.6563" y2="787.6563"/><polygon fill="#181818" points="79.3672,777.6563,83.3672,787.6563,87.3672,777.6563,83.3672,781.6563" style="stroke:#181818;stroke-width:1;"/><line style="stroke:#181818;stroke-width:1;" x1="83.3672" x2="83.3672" y1="821.625" y2="841.625"/><polygon fill="#181818" points="79.3672,831.625,83.3672,841.625,87.3672,831.625,83.3672,835.625" style="stroke:#181818;stroke-width:1;"/><line style="stroke:#181818;stroke-width:1;" x1="83.3672" x2="83.3672" y1="875.5938" y2="895.5938"/><polygon fill="#181818" points="79.3672,885.5938,83.3672,895.5938,87.3672,885.5938,83.3672,889.5938" style="stroke:#181818;stroke-width:1;"/><line style="stroke:#181818;stroke-width:1;" x1="83.3672" x2="83.3672" y1="929.5625" y2="949.5625"/><polygon fill="#181818" points="79.3672,939.5625,83.3672,949.5625,87.3672,939.5625,83.3672,943.5625" style="stroke:#181818;stroke-width:1;"/><!--SRC=[TOx1Ri8m44Jl_egzSMwvkQT2GI21X9IgFQ_CYgpYU2DdeStVrpPAL40SttWzRsRmxfGlh0DyC9uYjl1YeQgbwpYS01KGAfL8fbUCQkmYoazFi5Lg-pTZA_BaTC9354Tq11LOrkGQEMjAzzWG771eAIJiLJfZPe_YLmlVgAukOjZBXU-j9VkdBPnmSHxWarr3sROAIX6M7AX5sA3tAIkzu_dJ0NERLiRcwl-YcfsV5bnRn-UTPDEQmt6AAb-oZEFVWiDqiQQSh7vPRtlodZy0]--></g></svg>