<svg xmlns="http://www.w3.org/2000/svg" xmlns:xlink="http://www.w3.org/1999/xlink" contentStyleType="text/css" data-diagram-type="ACTIVITY" height="588px" preserveAspectRatio="none" style="width:848px;height:588px;background:#FFFFFF;" version="1.1" viewBox="0 0 848 588" width="848px" zoomAndPan="magnify"><defs/><g><ellipse cx="501.3306" cy="20" fill="#222222" rx="10" ry="10" style="stroke:#222222;stroke-width:1;"/><rect fill="#F1F1F1" height="33.9688" rx="12.5" ry="12.5" style="stroke:#181818;stroke-width:0.5;" width="173.3984" x="414.6313" y="50"/><text fill="#000000" font-family="sans-serif" font-size="12" lengthAdjust="spacing" textLength="153.3984" x="424.6313" y="71.1387">Customer enters the mall</text><rect fill="#F1F1F1" height="33.9688" rx="12.5" ry="12.5" style="stroke:#181818;stroke-width:0.5;" width="218.0996" x="392.2808" y="103.9688"/><text fill="#000000" font-family="sans-serif" font-size="12" lengthAdjust="spacing" textLength="198.0996" x="402.2808" y="125.1074">Customer selects a store to shop</text><polygon fill="#F1F1F1" points="451.895,157.9375,550.7661,157.9375,562.7661,169.9375,550.7661,181.9375,451.895,181.9375,439.895,169.9375,451.895,157.9375" style="stroke:#181818;stroke-width:0.5;"/><text fill="#000000" font-family="sans-serif" font-size="11" lengthAdjust="spacing" textLength="98.8711" x="451.895" y="173.7456">Is the store open?</text><text fill="#000000" font-family="sans-serif" font-size="11" lengthAdjust="spacing" textLength="19.2178" x="420.6772" y="167.3433">Yes</text><text fill="#000000" font-family="sans-serif" font-size="11" lengthAdjust="spacing" textLength="14.9585" x="562.7661" y="167.3433">No</text><rect fill="#F1F1F1" height="33.9688" rx="12.5" ry="12.5" style="stroke:#181818;stroke-width:0.5;" width="236.2109" x="176.3096" y="191.9375"/><text fill="#000000" font-family="sans-serif" font-size="12" lengthAdjust="spacing" textLength="216.2109" x="186.3096" y="213.0762">Customer selects items to purchase</text><rect fill="#F1F1F1" height="33.9688" rx="12.5" ry="12.5" style="stroke:#181818;stroke-width:0.5;" width="212.5508" x="188.1396" y="245.9063"/><text fill="#000000" font-family="sans-serif" font-size="12" lengthAdjust="spacing" textLength="192.5508" x="198.1396" y="267.0449">System calculates the total cost</text><rect fill="#F1F1F1" height="33.9688" rx="12.5" ry="12.5" style="stroke:#181818;stroke-width:0.5;" width="210.3594" x="189.2354" y="299.875"/><text fill="#000000" font-family="sans-serif" font-size="12" lengthAdjust="spacing" textLength="190.3594" x="199.2354" y="321.0137">Customer proceeds to payment</text><polygon fill="#F1F1F1" points="230.5474,353.8438,358.2827,353.8438,370.2827,365.8438,358.2827,377.8438,230.5474,377.8438,218.5474,365.8438,230.5474,353.8438" style="stroke:#181818;stroke-width:0.5;"/><text fill="#000000" font-family="sans-serif" font-size="11" lengthAdjust="spacing" textLength="127.7354" x="230.5474" y="369.6519">Is payment successful?</text><text fill="#000000" font-family="sans-serif" font-size="11" lengthAdjust="spacing" textLength="19.2178" x="199.3296" y="363.2495">Yes</text><text fill="#000000" font-family="sans-serif" font-size="11" lengthAdjust="spacing" textLength="14.9585" x="370.2827" y="363.2495">No</text><rect fill="#F1F1F1" height="33.9688" rx="12.5" ry="12.5" style="stroke:#181818;stroke-width:0.5;" width="287.6738" x="11" y="387.8438"/><text fill="#000000" font-family="sans-serif" font-size="12" lengthAdjust="spacing" textLength="267.6738" x="21" y="408.9824">System updates inventory and sales records</text><rect fill="#F1F1F1" height="33.9688" rx="12.5" ry="12.5" style="stroke:#181818;stroke-width:0.5;" width="186.1133" x="61.7803" y="441.8125"/><text fill="#000000" font-family="sans-serif" font-size="12" lengthAdjust="spacing" textLength="166.1133" x="71.7803" y="462.9512">System generates a receipt</text><rect fill="#F1F1F1" height="33.9688" rx="12.5" ry="12.5" style="stroke:#181818;stroke-width:0.5;" width="230.6387" x="318.6738" y="387.8438"/><text fill="#000000" font-family="sans-serif" font-size="12" lengthAdjust="spacing" textLength="210.6387" x="328.6738" y="408.9824">Notify customer of payment failure</text><polygon fill="#F1F1F1" points="294.415,481.7813,306.415,493.7813,294.415,505.7813,282.415,493.7813,294.415,481.7813" style="stroke:#181818;stroke-width:0.5;"/><rect fill="#F1F1F1" height="33.9688" rx="12.5" ry="12.5" style="stroke:#181818;stroke-width:0.5;" width="257.8672" x="579.3125" y="191.9375"/><text fill="#000000" font-family="sans-serif" font-size="12" lengthAdjust="spacing" textLength="237.8672" x="589.3125" y="213.0762">Notify customer that the store is closed</text><polygon fill="#F1F1F1" points="501.3306,511.7813,513.3306,523.7813,501.3306,535.7813,489.3306,523.7813,501.3306,511.7813" style="stroke:#181818;stroke-width:0.5;"/><ellipse cx="501.3306" cy="566.7813" fill="none" rx="11" ry="11" style="stroke:#222222;stroke-width:1;"/><ellipse cx="501.3306" cy="566.7813" fill="#222222" rx="6" ry="6" style="stroke:#222222;stroke-width:1;"/><line style="stroke:#181818;stroke-width:1;" x1="501.3306" x2="501.3306" y1="30" y2="50"/><polygon fill="#181818" points="497.3306,40,501.3306,50,505.3306,40,501.3306,44" style="stroke:#181818;stroke-width:1;"/><line style="stroke:#181818;stroke-width:1;" x1="501.3306" x2="501.3306" y1="83.9688" y2="103.9688"/><polygon fill="#181818" points="497.3306,93.9688,501.3306,103.9688,505.3306,93.9688,501.3306,97.9688" style="stroke:#181818;stroke-width:1;"/><line style="stroke:#181818;stroke-width:1;" x1="294.415" x2="294.415" y1="225.9063" y2="245.9063"/><polygon fill="#181818" points="290.415,235.9063,294.415,245.9063,298.415,235.9063,294.415,239.9063" style="stroke:#181818;stroke-width:1;"/><line style="stroke:#181818;stroke-width:1;" x1="294.415" x2="294.415" y1="279.875" y2="299.875"/><polygon fill="#181818" points="290.415,289.875,294.415,299.875,298.415,289.875,294.415,293.875" style="stroke:#181818;stroke-width:1;"/><line style="stroke:#181818;stroke-width:1;" x1="154.8369" x2="154.8369" y1="421.8125" y2="441.8125"/><polygon fill="#181818" points="150.8369,431.8125,154.8369,441.8125,158.8369,431.8125,154.8369,435.8125" style="stroke:#181818;stroke-width:1;"/><line style="stroke:#181818;stroke-width:1;" x1="218.5474" x2="154.8369" y1="365.8438" y2="365.8438"/><line style="stroke:#181818;stroke-width:1;" x1="154.8369" x2="154.8369" y1="365.8438" y2="387.8438"/><polygon fill="#181818" points="150.8369,377.8438,154.8369,387.8438,158.8369,377.8438,154.8369,381.8438" style="stroke:#181818;stroke-width:1;"/><line style="stroke:#181818;stroke-width:1;" x1="370.2827" x2="433.9932" y1="365.8438" y2="365.8438"/><line style="stroke:#181818;stroke-width:1;" x1="433.9932" x2="433.9932" y1="365.8438" y2="387.8438"/><polygon fill="#181818" points="429.9932,377.8438,433.9932,387.8438,437.9932,377.8438,433.9932,381.8438" style="stroke:#181818;stroke-width:1;"/><line style="stroke:#181818;stroke-width:1;" x1="154.8369" x2="154.8369" y1="475.7813" y2="493.7813"/><line style="stroke:#181818;stroke-width:1;" x1="154.8369" x2="282.415" y1="493.7813" y2="493.7813"/><polygon fill="#181818" points="272.415,489.7813,282.415,493.7813,272.415,497.7813,276.415,493.7813" style="stroke:#181818;stroke-width:1;"/><line style="stroke:#181818;stroke-width:1;" x1="433.9932" x2="433.9932" y1="421.8125" y2="493.7813"/><line style="stroke:#181818;stroke-width:1;" x1="433.9932" x2="306.415" y1="493.7813" y2="493.7813"/><polygon fill="#181818" points="316.415,489.7813,306.415,493.7813,316.415,497.7813,312.415,493.7813" style="stroke:#181818;stroke-width:1;"/><line style="stroke:#181818;stroke-width:1;" x1="294.415" x2="294.415" y1="333.8438" y2="353.8438"/><polygon fill="#181818" points="290.415,343.8438,294.415,353.8438,298.415,343.8438,294.415,347.8438" style="stroke:#181818;stroke-width:1;"/><line style="stroke:#181818;stroke-width:1;" x1="439.895" x2="294.415" y1="169.9375" y2="169.9375"/><line style="stroke:#181818;stroke-width:1;" x1="294.415" x2="294.415" y1="169.9375" y2="191.9375"/><polygon fill="#181818" points="290.415,181.9375,294.415,191.9375,298.415,181.9375,294.415,185.9375" style="stroke:#181818;stroke-width:1;"/><line style="stroke:#181818;stroke-width:1;" x1="562.7661" x2="708.2461" y1="169.9375" y2="169.9375"/><line style="stroke:#181818;stroke-width:1;" x1="708.2461" x2="708.2461" y1="169.9375" y2="191.9375"/><polygon fill="#181818" points="704.2461,181.9375,708.2461,191.9375,712.2461,181.9375,708.2461,185.9375" style="stroke:#181818;stroke-width:1;"/><line style="stroke:#181818;stroke-width:1;" x1="294.415" x2="294.415" y1="505.7813" y2="523.7813"/><line style="stroke:#181818;stroke-width:1;" x1="294.415" x2="489.3306" y1="523.7813" y2="523.7813"/><polygon fill="#181818" points="479.3306,519.7813,489.3306,523.7813,479.3306,527.7813,483.3306,523.7813" style="stroke:#181818;stroke-width:1;"/><line style="stroke:#181818;stroke-width:1;" x1="708.2461" x2="708.2461" y1="225.9063" y2="523.7813"/><line style="stroke:#181818;stroke-width:1;" x1="708.2461" x2="513.3306" y1="523.7813" y2="523.7813"/><polygon fill="#181818" points="523.3306,519.7813,513.3306,523.7813,523.3306,527.7813,519.3306,523.7813" style="stroke:#181818;stroke-width:1;"/><line style="stroke:#181818;stroke-width:1;" x1="501.3306" x2="501.3306" y1="137.9375" y2="157.9375"/><polygon fill="#181818" points="497.3306,147.9375,501.3306,157.9375,505.3306,147.9375,501.3306,151.9375" style="stroke:#181818;stroke-width:1;"/><line style="stroke:#181818;stroke-width:1;" x1="501.3306" x2="501.3306" y1="535.7813" y2="555.7813"/><polygon fill="#181818" points="497.3306,545.7813,501.3306,555.7813,505.3306,545.7813,501.3306,549.7813" style="stroke:#181818;stroke-width:1;"/><!--SRC=[PP2zRiCm38HtFmN7v1MgeKEdBbawTIJaKor05WMHAk2tZ_pJrcdMutrt9wbnjU7bhQd9Z4h8Xgfa4sZcbDpff4ZmfiJKXGeo8Psak246khplp7wHWlnwNOLCbq_eTI1wpec6MTUKqggVME5MsyUYNIVFoRV4XZtNn3YH5pNta5MgU63SOtYP-_pLS2mw5DBcFLH3I_zN_HMsCcvjCNztHEf2d4TIJbshy597TG_05pBgXl1gG2nRDPA2BZSvqczYCIpaVmPB-5qLEAPMjrSZZp4CP_G9j8djzCLHoITHZ6xOuIwNEm00]--></g></svg>