<svg xmlns="http://www.w3.org/2000/svg" xmlns:xlink="http://www.w3.org/1999/xlink" contentStyleType="text/css" data-diagram-type="ACTIVITY" height="416px" preserveAspectRatio="none" style="width:498px;height:416px;background:#FFFFFF;" version="1.1" viewBox="0 0 498 416" width="498px" zoomAndPan="magnify"><defs/><g><ellipse cx="248.5757" cy="20" fill="#222222" rx="10" ry="10" style="stroke:#222222;stroke-width:1;"/><rect fill="#F1F1F1" height="33.9688" rx="12.5" ry="12.5" style="stroke:#181818;stroke-width:0.5;" width="242.8379" x="127.1567" y="50"/><text fill="#000000" font-family="sans-serif" font-size="12" lengthAdjust="spacing" textLength="222.8379" x="137.1567" y="71.1387">Customer arrives at the parking area</text><polygon fill="#F1F1F1" points="172.5854,103.9688,324.5659,103.9688,336.5659,115.9688,324.5659,127.9688,172.5854,127.9688,160.5854,115.9688,172.5854,103.9688" style="stroke:#181818;stroke-width:0.5;"/><text fill="#000000" font-family="sans-serif" font-size="11" lengthAdjust="spacing" textLength="151.9805" x="172.5854" y="119.7769">Are parking slots available?</text><text fill="#000000" font-family="sans-serif" font-size="11" lengthAdjust="spacing" textLength="19.2178" x="141.3677" y="113.3745">Yes</text><text fill="#000000" font-family="sans-serif" font-size="11" lengthAdjust="spacing" textLength="14.9585" x="336.5659" y="113.3745">No</text><rect fill="#F1F1F1" height="33.9688" rx="12.5" ry="12.5" style="stroke:#181818;stroke-width:0.5;" width="199.0684" x="24.9951" y="137.9688"/><text fill="#000000" font-family="sans-serif" font-size="12" lengthAdjust="spacing" textLength="179.0684" x="34.9951" y="159.1074">System assigns a parking slot</text><rect fill="#F1F1F1" height="33.9688" rx="12.5" ry="12.5" style="stroke:#181818;stroke-width:0.5;" width="215.1934" x="16.9326" y="191.9375"/><text fill="#000000" font-family="sans-serif" font-size="12" lengthAdjust="spacing" textLength="195.1934" x="26.9326" y="213.0762">System updates parking records</text><rect fill="#F1F1F1" height="33.9688" rx="12.5" ry="12.5" style="stroke:#181818;stroke-width:0.5;" width="185.2695" x="31.8945" y="245.9063"/><text fill="#000000" font-family="sans-serif" font-size="12" lengthAdjust="spacing" textLength="165.2695" x="41.8945" y="267.0449">Customer parks the vehicle</text><rect fill="#F1F1F1" height="33.9688" rx="12.5" ry="12.5" style="stroke:#181818;stroke-width:0.5;" width="227.0586" x="11" y="299.875"/><text fill="#000000" font-family="sans-serif" font-size="12" lengthAdjust="spacing" textLength="207.0586" x="21" y="321.0137">System generates a parking ticket</text><rect fill="#F1F1F1" height="33.9688" rx="12.5" ry="12.5" style="stroke:#181818;stroke-width:0.5;" width="229.127" x="258.0586" y="137.9688"/><text fill="#000000" font-family="sans-serif" font-size="12" lengthAdjust="spacing" textLength="209.127" x="268.0586" y="159.1074">Notify customer that parking is full</text><polygon fill="#F1F1F1" points="248.5757,339.8438,260.5757,351.8438,248.5757,363.8438,236.5757,351.8438,248.5757,339.8438" style="stroke:#181818;stroke-width:0.5;"/><ellipse cx="248.5757" cy="394.8438" fill="none" rx="11" ry="11" style="stroke:#222222;stroke-width:1;"/><ellipse cx="248.5757" cy="394.8438" fill="#222222" rx="6" ry="6" style="stroke:#222222;stroke-width:1;"/><line style="stroke:#181818;stroke-width:1;" x1="248.5757" x2="248.5757" y1="30" y2="50"/><polygon fill="#181818" points="244.5757,40,248.5757,50,252.5757,40,248.5757,44" style="stroke:#181818;stroke-width:1;"/><line style="stroke:#181818;stroke-width:1;" x1="124.5293" x2="124.5293" y1="171.9375" y2="191.9375"/><polygon fill="#181818" points="120.5293,181.9375,124.5293,191.9375,128.5293,181.9375,124.5293,185.9375" style="stroke:#181818;stroke-width:1;"/><line style="stroke:#181818;stroke-width:1;" x1="124.5293" x2="124.5293" y1="225.9063" y2="245.9063"/><polygon fill="#181818" points="120.5293,235.9063,124.5293,245.9063,128.5293,235.9063,124.5293,239.9063" style="stroke:#181818;stroke-width:1;"/><line style="stroke:#181818;stroke-width:1;" x1="124.5293" x2="124.5293" y1="279.875" y2="299.875"/><polygon fill="#181818" points="120.5293,289.875,124.5293,299.875,128.5293,289.875,124.5293,293.875" style="stroke:#181818;stroke-width:1;"/><line style="stroke:#181818;stroke-width:1;" x1="160.5854" x2="124.5293" y1="115.9688" y2="115.9688"/><line style="stroke:#181818;stroke-width:1;" x1="124.5293" x2="124.5293" y1="115.9688" y2="137.9688"/><polygon fill="#181818" points="120.5293,127.9688,124.5293,137.9688,128.5293,127.9688,124.5293,131.9688" style="stroke:#181818;stroke-width:1;"/><line style="stroke:#181818;stroke-width:1;" x1="336.5659" x2="372.6221" y1="115.9688" y2="115.9688"/><line style="stroke:#181818;stroke-width:1;" x1="372.6221" x2="372.6221" y1="115.9688" y2="137.9688"/><polygon fill="#181818" points="368.6221,127.9688,372.6221,137.9688,376.6221,127.9688,372.6221,131.9688" style="stroke:#181818;stroke-width:1;"/><line style="stroke:#181818;stroke-width:1;" x1="124.5293" x2="124.5293" y1="333.8438" y2="351.8438"/><line style="stroke:#181818;stroke-width:1;" x1="124.5293" x2="236.5757" y1="351.8438" y2="351.8438"/><polygon fill="#181818" points="226.5757,347.8438,236.5757,351.8438,226.5757,355.8438,230.5757,351.8438" style="stroke:#181818;stroke-width:1;"/><line style="stroke:#181818;stroke-width:1;" x1="372.6221" x2="372.6221" y1="171.9375" y2="351.8438"/><line style="stroke:#181818;stroke-width:1;" x1="372.6221" x2="260.5757" y1="351.8438" y2="351.8438"/><polygon fill="#181818" points="270.5757,347.8438,260.5757,351.8438,270.5757,355.8438,266.5757,351.8438" style="stroke:#181818;stroke-width:1;"/><line style="stroke:#181818;stroke-width:1;" x1="248.5757" x2="248.5757" y1="83.9688" y2="103.9688"/><polygon fill="#181818" points="244.5757,93.9688,248.5757,103.9688,252.5757,93.9688,248.5757,97.9688" style="stroke:#181818;stroke-width:1;"/><line style="stroke:#181818;stroke-width:1;" x1="248.5757" x2="248.5757" y1="363.8438" y2="383.8438"/><polygon fill="#181818" points="244.5757,373.8438,248.5757,383.8438,252.5757,373.8438,248.5757,377.8438" style="stroke:#181818;stroke-width:1;"/><!--SRC=[LOyz3eCm38LtJk4Hha27gkhEqgcZ2mvOX0JP1edRDqIYqDNlUpzMGx6YVYvgSI815E6L5D301e8PPUJGfpFXhM07vKFEg_fe2LsHFNuytQlT4w1yarO5GFtQr6W2LEK-9F3FUBiGozoXfTP35sgZT9gHtxHTrBngfO5RJzU4dW99pZXRZDkHKWzv9IYRc3SrqTXjq1wfDgHN3mShkCNxP0aTko8XynS0]--></g></svg>