<?xml version="1.0" encoding="UTF-8" standalone="no"?>
<svg width="800" height="600" version="1.1" xmlns="http://www.w3.org/2000/svg">
    <!-- External Entities -->
    <rect x="20" y="100" width="120" height="50" fill="#2196F3" stroke="black"/>
    <text x="30" y="130" font-size="14" fill="white">Customer</text>
    
    <rect x="20" y="200" width="120" height="50" fill="#2196F3" stroke="black"/>
    <text x="30" y="230" font-size="14" fill="white">Store Owner</text>
    
    <rect x="20" y="300" width="160" height="50" fill="#2196F3" stroke="black"/>
    <text x="30" y="330" font-size="14" fill="white">Maintenance Company</text>
    
    <rect x="20" y="400" width="160" height="50" fill="#2196F3" stroke="black"/>
    <text x="30" y="430" font-size="14" fill="white">Security Company</text>
    
    <rect x="20" y="500" width="160" height="50" fill="#2196F3" stroke="black"/>
    <text x="30" y="530" font-size="14" fill="white">Payment Gateway</text>
    
    <!-- Processes -->
    <ellipse cx="400" cy="100" rx="90" ry="30" fill="#4CAF50" stroke="black"/>
    <text x="350" y="105" font-size="12" fill="white">Shop at Stores</text>

    <ellipse cx="400" cy="180" rx="90" ry="30" fill="#4CAF50" stroke="black"/>
    <text x="350" y="185" font-size="12" fill="white">Dine at Food Court</text>

    <ellipse cx="400" cy="260" rx="90" ry="30" fill="#4CAF50" stroke="black"/>
    <text x="355" y="265" font-size="12" fill="white">Watch Movies</text>

    <ellipse cx="400" cy="340" rx="90" ry="30" fill="#4CAF50" stroke="black"/>
    <text x="355" y="345" font-size="12" fill="white">Park Vehicle</text>

    <ellipse cx="400" cy="420" rx="90" ry="30" fill="#4CAF50" stroke="black"/>
    <text x="335" y="425" font-size="12" fill="white">Manage Store Operations</text>

    <ellipse cx="400" cy="500" rx="90" ry="30" fill="#4CAF50" stroke="black"/>
    <text x="340" y="505" font-size="12" fill="white">Generate Sales Reports</text>

    <!-- Data Stores -->
    <rect x="600" y="100" width="120" height="40" fill="#FF9800" stroke="black"/>
    <text x="620" y="125" font-size="12" fill="white">Customers</text>
    
    <rect x="600" y="160" width="120" height="40" fill="#FF9800" stroke="black"/>
    <text x="620" y="185" font-size="12" fill="white">Stores</text>
    
    <rect x="600" y="220" width="120" height="40" fill="#FF9800" stroke="black"/>
    <text x="620" y="245" font-size="12" fill="white">Sales</text>
    
    <rect x="600" y="280" width="120" height="40" fill="#FF9800" stroke="black"/>
    <text x="620" y="305" font-size="12" fill="white">FoodCourt</text>
    
    <rect x="600" y="340" width="120" height="40" fill="#FF9800" stroke="black"/>
    <text x="620" y="365" font-size="12" fill="white">Cinema</text>

    <!-- Data Flow Arrows -->
    <line x1="140" y1="125" x2="310" y2="100" stroke="black" stroke-width="2"/>
    <line x1="140" y1="225" x2="310" y2="180" stroke="black" stroke-width="2"/>
    <line x1="140" y1="325" x2="310" y2="260" stroke="black" stroke-width="2"/>
    <line x1="140" y1="425" x2="310" y2="340" stroke="black" stroke-width="2"/>
    
    <line x1="490" y1="100" x2="600" y2="120" stroke="black" stroke-width="2"/>
    <line x1="490" y1="180" x2="600" y2="180" stroke="black" stroke-width="2"/>
    <line x1="490" y1="260" x2="600" y2="240" stroke="black" stroke-width="2"/>
    <line x1="490" y1="340" x2="600" y2="320" stroke="black" stroke-width="2"/>
</svg>
