<svg xmlns="http://www.w3.org/2000/svg" xmlns:xlink="http://www.w3.org/1999/xlink" contentStyleType="text/css" data-diagram-type="DESCRIPTION" height="610px" preserveAspectRatio="none" style="width:634px;height:610px;background:#FFFFFF;" version="1.1" viewBox="0 0 634 610" width="634px" zoomAndPan="magnify"><defs/><g><!--entity Customer--><g class="entity" data-entity="Customer" data-source-line="3" data-uid="ent0002" id="entity_Customer"><ellipse cx="58.252" cy="416" fill="#F1F1F1" rx="8" ry="8" style="stroke:#181818;stroke-width:0.5;"/><path d="M58.252,424 L58.252,451 M45.252,432 L71.252,432 M58.252,451 L45.252,466 M58.252,451 L71.252,466 " fill="none" style="stroke:#181818;stroke-width:0.5;"/><text fill="#000000" font-family="sans-serif" font-size="14" lengthAdjust="spacing" textLength="68.0039" x="24.25" y="480.4951">Customer</text></g><!--entity BankEmployee--><g class="entity" data-entity="BankEmployee" data-source-line="4" data-uid="ent0003" id="entity_BankEmployee"><ellipse cx="58.2505" cy="236" fill="#F1F1F1" rx="8" ry="8" style="stroke:#181818;stroke-width:0.5;"/><path d="M58.2505,244 L58.2505,271 M45.2505,252 L71.2505,252 M58.2505,271 L45.2505,286 M58.2505,271 L71.2505,286 " fill="none" style="stroke:#181818;stroke-width:0.5;"/><text fill="#000000" font-family="sans-serif" font-size="14" lengthAdjust="spacing" textLength="104.501" x="6" y="300.4951">BankEmployee</text></g><!--entity Manager--><g class="entity" data-entity="Manager" data-source-line="5" data-uid="ent0004" id="entity_Manager"><ellipse cx="58.2531" cy="125" fill="#F1F1F1" rx="8" ry="8" style="stroke:#181818;stroke-width:0.5;"/><path d="M58.2531,133 L58.2531,160 M45.2531,141 L71.2531,141 M58.2531,160 L45.2531,175 M58.2531,160 L71.2531,175 " fill="none" style="stroke:#181818;stroke-width:0.5;"/><text fill="#000000" font-family="sans-serif" font-size="14" lengthAdjust="spacing" textLength="61.3662" x="27.57" y="189.4951">Manager</text></g><!--entity Auditor--><g class="entity" data-entity="Auditor" data-source-line="6" data-uid="ent0005" id="entity_Auditor"><ellipse cx="58.2486" cy="14" fill="#F1F1F1" rx="8" ry="8" style="stroke:#181818;stroke-width:0.5;"/><path d="M58.2486,22 L58.2486,49 M45.2486,30 L71.2486,30 M58.2486,49 L45.2486,64 M58.2486,49 L71.2486,64 " fill="none" style="stroke:#181818;stroke-width:0.5;"/><text fill="#000000" font-family="sans-serif" font-size="14" lengthAdjust="spacing" textLength="51.0371" x="32.73" y="78.4951">Auditor</text></g><g class="entity" data-entity="UC1" data-source-line="8" data-uid="ent0006" id="entity_UC1"><ellipse cx="256.6217" cy="235.6523" fill="#F1F1F1" rx="72.1617" ry="16.8323" style="stroke:#181818;stroke-width:0.5;"/><text fill="#000000" font-family="sans-serif" font-size="14" lengthAdjust="spacing" textLength="98.6152" x="204.3141" y="239.3999">Open Account</text></g><g class="entity" data-entity="UC2" data-source-line="9" data-uid="ent0007" id="entity_UC2"><ellipse cx="256.6184" cy="515.6537" fill="#F1F1F1" rx="74.3684" ry="17.2737" style="stroke:#181818;stroke-width:0.5;"/><text fill="#000000" font-family="sans-serif" font-size="14" lengthAdjust="spacing" textLength="104.3848" x="201.426" y="519.4012">Deposit Money</text></g><g class="entity" data-entity="UC3" data-source-line="10" data-uid="ent0008" id="entity_UC3"><ellipse cx="256.6229" cy="586.6466" fill="#F1F1F1" rx="79.6329" ry="18.3266" style="stroke:#181818;stroke-width:0.5;"/><text fill="#000000" font-family="sans-serif" font-size="14" lengthAdjust="spacing" textLength="117.6328" x="196.0006" y="590.0679">Withdraw Money</text></g><g class="entity" data-entity="UC4" data-source-line="11" data-uid="ent0009" id="entity_UC4"><ellipse cx="256.6218" cy="375.6544" fill="#F1F1F1" rx="74.5218" ry="17.3044" style="stroke:#181818;stroke-width:0.5;"/><text fill="#000000" font-family="sans-serif" font-size="14" lengthAdjust="spacing" textLength="104.7813" x="201.2312" y="379.4019">Transfer Funds</text></g><g class="entity" data-entity="UC5" data-source-line="12" data-uid="ent0010" id="entity_UC5"><ellipse cx="549.0739" cy="445.6488" fill="#F1F1F1" rx="72.4439" ry="16.8888" style="stroke:#181818;stroke-width:0.5;"/><text fill="#000000" font-family="sans-serif" font-size="14" lengthAdjust="spacing" textLength="99.3604" x="496.3937" y="449.3963">Close Account</text></g><g class="entity" data-entity="UC6" data-source-line="13" data-uid="ent0011" id="entity_UC6"><ellipse cx="256.6221" cy="166.6484" fill="#F1F1F1" rx="71.4921" ry="16.6984" style="stroke:#181818;stroke-width:0.5;"/><text fill="#000000" font-family="sans-serif" font-size="14" lengthAdjust="spacing" textLength="96.8379" x="205.2031" y="170.396">Approve Loan</text></g><g class="entity" data-entity="UC7" data-source-line="14" data-uid="ent0012" id="entity_UC7"><ellipse cx="256.6227" cy="43.6545" fill="#F1F1F1" rx="85.1227" ry="19.4245" style="stroke:#181818;stroke-width:0.5;"/><text fill="#000000" font-family="sans-serif" font-size="14" lengthAdjust="spacing" textLength="130.6074" x="191.319" y="46.5012">Audit Transactions</text></g><g class="entity" data-entity="UC8" data-source-line="15" data-uid="ent0013" id="entity_UC8"><ellipse cx="549.0661" cy="202.6532" fill="#F1F1F1" rx="72.3661" ry="16.8732" style="stroke:#181818;stroke-width:0.5;"/><text fill="#000000" font-family="sans-serif" font-size="14" lengthAdjust="spacing" textLength="99.1553" x="496.4885" y="206.4008">Verify Identity</text></g><g class="entity" data-entity="UC9" data-source-line="16" data-uid="ent0014" id="entity_UC9"><ellipse cx="549.072" cy="43.6544" fill="#F1F1F1" rx="79.322" ry="18.2644" style="stroke:#181818;stroke-width:0.5;"/><text fill="#000000" font-family="sans-serif" font-size="14" lengthAdjust="spacing" textLength="116.874" x="488.7091" y="47.1102">Generate Report</text></g><!--link Customer to UC1--><g class="link" data-entity-1="Customer" data-entity-2="UC1" data-source-line="18" data-uid="lnk15" id="link_Customer_UC1"><path d="M92.56,410.03 C135.46,364.16 204.1516,290.6922 235.9216,256.7222 " fill="none" id="Customer-to-UC1" style="stroke:#181818;stroke-width:1;"/><polygon fill="#181818" points="240.02,252.34,230.951,256.181,236.6047,255.9918,236.7939,261.6455,240.02,252.34" style="stroke:#181818;stroke-width:1;"/></g><!--link Customer to UC2--><g class="link" data-entity-1="Customer" data-entity-2="UC2" data-source-line="19" data-uid="lnk16" id="link_Customer_UC2"><path d="M92.56,457.53 C126.27,469.54 172.7785,486.125 208.9885,499.035 " fill="none" id="Customer-to-UC2" style="stroke:#181818;stroke-width:1;"/><polygon fill="#181818" points="214.64,501.05,207.506,494.2599,209.9304,499.3709,204.8194,501.7953,214.64,501.05" style="stroke:#181818;stroke-width:1;"/></g><!--link Customer to UC3--><g class="link" data-entity-1="Customer" data-entity-2="UC3" data-source-line="20" data-uid="lnk17" id="link_Customer_UC3"><path d="M92.71,482.89 C113.74,504.71 142.34,531.62 171.5,550.65 C183.87,558.73 192.8192,563.3879 206.2492,568.9679 " fill="none" id="Customer-to-UC3" style="stroke:#181818;stroke-width:1;"/><polygon fill="#181818" points="211.79,571.27,205.0136,564.123,207.1727,569.3516,201.9441,571.5107,211.79,571.27" style="stroke:#181818;stroke-width:1;"/></g><!--link Customer to UC4--><g class="link" data-entity-1="Customer" data-entity-2="UC4" data-source-line="21" data-uid="lnk18" id="link_Customer_UC4"><path d="M92.56,433.78 C126.27,421.76 172.7785,405.185 208.9885,392.275 " fill="none" id="Customer-to-UC4" style="stroke:#181818;stroke-width:1;"/><polygon fill="#181818" points="214.64,390.26,204.8194,389.5147,209.9304,391.9391,207.506,397.0501,214.64,390.26" style="stroke:#181818;stroke-width:1;"/></g><!--link Customer to UC5--><g class="link" data-entity-1="Customer" data-entity-2="UC5" data-source-line="22" data-uid="lnk19" id="link_Customer_UC5"><path d="M92.46,445.65 C170.9,445.65 363.05,445.65 470.36,445.65 " fill="none" id="Customer-to-UC5" style="stroke:#181818;stroke-width:1;"/><polygon fill="#181818" points="476.36,445.65,467.36,441.65,471.36,445.65,467.36,449.65,476.36,445.65" style="stroke:#181818;stroke-width:1;"/></g><!--link BankEmployee to UC1--><g class="link" data-entity-1="BankEmployee" data-entity-2="UC1" data-source-line="24" data-uid="lnk20" id="link_BankEmployee_UC1"><path d="M110.85,257.77 C136.75,253.81 162.3686,249.8944 189.3886,245.7744 " fill="none" id="BankEmployee-to-UC1" style="stroke:#181818;stroke-width:1;"/><polygon fill="#181818" points="195.32,244.87,185.8199,242.2723,190.3771,245.6237,187.0258,250.1809,195.32,244.87" style="stroke:#181818;stroke-width:1;"/></g><!--link BankEmployee to UC5--><g class="link" data-entity-1="BankEmployee" data-entity-2="UC5" data-source-line="25" data-uid="lnk21" id="link_BankEmployee_UC5"><path d="M110.79,275.9 C168.22,288.11 263.3,310.67 341.75,340.65 C408.76,366.27 477.4435,404.1933 516.0235,426.6333 " fill="none" id="BankEmployee-to-UC5" style="stroke:#181818;stroke-width:1;"/><polygon fill="#181818" points="521.21,429.65,515.4414,421.6673,516.8879,427.1361,511.4192,428.5826,521.21,429.65" style="stroke:#181818;stroke-width:1;"/></g><!--link BankEmployee to UC6--><g class="link" data-entity-1="BankEmployee" data-entity-2="UC6" data-source-line="26" data-uid="lnk22" id="link_BankEmployee_UC6"><path d="M110.78,234.49 C129.61,223.58 151.26,211.59 171.5,201.65 C186.55,194.27 197.9998,189.2549 212.7698,183.2649 " fill="none" id="BankEmployee-to-UC6" style="stroke:#181818;stroke-width:1;"/><polygon fill="#181818" points="218.33,181.01,208.4865,180.6856,213.6965,182.8891,211.4931,188.0992,218.33,181.01" style="stroke:#181818;stroke-width:1;"/></g><!--link Manager to UC6--><g class="link" data-entity-1="Manager" data-entity-2="UC6" data-source-line="28" data-uid="lnk23" id="link_Manager_UC6"><path d="M89.08,156.48 C115.04,158.06 147.6812,160.0537 181.2012,162.1037 " fill="none" id="Manager-to-UC6" style="stroke:#181818;stroke-width:1;"/><polygon fill="#181818" points="187.19,162.47,178.451,157.9281,182.1993,162.1648,177.9626,165.9131,187.19,162.47" style="stroke:#181818;stroke-width:1;"/></g><!--link Auditor to UC7--><g class="link" data-entity-1="Auditor" data-entity-2="UC7" data-source-line="29" data-uid="lnk24" id="link_Auditor_UC7"><path d="M84.12,43.65 C106.21,43.65 133.79,43.65 165.4,43.65 " fill="none" id="Auditor-to-UC7" style="stroke:#181818;stroke-width:1;"/><polygon fill="#181818" points="171.4,43.65,162.4,39.65,166.4,43.65,162.4,47.65,171.4,43.65" style="stroke:#181818;stroke-width:1;"/></g><!--link UC1 to UC8--><g class="link" data-entity-1="UC1" data-entity-2="UC8" data-source-line="31" data-uid="lnk25" id="link_UC1_UC8"><path d="M328.01,238.63 C361.94,239.02 403.13,237.94 439.75,232.65 C462.25,229.41 480.9633,224.6581 500.9333,218.5381 " fill="none" id="UC1-to-UC8" style="stroke:#181818;stroke-width:1;stroke-dasharray:7.0,7.0;"/><polygon fill="#181818" points="506.67,216.78,496.893,215.5926,501.8895,218.245,499.237,223.2415,506.67,216.78" style="stroke:#181818;stroke-width:1;"/><text fill="#000000" font-family="sans-serif" font-size="13" lengthAdjust="spacing" textLength="63.0068" x="374.25" y="228.7169">&#171;include&#187;</text></g><!--link UC6 to UC8--><g class="link" data-entity-1="UC6" data-entity-2="UC8" data-source-line="32" data-uid="lnk26" id="link_UC6_UC8"><path d="M320.65,174.46 C369.11,180.47 429.8355,188.0029 478.4655,194.0229 " fill="none" id="UC6-to-UC8" style="stroke:#181818;stroke-width:1;stroke-dasharray:7.0,7.0;"/><polygon fill="#181818" points="484.42,194.76,475.9796,189.6846,479.4579,194.1457,474.9968,197.624,484.42,194.76" style="stroke:#181818;stroke-width:1;"/><text fill="#000000" font-family="sans-serif" font-size="13" lengthAdjust="spacing" textLength="63.0068" x="374.25" y="176.7169">&#171;include&#187;</text></g><!--link UC7 to UC9--><g class="link" data-entity-1="UC7" data-entity-2="UC9" data-source-line="33" data-uid="lnk27" id="link_UC7_UC9"><path d="M342.02,43.65 C382.22,43.65 424.01,43.65 463.43,43.65 " fill="none" id="UC7-to-UC9" style="stroke:#181818;stroke-width:1;stroke-dasharray:7.0,7.0;"/><polygon fill="#181818" points="469.43,43.65,460.43,39.65,464.43,43.65,460.43,47.65,469.43,43.65" style="stroke:#181818;stroke-width:1;"/><text fill="#000000" font-family="sans-serif" font-size="13" lengthAdjust="spacing" textLength="63.0068" x="374.25" y="39.7169">&#171;include&#187;</text></g><!--link UC3 to UC5--><g class="link" data-entity-1="UC3" data-entity-2="UC5" data-source-line="34" data-uid="lnk28" id="link_UC3_UC5"><path d="M296.81,570.52 C311.05,564.49 327.21,557.45 341.75,550.65 C405.64,520.77 462.9902,490.9478 502.7502,469.8478 " fill="none" id="UC3-to-UC5" style="stroke:#181818;stroke-width:1;stroke-dasharray:7.0,7.0;"/><polygon fill="none" points="518.65,461.41,499.9376,464.5478,505.5628,475.1477,518.65,461.41" style="stroke:#181818;stroke-width:1;"/><text fill="#000000" font-family="sans-serif" font-size="13" lengthAdjust="spacing" textLength="66.8472" x="372.75" y="498.7169">&#171;exclude&#187;</text></g><!--SRC=[TP5RIyCm583VyoiEUz_0TMqt6OLQBmWEGNG-X-Hq2tP9ILAru8ytAscprVaKplSTScuLbXQi0YrsUmjSQ6HMA4a8PLPfA1fZrG6r3s-e_BWxr9Lg4JtQK4btGqBUSE5UGXg3Z1g4oNED4dB6L2Fj1AY1j-8gs5kibH4MDafYw_Kyw7TXzrpJhpCV1V-ggJGbQhXl93VUBu8lAkMUy-fnq7bTQ_M9yAIez3OviSTPe2j1kwNq1TAGiqKjoXOUEKehRD_XCYGye4HDBSABcrJtFQm8wJSBqsdMxMG4vcCGZS5Y3692JWyq_7m1nfTWGeY_vW3yFNsS4kB-Wzdi62pX6jPh8LdLSCmoPv9_JUhDwe-9dFdfEkeKVdlr2m00]--></g></svg>