<svg xmlns="http://www.w3.org/2000/svg" xmlns:xlink="http://www.w3.org/1999/xlink" contentStyleType="text/css" data-diagram-type="DESCRIPTION" height="540px" preserveAspectRatio="none" style="width:652px;height:540px;background:#FFFFFF;" version="1.1" viewBox="0 0 652 540" width="652px" zoomAndPan="magnify"><defs/><g><!--cluster Banking System App--><g class="cluster" data-entity="Banking System App" data-source-line="5" data-uid="ent0003" id="cluster_Banking System App"><rect fill="none" height="439" rx="2.5" ry="2.5" style="stroke:#181818;stroke-width:1;" width="488.89" x="157.5" y="55.99"/><text fill="#000000" font-family="sans-serif" font-size="14" font-weight="bold" lengthAdjust="spacing" textLength="163.126" x="320.382" y="70.9851">Banking System App</text></g><g class="entity" data-entity="UC1" data-source-line="6" data-uid="ent0004" id="entity_UC1"><ellipse cx="258.6217" cy="176.9923" fill="#F1F1F1" rx="72.1617" ry="16.8323" style="stroke:#181818;stroke-width:0.5;"/><text fill="#000000" font-family="sans-serif" font-size="14" lengthAdjust="spacing" textLength="98.6152" x="206.3141" y="180.7399">Open Account</text></g><g class="entity" data-entity="UC2" data-source-line="7" data-uid="ent0005" id="entity_UC2"><ellipse cx="258.6184" cy="319.9937" fill="#F1F1F1" rx="74.3684" ry="17.2737" style="stroke:#181818;stroke-width:0.5;"/><text fill="#000000" font-family="sans-serif" font-size="14" lengthAdjust="spacing" textLength="104.3848" x="203.426" y="323.7412">Deposit Money</text></g><g class="entity" data-entity="UC3" data-source-line="8" data-uid="ent0006" id="entity_UC3"><ellipse cx="258.6229" cy="390.9866" fill="#F1F1F1" rx="79.6329" ry="18.3266" style="stroke:#181818;stroke-width:0.5;"/><text fill="#000000" font-family="sans-serif" font-size="14" lengthAdjust="spacing" textLength="117.6328" x="198.0006" y="394.4079">Withdraw Money</text></g><g class="entity" data-entity="UC4" data-source-line="9" data-uid="ent0007" id="entity_UC4"><ellipse cx="258.6218" cy="461.9944" fill="#F1F1F1" rx="74.5218" ry="17.3044" style="stroke:#181818;stroke-width:0.5;"/><text fill="#000000" font-family="sans-serif" font-size="14" lengthAdjust="spacing" textLength="104.7813" x="203.2312" y="465.7419">Transfer Funds</text></g><g class="entity" data-entity="UC5" data-source-line="10" data-uid="ent0008" id="entity_UC5"><ellipse cx="551.0739" cy="390.9888" fill="#F1F1F1" rx="72.4439" ry="16.8888" style="stroke:#181818;stroke-width:0.5;"/><text fill="#000000" font-family="sans-serif" font-size="14" lengthAdjust="spacing" textLength="99.3604" x="498.3937" y="394.7363">Close Account</text></g><g class="entity" data-entity="UC6" data-source-line="11" data-uid="ent0009" id="entity_UC6"><ellipse cx="258.6221" cy="107.9884" fill="#F1F1F1" rx="71.4921" ry="16.6984" style="stroke:#181818;stroke-width:0.5;"/><text fill="#000000" font-family="sans-serif" font-size="14" lengthAdjust="spacing" textLength="96.8379" x="207.2031" y="111.736">Approve Loan</text></g><g class="entity" data-entity="UC7" data-source-line="12" data-uid="ent0010" id="entity_UC7"><ellipse cx="258.6227" cy="247.9945" fill="#F1F1F1" rx="85.1227" ry="19.4245" style="stroke:#181818;stroke-width:0.5;"/><text fill="#000000" font-family="sans-serif" font-size="14" lengthAdjust="spacing" textLength="130.6074" x="193.319" y="250.8412">Audit Transactions</text></g><g class="entity" data-entity="UC8" data-source-line="13" data-uid="ent0011" id="entity_UC8"><ellipse cx="551.0661" cy="139.9932" fill="#F1F1F1" rx="72.3661" ry="16.8732" style="stroke:#181818;stroke-width:0.5;"/><text fill="#000000" font-family="sans-serif" font-size="14" lengthAdjust="spacing" textLength="99.1553" x="498.4885" y="143.7408">Verify Identity</text></g><g class="entity" data-entity="UC9" data-source-line="14" data-uid="ent0012" id="entity_UC9"><ellipse cx="551.072" cy="247.9944" fill="#F1F1F1" rx="79.322" ry="18.2644" style="stroke:#181818;stroke-width:0.5;"/><text fill="#000000" font-family="sans-serif" font-size="14" lengthAdjust="spacing" textLength="116.874" x="490.7091" y="251.4502">Generate Report</text></g><!--entity Customer--><g class="entity" data-entity="Customer" data-source-line="3" data-uid="ent0002" id="entity_Customer"><ellipse cx="58.252" cy="362.34" fill="#F1F1F1" rx="8" ry="8" style="stroke:#181818;stroke-width:0.5;"/><path d="M58.252,370.34 L58.252,397.34 M45.252,378.34 L71.252,378.34 M58.252,397.34 L45.252,412.34 M58.252,397.34 L71.252,412.34 " fill="none" style="stroke:#181818;stroke-width:0.5;"/><text fill="#000000" font-family="sans-serif" font-size="14" lengthAdjust="spacing" textLength="68.0039" x="24.25" y="426.8351">Customer</text></g><!--entity BankEmployee--><g class="entity" data-entity="BankEmployee" data-source-line="17" data-uid="ent0013" id="entity_BankEmployee"><ellipse cx="58.2505" cy="19.34" fill="#F1F1F1" rx="8" ry="8" style="stroke:#181818;stroke-width:0.5;"/><path d="M58.2505,27.34 L58.2505,54.34 M45.2505,35.34 L71.2505,35.34 M58.2505,54.34 L45.2505,69.34 M58.2505,54.34 L71.2505,69.34 " fill="none" style="stroke:#181818;stroke-width:0.5;"/><text fill="#000000" font-family="sans-serif" font-size="14" lengthAdjust="spacing" textLength="104.501" x="6" y="83.8351">BankEmployee</text></g><!--entity Manager--><g class="entity" data-entity="Manager" data-source-line="18" data-uid="ent0014" id="entity_Manager"><ellipse cx="58.2531" cy="130.34" fill="#F1F1F1" rx="8" ry="8" style="stroke:#181818;stroke-width:0.5;"/><path d="M58.2531,138.34 L58.2531,165.34 M45.2531,146.34 L71.2531,146.34 M58.2531,165.34 L45.2531,180.34 M58.2531,165.34 L71.2531,180.34 " fill="none" style="stroke:#181818;stroke-width:0.5;"/><text fill="#000000" font-family="sans-serif" font-size="14" lengthAdjust="spacing" textLength="61.3662" x="27.57" y="194.8351">Manager</text></g><!--entity Auditor--><g class="entity" data-entity="Auditor" data-source-line="19" data-uid="ent0015" id="entity_Auditor"><ellipse cx="58.2486" cy="241.34" fill="#F1F1F1" rx="8" ry="8" style="stroke:#181818;stroke-width:0.5;"/><path d="M58.2486,249.34 L58.2486,276.34 M45.2486,257.34 L71.2486,257.34 M58.2486,276.34 L45.2486,291.34 M58.2486,276.34 L71.2486,291.34 " fill="none" style="stroke:#181818;stroke-width:0.5;"/><text fill="#000000" font-family="sans-serif" font-size="14" lengthAdjust="spacing" textLength="51.0371" x="32.73" y="305.8351">Auditor</text></g><!--link Customer to UC1--><g class="link" data-entity-1="Customer" data-entity-2="UC1" data-source-line="21" data-uid="lnk16" id="link_Customer_UC1"><path d="M92.72,353.97 C99.2,345.47 105.51,336.22 110.5,326.99 C136.39,279.15 110.66,249.07 149.5,210.99 C162.15,198.59 173.5077,192.4163 190.3977,187.4063 " fill="none" id="Customer-to-UC1" style="stroke:#181818;stroke-width:1;"/><polygon fill="#181818" points="196.15,185.7,186.3841,184.4246,191.3564,187.1219,188.6591,192.0943,196.15,185.7" style="stroke:#181818;stroke-width:1;"/></g><!--link Customer to UC2--><g class="link" data-entity-1="Customer" data-entity-2="UC2" data-source-line="22" data-uid="lnk17" id="link_Customer_UC2"><path d="M92.44,377.67 C109.4,370.54 130.42,361.98 149.5,354.99 C169.88,347.53 186.9894,341.8196 206.3994,335.6796 " fill="none" id="Customer-to-UC2" style="stroke:#181818;stroke-width:1;"/><polygon fill="#181818" points="212.12,333.87,202.3327,332.7707,207.3528,335.378,204.7455,340.3981,212.12,333.87" style="stroke:#181818;stroke-width:1;"/></g><!--link Customer to UC3--><g class="link" data-entity-1="Customer" data-entity-2="UC3" data-source-line="23" data-uid="lnk18" id="link_Customer_UC3"><path d="M92.45,391.82 C116.06,391.7 142.7801,391.5699 172.8901,391.4199 " fill="none" id="Customer-to-UC3" style="stroke:#181818;stroke-width:1;"/><polygon fill="#181818" points="178.89,391.39,169.8702,387.4349,173.8901,391.4149,169.91,395.4348,178.89,391.39" style="stroke:#181818;stroke-width:1;"/></g><!--link Customer to UC4--><g class="link" data-entity-1="Customer" data-entity-2="UC4" data-source-line="24" data-uid="lnk19" id="link_Customer_UC4"><path d="M92.51,405.41 C109.48,412.12 130.5,420.24 149.5,426.99 C170.04,434.29 187.2826,439.9904 206.7326,446.1804 " fill="none" id="Customer-to-UC4" style="stroke:#181818;stroke-width:1;"/><polygon fill="#181818" points="212.45,448,205.0869,441.459,207.6855,446.4837,202.6608,449.0822,212.45,448" style="stroke:#181818;stroke-width:1;"/></g><!--link Customer to UC5--><g class="link" data-entity-1="Customer" data-entity-2="UC5" data-source-line="25" data-uid="lnk20" id="link_Customer_UC5"><path d="M80.57,430.58 C96.18,454.57 119.79,483.35 149.5,496.99 C227.96,533.01 259.83,517.28 343.75,496.99 C415.77,479.57 485.8969,435.8309 522.4369,410.6909 " fill="none" id="Customer-to-UC5" style="stroke:#181818;stroke-width:1;"/><polygon fill="#181818" points="527.38,407.29,517.6981,409.096,523.2608,410.1241,522.2327,415.6867,527.38,407.29" style="stroke:#181818;stroke-width:1;"/></g><!--link BankEmployee to UC1--><g class="link" data-entity-1="BankEmployee" data-entity-2="UC1" data-source-line="27" data-uid="lnk21" id="link_BankEmployee_UC1"><path d="M94.9,87.44 C117.2,111.18 142.91,137.89 149.5,141.99 C166.25,152.41 180.6547,158.3441 199.0147,163.7541 " fill="none" id="BankEmployee-to-UC1" style="stroke:#181818;stroke-width:1;"/><polygon fill="#181818" points="204.77,165.45,197.2676,159.0693,199.9739,164.0368,195.0064,166.7431,204.77,165.45" style="stroke:#181818;stroke-width:1;"/></g><!--link BankEmployee to UC5--><g class="link" data-entity-1="BankEmployee" data-entity-2="UC5" data-source-line="28" data-uid="lnk22" id="link_BankEmployee_UC5"><path d="M110.72,37.29 C193.88,21.78 357.04,6 441.75,96.99 C499.1,158.6 439.32,206.31 471.75,283.99 C486.65,319.68 511.6549,350.197 529.8849,369.987 " fill="none" id="BankEmployee-to-UC5" style="stroke:#181818;stroke-width:1;"/><polygon fill="#181818" points="533.95,374.4,530.7943,365.0704,530.5624,370.7225,524.9103,370.4906,533.95,374.4" style="stroke:#181818;stroke-width:1;"/></g><!--link BankEmployee to UC6--><g class="link" data-entity-1="BankEmployee" data-entity-2="UC6" data-source-line="29" data-uid="lnk23" id="link_BankEmployee_UC6"><path d="M110.85,64.34 C142.54,73.76 176.9587,84.0004 207.2687,93.0104 " fill="none" id="BankEmployee-to-UC6" style="stroke:#181818;stroke-width:1;"/><polygon fill="#181818" points="213.02,94.72,205.5328,88.3214,208.2273,93.2953,203.2533,95.9897,213.02,94.72" style="stroke:#181818;stroke-width:1;"/></g><!--link Manager to UC6--><g class="link" data-entity-1="Manager" data-entity-2="UC6" data-source-line="31" data-uid="lnk24" id="link_Manager_UC6"><path d="M89.38,152.09 C121.35,143.71 166.5364,131.8725 204.0064,122.0425 " fill="none" id="Manager-to-UC6" style="stroke:#181818;stroke-width:1;"/><polygon fill="#181818" points="209.81,120.52,200.0896,118.9347,204.9737,121.7888,202.1196,126.6729,209.81,120.52" style="stroke:#181818;stroke-width:1;"/></g><!--link Auditor to UC7--><g class="link" data-entity-1="Auditor" data-entity-2="UC7" data-source-line="32" data-uid="lnk25" id="link_Auditor_UC7"><path d="M83.97,268.12 C108.48,265.28 141.3298,261.4701 176.0498,257.4501 " fill="none" id="Auditor-to-UC7" style="stroke:#181818;stroke-width:1;"/><polygon fill="#181818" points="182.01,256.76,172.6097,253.8217,177.0432,257.3351,173.5298,261.7686,182.01,256.76" style="stroke:#181818;stroke-width:1;"/></g><!--link UC1 to UC8--><g class="link" data-entity-1="UC1" data-entity-2="UC8" data-source-line="34" data-uid="lnk26" id="link_UC1_UC8"><path d="M322.65,168.96 C371.2,162.78 432.068,155.0173 480.718,148.8273 " fill="none" id="UC1-to-UC8" style="stroke:#181818;stroke-width:1;stroke-dasharray:7.0,7.0;"/><polygon fill="#181818" points="486.67,148.07,477.2371,145.2379,481.71,148.7011,478.2468,153.174,486.67,148.07" style="stroke:#181818;stroke-width:1;"/><text fill="#000000" font-family="sans-serif" font-size="13" lengthAdjust="spacing" textLength="63.0068" x="376.25" y="151.0569">&#171;include&#187;</text></g><!--link UC6 to UC8--><g class="link" data-entity-1="UC6" data-entity-2="UC8" data-source-line="35" data-uid="lnk27" id="link_UC6_UC8"><path d="M324.08,115.09 C371.88,120.36 430.8261,126.8527 478.8261,132.1427 " fill="none" id="UC6-to-UC8" style="stroke:#181818;stroke-width:1;stroke-dasharray:7.0,7.0;"/><polygon fill="#181818" points="484.79,132.8,476.2823,127.8382,479.8201,132.2523,475.406,135.79,484.79,132.8" style="stroke:#181818;stroke-width:1;"/><text fill="#000000" font-family="sans-serif" font-size="13" lengthAdjust="spacing" textLength="63.0068" x="376.25" y="118.0569">&#171;include&#187;</text></g><!--link UC7 to UC9--><g class="link" data-entity-1="UC7" data-entity-2="UC9" data-source-line="36" data-uid="lnk28" id="link_UC7_UC9"><path d="M344.02,247.99 C384.22,247.99 426.01,247.99 465.43,247.99 " fill="none" id="UC7-to-UC9" style="stroke:#181818;stroke-width:1;stroke-dasharray:7.0,7.0;"/><polygon fill="#181818" points="471.43,247.99,462.43,243.99,466.43,247.99,462.43,251.99,471.43,247.99" style="stroke:#181818;stroke-width:1;"/><text fill="#000000" font-family="sans-serif" font-size="13" lengthAdjust="spacing" textLength="63.0068" x="376.25" y="244.0569">&#171;include&#187;</text></g><!--link UC3 to UC5--><g class="link" data-entity-1="UC3" data-entity-2="UC5" data-source-line="37" data-uid="lnk29" id="link_UC3_UC5"><path d="M338.61,390.99 C382.28,390.99 418.13,390.99 460.56,390.99 " fill="none" id="UC3-to-UC5" style="stroke:#181818;stroke-width:1;stroke-dasharray:7.0,7.0;"/><polygon fill="none" points="478.56,390.99,460.56,384.99,460.56,396.99,478.56,390.99" style="stroke:#181818;stroke-width:1;"/><text fill="#000000" font-family="sans-serif" font-size="13" lengthAdjust="spacing" textLength="66.8472" x="374.75" y="387.0569">&#171;exclude&#187;</text></g><!--SRC=[TP5RJyCm38NVyokilMyIwzPkQ9eqnaL8J4XSdwFMwo9QfqfSe0B-Erb99r96NYAVyoa-iGlSCh06e_8TGwOCfgmq2I5JrWRMjMLTeX5YRqZA2uJ1cQGNHJdSDvQnX5LL3U13W3krnLHQXznMIB1AKrqJ3q1QU5oVXCGvLjegXeqcR3mo3f5dnRlCoBU0YKBcmKYoMpHmMLDcFJC9cNMXtHMccOQ8-uFHhmWtMf8duXvHPovjsqws8-gQ9I7tX4Pj6xZEa5XnbteMGbT8Q2GZtBafc2xJN7nrSz-F-AAi2jqWUcaZIUPk4pzL6qUxlNGRWk5msKwv9upxGjGN9drXAiJl_eUNZuZJOs8iX0zx47nSNoT2kFTWDDeNCpY5nK9HMjGPBfVEYVzr4k_C_pYHSpxRHAs5xzxw1W00]--></g></svg>