<svg xmlns="http://www.w3.org/2000/svg" xmlns:xlink="http://www.w3.org/1999/xlink" contentStyleType="text/css" data-diagram-type="DESCRIPTION" height="1566px" preserveAspectRatio="none" style="width:413px;height:1566px;background:#FFFFFF;" version="1.1" viewBox="0 0 413 1566" width="413px" zoomAndPan="magnify"><defs/><g><!--cluster Hospital Management System--><g id="cluster_Hospital Management System"><rect fill="transparent" height="1553" rx="2.5" ry="2.5" style="stroke:#181818;stroke-width:1;" width="252" x="155" y="7"/><text fill="#000000" font-family="sans-serif" font-size="14" font-weight="bold" lengthAdjust="spacing" textLength="236.5439" x="162.728" y="21.9951">Hospital Management System</text></g><g id="elem_UC1"><ellipse cx="280.8918" cy="282.8784" fill="#F1F1F1" rx="77.3918" ry="17.8784" style="stroke:#181818;stroke-width:0.5;"/><text fill="#000000" font-family="sans-serif" font-size="14" lengthAdjust="spacing" textLength="112.0957" x="222.1396" y="286.5488">Register Patient</text></g><g id="elem_UC2"><ellipse cx="280.8914" cy="355.8783" fill="#F1F1F1" rx="84.8914" ry="19.3783" style="stroke:#181818;stroke-width:0.5;"/><text fill="#000000" font-family="sans-serif" font-size="14" lengthAdjust="spacing" textLength="130.0742" x="215.8543" y="358.725">Book Appointment</text></g><g id="elem_UC3"><ellipse cx="280.9059" cy="208.9812" fill="#F1F1F1" rx="90.4059" ry="20.4812" style="stroke:#181818;stroke-width:0.5;"/><text fill="#000000" font-family="sans-serif" font-size="14" lengthAdjust="spacing" textLength="142.6592" x="209.5763" y="211.8279">Cancel Appointment</text></g><g id="elem_UC4"><ellipse cx="280.8303" cy="131.7661" fill="#F1F1F1" rx="91.8303" ry="20.7661" style="stroke:#181818;stroke-width:0.5;"/><text fill="#000000" font-family="sans-serif" font-size="14" lengthAdjust="spacing" textLength="145.8721" x="207.8943" y="134.6127">View Medical History</text></g><g id="elem_UC5"><ellipse cx="281.1229" cy="59.2246" fill="#F1F1F1" rx="74.1229" ry="17.2246" style="stroke:#181818;stroke-width:0.5;"/><text fill="#000000" font-family="sans-serif" font-size="14" lengthAdjust="spacing" textLength="103.749" x="226.2484" y="62.9721">Make Payment</text></g><g id="elem_UC6"><ellipse cx="280.9316" cy="571.9863" fill="#F1F1F1" rx="92.9316" ry="20.9863" style="stroke:#181818;stroke-width:0.5;"/><text fill="#000000" font-family="sans-serif" font-size="14" lengthAdjust="spacing" textLength="148.3467" x="206.7582" y="574.833">View Patient Records</text></g><g id="elem_UC7"><ellipse cx="280.8235" cy="646.9647" fill="#F1F1F1" rx="80.3235" ry="18.4647" style="stroke:#181818;stroke-width:0.5;"/><text fill="#000000" font-family="sans-serif" font-size="14" lengthAdjust="spacing" textLength="119.3076" x="219.625" y="650.3092">Diagnose Patient</text></g><g id="elem_UC8"><ellipse cx="281.2021" cy="936.0404" fill="#F1F1F1" rx="85.7021" ry="19.5404" style="stroke:#181818;stroke-width:0.5;"/><text fill="#000000" font-family="sans-serif" font-size="14" lengthAdjust="spacing" textLength="131.9404" x="215.2319" y="938.8871">Prescribe Medicine</text></g><g id="elem_UC9"><ellipse cx="280.8853" cy="719.7771" fill="#F1F1F1" rx="84.3853" ry="19.2771" style="stroke:#181818;stroke-width:0.5;"/><text fill="#000000" font-family="sans-serif" font-size="14" lengthAdjust="spacing" textLength="128.9053" x="216.2982" y="722.6702">Request Lab Tests</text></g><g id="elem_UC10"><ellipse cx="281.1454" cy="792.9291" fill="#F1F1F1" rx="80.1454" ry="18.4291" style="stroke:#181818;stroke-width:0.5;"/><text fill="#000000" font-family="sans-serif" font-size="14" lengthAdjust="spacing" textLength="118.877" x="220.0955" y="796.2934">View Lab Results</text></g><g id="elem_UC11"><ellipse cx="281.0973" cy="499.2195" fill="#F1F1F1" rx="71.5973" ry="16.7195" style="stroke:#181818;stroke-width:0.5;"/><text fill="#000000" font-family="sans-serif" font-size="14" lengthAdjust="spacing" textLength="97.1182" x="229.5382" y="502.967">Assign Doctor</text></g><g id="elem_UC12"><ellipse cx="281.0645" cy="429.0129" fill="#F1F1F1" rx="80.5645" ry="18.5129" style="stroke:#181818;stroke-width:0.5;"/><text fill="#000000" font-family="sans-serif" font-size="14" lengthAdjust="spacing" textLength="119.8887" x="219.6649" y="432.3307">Generate Invoice</text></g><g id="elem_UC13"><ellipse cx="280.9076" cy="863.8815" fill="#F1F1F1" rx="72.4076" ry="16.8815" style="stroke:#181818;stroke-width:0.5;"/><text fill="#000000" font-family="sans-serif" font-size="14" lengthAdjust="spacing" textLength="99.2646" x="228.2753" y="867.6291">Manage Users</text></g><g id="elem_UC14"><ellipse cx="280.8211" cy="1012.8642" fill="#F1F1F1" rx="97.3211" ry="21.8642" style="stroke:#181818;stroke-width:0.5;"/><text fill="#000000" font-family="sans-serif" font-size="14" lengthAdjust="spacing" textLength="158.1357" x="201.7532" y="1015.7109">Manage Appointments</text></g><g id="elem_UC15"><ellipse cx="280.8279" cy="1087.1656" fill="#F1F1F1" rx="73.8279" ry="17.1656" style="stroke:#181818;stroke-width:0.5;"/><text fill="#000000" font-family="sans-serif" font-size="14" lengthAdjust="spacing" textLength="102.9834" x="226.3363" y="1090.9131">Manage Billing</text></g><g id="elem_UC16"><ellipse cx="281.0116" cy="1157.2023" fill="#F1F1F1" rx="76.5116" ry="17.7023" style="stroke:#181818;stroke-width:0.5;"/><text fill="#000000" font-family="sans-serif" font-size="14" lengthAdjust="spacing" textLength="109.874" x="223.0746" y="1160.9499">Monitor System</text></g><g id="elem_UC17"><ellipse cx="280.8959" cy="1300.9792" fill="#F1F1F1" rx="85.3959" ry="19.4792" style="stroke:#181818;stroke-width:0.5;"/><text fill="#000000" font-family="sans-serif" font-size="14" lengthAdjust="spacing" textLength="131.2363" x="215.2778" y="1303.8259">Dispense Medicine</text></g><g id="elem_UC18"><ellipse cx="280.9545" cy="1228.1909" fill="#F1F1F1" rx="81.4545" ry="18.6909" style="stroke:#181818;stroke-width:0.5;"/><text fill="#000000" font-family="sans-serif" font-size="14" lengthAdjust="spacing" textLength="122.0215" x="218.8124" y="1231.4098">Update Inventory</text></g><g id="elem_UC19"><ellipse cx="281.1308" cy="1372.9262" fill="#F1F1F1" rx="72.6308" ry="16.9262" style="stroke:#181818;stroke-width:0.5;"/><text fill="#000000" font-family="sans-serif" font-size="14" lengthAdjust="spacing" textLength="99.8525" x="228.2045" y="1376.6737">Conduct Tests</text></g><g id="elem_UC20"><ellipse cx="280.8591" cy="1443.8718" fill="#F1F1F1" rx="82.3591" ry="18.8718" style="stroke:#181818;stroke-width:0.5;"/><text fill="#000000" font-family="sans-serif" font-size="14" lengthAdjust="spacing" textLength="124.168" x="217.9623" y="1446.9901">Generate Reports</text></g><g id="elem_UC21"><ellipse cx="281.2268" cy="1521.0454" fill="#F1F1F1" rx="103.2268" ry="23.0454" style="stroke:#181818;stroke-width:0.5;"/><text fill="#000000" font-family="sans-serif" font-size="14" lengthAdjust="spacing" textLength="171.1445" x="195.6545" y="1523.892">Send Reports to Doctors</text></g><!--entity Patient--><g id="elem_Patient"><ellipse cx="58.688" cy="179.5" fill="#F1F1F1" rx="8" ry="8" style="stroke:#181818;stroke-width:0.5;"/><path d="M58.688,187.5 L58.688,214.5 M45.688,195.5 L71.688,195.5 M58.688,214.5 L45.688,229.5 M58.688,214.5 L71.688,229.5 " fill="transparent" style="stroke:#181818;stroke-width:0.5;"/><text fill="#000000" font-family="sans-serif" font-size="14" lengthAdjust="spacing" textLength="49.376" x="34" y="243.9951">Patient</text></g><!--entity Doctor--><g id="elem_Doctor"><ellipse cx="58.4268" cy="690.5" fill="#F1F1F1" rx="8" ry="8" style="stroke:#181818;stroke-width:0.5;"/><path d="M58.4268,698.5 L58.4268,725.5 M45.4268,706.5 L71.4268,706.5 M58.4268,725.5 L45.4268,740.5 M58.4268,725.5 L71.4268,740.5 " fill="transparent" style="stroke:#181818;stroke-width:0.5;"/><text fill="#000000" font-family="sans-serif" font-size="14" lengthAdjust="spacing" textLength="46.8535" x="35" y="754.9951">Doctor</text></g><!--entity Receptionist--><g id="elem_Receptionist"><ellipse cx="58.5142" cy="326.5" fill="#F1F1F1" rx="8" ry="8" style="stroke:#181818;stroke-width:0.5;"/><path d="M58.5142,334.5 L58.5142,361.5 M45.5142,342.5 L71.5142,342.5 M58.5142,361.5 L45.5142,376.5 M58.5142,361.5 L71.5142,376.5 " fill="transparent" style="stroke:#181818;stroke-width:0.5;"/><text fill="#000000" font-family="sans-serif" font-size="14" lengthAdjust="spacing" textLength="87.0283" x="15" y="390.9951">Receptionist</text></g><!--entity Admin--><g id="elem_Admin"><ellipse cx="58.4321" cy="1020.5" fill="#F1F1F1" rx="8" ry="8" style="stroke:#181818;stroke-width:0.5;"/><path d="M58.4321,1028.5 L58.4321,1055.5 M45.4321,1036.5 L71.4321,1036.5 M58.4321,1055.5 L45.4321,1070.5 M58.4321,1055.5 L71.4321,1070.5 " fill="transparent" style="stroke:#181818;stroke-width:0.5;"/><text fill="#000000" font-family="sans-serif" font-size="14" lengthAdjust="spacing" textLength="44.8643" x="36" y="1084.9951">Admin</text></g><!--entity Pharmacist--><g id="elem_Pharmacist"><ellipse cx="58.6187" cy="1198.5" fill="#F1F1F1" rx="8" ry="8" style="stroke:#181818;stroke-width:0.5;"/><path d="M58.6187,1206.5 L58.6187,1233.5 M45.6187,1214.5 L71.6187,1214.5 M58.6187,1233.5 L45.6187,1248.5 M58.6187,1233.5 L71.6187,1248.5 " fill="transparent" style="stroke:#181818;stroke-width:0.5;"/><text fill="#000000" font-family="sans-serif" font-size="14" lengthAdjust="spacing" textLength="78.2373" x="19.5" y="1262.9951">Pharmacist</text></g><!--entity LabTech--><g id="elem_LabTech"><ellipse cx="58.6265" cy="1414.5" fill="#F1F1F1" rx="8" ry="8" style="stroke:#181818;stroke-width:0.5;"/><path d="M58.6265,1422.5 L58.6265,1449.5 M45.6265,1430.5 L71.6265,1430.5 M58.6265,1449.5 L45.6265,1464.5 M58.6265,1449.5 L71.6265,1464.5 " fill="transparent" style="stroke:#181818;stroke-width:0.5;"/><text fill="#000000" font-family="sans-serif" font-size="14" lengthAdjust="spacing" textLength="105.2529" x="6" y="1478.9951">Lab Technician</text></g><!--link Patient to UC1--><g id="link_Patient_UC1"><path d="M83.27,220.44 C100.66,228.53 124.96,239.28 147,247 C172.62,255.98 195.8565,262.5857 220.2565,268.8157 " fill="transparent" id="Patient-to-UC1" style="stroke:#181818;stroke-width:1;"/><polygon fill="#181818" points="226.07,270.3,218.3393,264.1978,221.2254,269.063,216.3602,271.9491,226.07,270.3" style="stroke:#181818;stroke-width:1;"/></g><!--link Patient to UC2--><g id="link_Patient_UC2"><path d="M81.55,247.15 C97.04,270.77 119.81,299.94 147,318 C166,330.62 183.4159,337.5894 205.0959,343.2694 " fill="transparent" id="Patient-to-UC2" style="stroke:#181818;stroke-width:1;"/><polygon fill="#181818" points="210.9,344.79,203.2076,338.6396,206.0632,343.5228,201.1801,346.3785,210.9,344.79" style="stroke:#181818;stroke-width:1;"/></g><!--link Patient to UC3--><g id="link_Patient_UC3"><path d="M83.1,209 C108.76,209 145.35,209 184.36,209 " fill="transparent" id="Patient-to-UC3" style="stroke:#181818;stroke-width:1;"/><polygon fill="#181818" points="190.36,209,181.36,205,185.36,209,181.36,213,190.36,209" style="stroke:#181818;stroke-width:1;"/></g><!--link Patient to UC4--><g id="link_Patient_UC4"><path d="M83.32,197.7 C100.73,189.67 125.04,178.95 147,171 C170.64,162.44 191.3684,156.0097 214.4584,149.4497 " fill="transparent" id="Patient-to-UC4" style="stroke:#181818;stroke-width:1;"/><polygon fill="#181818" points="220.23,147.81,210.4795,146.4219,215.4203,149.1765,212.6658,154.1173,220.23,147.81" style="stroke:#181818;stroke-width:1;"/></g><!--link Patient to UC5--><g id="link_Patient_UC5"><path d="M79.17,170.91 C94.36,145.2 117.71,112.5 147,93 C167.04,79.66 186.0944,72.813 208.9444,67.893 " fill="transparent" id="Patient-to-UC5" style="stroke:#181818;stroke-width:1;"/><polygon fill="#181818" points="214.81,66.63,205.1697,64.6141,209.922,67.6825,206.8536,72.4348,214.81,66.63" style="stroke:#181818;stroke-width:1;"/></g><!--link Doctor to UC6--><g id="link_Doctor_UC6"><path d="M81.59,681.92 C97.1,658.32 119.88,629.15 147,611 C164.9,599.02 180.7666,592.2835 201.3366,586.4635 " fill="transparent" id="Doctor-to-UC6" style="stroke:#181818;stroke-width:1;"/><polygon fill="#181818" points="207.11,584.83,197.361,583.4313,202.2989,586.1912,199.539,591.1291,207.11,584.83" style="stroke:#181818;stroke-width:1;"/></g><!--link Doctor to UC7--><g id="link_Doctor_UC7"><path d="M82.2,709.4 C99.67,701.48 124.55,690.75 147,683 C172.1,674.34 194.6294,667.9155 218.6794,661.7255 " fill="transparent" id="Doctor-to-UC7" style="stroke:#181818;stroke-width:1;"/><polygon fill="#181818" points="224.49,660.23,214.777,658.5996,219.6478,661.4763,216.7711,666.3471,224.49,660.23" style="stroke:#181818;stroke-width:1;"/></g><!--link Doctor to UC8--><g id="link_Doctor_UC8"><path d="M68.39,758.04 C79.8,798.54 103.53,861.68 147,898 C163.77,912.01 179.6221,919.3257 200.5721,924.9057 " fill="transparent" id="Doctor-to-UC8" style="stroke:#181818;stroke-width:1;"/><polygon fill="#181818" points="206.37,926.45,198.7027,920.2684,201.5384,925.1631,196.6437,927.9989,206.37,926.45" style="stroke:#181818;stroke-width:1;"/></g><!--link Doctor to UC9--><g id="link_Doctor_UC9"><path d="M82.27,720 C109.12,720 149.28,720 190.26,720 " fill="transparent" id="Doctor-to-UC9" style="stroke:#181818;stroke-width:1;"/><polygon fill="#181818" points="196.26,720,187.26,716,191.26,720,187.26,724,196.26,720" style="stroke:#181818;stroke-width:1;"/></g><!--link Doctor to UC10--><g id="link_Doctor_UC10"><path d="M82.2,730.6 C99.67,738.52 124.55,749.25 147,757 C172.1,765.66 194.6294,772.0845 218.6794,778.2745 " fill="transparent" id="Doctor-to-UC10" style="stroke:#181818;stroke-width:1;"/><polygon fill="#181818" points="224.49,779.77,216.7711,773.6529,219.6478,778.5237,214.777,781.4004,224.49,779.77" style="stroke:#181818;stroke-width:1;"/></g><!--link Receptionist to UC1--><g id="link_Receptionist_UC1"><path d="M102.22,336.57 C116.32,330.52 132.19,324.11 147,319 C172.67,310.15 195.9084,303.5616 220.2984,297.3016 " fill="transparent" id="Receptionist-to-UC1" style="stroke:#181818;stroke-width:1;"/><polygon fill="#181818" points="226.11,295.81,216.3981,294.173,221.267,297.053,218.387,301.9219,226.11,295.81" style="stroke:#181818;stroke-width:1;"/></g><!--link Receptionist to UC2--><g id="link_Receptionist_UC2"><path d="M102.01,356 C128.55,356 157.62,356 189.62,356 " fill="transparent" id="Receptionist-to-UC2" style="stroke:#181818;stroke-width:1;"/><polygon fill="#181818" points="195.62,356,186.62,352,190.62,356,186.62,360,195.62,356" style="stroke:#181818;stroke-width:1;"/></g><!--link Receptionist to UC3--><g id="link_Receptionist_UC3"><path d="M81.55,317.85 C97.04,294.23 119.81,265.06 147,247 C165,235.04 181.0028,228.3739 201.6828,222.7139 " fill="transparent" id="Receptionist-to-UC3" style="stroke:#181818;stroke-width:1;"/><polygon fill="#181818" points="207.47,221.13,197.7333,219.6478,202.6474,222.4499,199.8452,227.364,207.47,221.13" style="stroke:#181818;stroke-width:1;"/></g><!--link Receptionist to UC11--><g id="link_Receptionist_UC11"><path d="M81.21,394.14 C96.63,417.92 119.46,447.26 147,465 C167.84,478.42 187.8188,485.3134 211.1788,490.2334 " fill="transparent" id="Receptionist-to-UC11" style="stroke:#181818;stroke-width:1;"/><polygon fill="#181818" points="217.05,491.47,209.0676,485.701,212.1573,490.4395,207.4188,493.5293,217.05,491.47" style="stroke:#181818;stroke-width:1;"/></g><!--link Receptionist to UC12--><g id="link_Receptionist_UC12"><path d="M102.22,375.43 C116.32,381.48 132.19,387.89 147,393 C172.1,401.66 194.6294,408.0845 218.6794,414.2745 " fill="transparent" id="Receptionist-to-UC12" style="stroke:#181818;stroke-width:1;"/><polygon fill="#181818" points="224.49,415.77,216.7711,409.6529,219.6478,414.5237,214.777,417.4004,224.49,415.77" style="stroke:#181818;stroke-width:1;"/></g><!--link Admin to UC13--><g id="link_Admin_UC13"><path d="M71.92,1012 C85.14,977.46 109.41,927.66 147,899 C166.27,884.31 185.3045,877.0233 208.3345,872.0633 " fill="transparent" id="Admin-to-UC13" style="stroke:#181818;stroke-width:1;"/><polygon fill="#181818" points="214.2,870.8,204.5596,868.7846,209.3121,871.8527,206.2439,876.6052,214.2,870.8" style="stroke:#181818;stroke-width:1;"/></g><!--link Admin to UC14--><g id="link_Admin_UC14"><path d="M81.04,1046.38 C109,1041.69 153.3827,1034.2429 196.4127,1027.0229 " fill="transparent" id="Admin-to-UC14" style="stroke:#181818;stroke-width:1;"/><polygon fill="#181818" points="202.33,1026.03,192.7922,1023.5744,197.3989,1026.8574,194.116,1031.4641,202.33,1026.03" style="stroke:#181818;stroke-width:1;"/></g><!--link Admin to UC15--><g id="link_Admin_UC15"><path d="M81.04,1053.62 C113.12,1059 168.6928,1068.3165 214.8528,1076.0665 " fill="transparent" id="Admin-to-UC15" style="stroke:#181818;stroke-width:1;"/><polygon fill="#181818" points="220.77,1077.06,212.5565,1071.625,215.839,1076.2321,211.2319,1079.5146,220.77,1077.06" style="stroke:#181818;stroke-width:1;"/></g><!--link Admin to UC16--><g id="link_Admin_UC16"><path d="M81.04,1071.84 C97.71,1087.6 122.1,1108.26 147,1121 C169.68,1132.61 190.6715,1139.4071 214.2715,1144.9971 " fill="transparent" id="Admin-to-UC16" style="stroke:#181818;stroke-width:1;"/><polygon fill="#181818" points="220.11,1146.38,212.2743,1140.4133,215.2446,1145.2276,210.4304,1148.1979,220.11,1146.38" style="stroke:#181818;stroke-width:1;"/></g><!--link Pharmacist to UC8--><g id="link_Pharmacist_UC8"><path d="M76.92,1189.99 C87.57,1165.94 101.02,1134.01 111,1105 C130.78,1047.5 104.11,1016.11 147,973 C161.79,958.13 176.2162,950.6695 196.4262,945.2295 " fill="transparent" id="Pharmacist-to-UC8" style="stroke:#181818;stroke-width:1;"/><polygon fill="#181818" points="202.22,943.67,192.4896,942.1468,197.3919,944.9696,194.569,949.8718,202.22,943.67" style="stroke:#181818;stroke-width:1;"/></g><!--link Pharmacist to UC17--><g id="link_Pharmacist_UC17"><path d="M97.89,1244.95 C113.04,1251.33 130.69,1258.4 147,1264 C171.48,1272.41 193.1841,1278.7585 216.7941,1285.0785 " fill="transparent" id="Pharmacist-to-UC17" style="stroke:#181818;stroke-width:1;"/><polygon fill="#181818" points="222.59,1286.63,214.9304,1280.4388,217.76,1285.3371,212.8618,1288.1667,222.59,1286.63" style="stroke:#181818;stroke-width:1;"/></g><!--link Pharmacist to UC18--><g id="link_Pharmacist_UC18"><path d="M97.66,1228 C125.64,1228 158.65,1228 193.41,1228 " fill="transparent" id="Pharmacist-to-UC18" style="stroke:#181818;stroke-width:1;"/><polygon fill="#181818" points="199.41,1228,190.41,1224,194.41,1228,190.41,1232,199.41,1228" style="stroke:#181818;stroke-width:1;"/></g><!--link LabTech to UC19--><g id="link_LabTech_UC19"><path d="M111.29,1420.59 C122.91,1415.76 135.28,1410.95 147,1407 C173.08,1398.21 196.8642,1391.8239 221.5242,1385.9339 " fill="transparent" id="LabTech-to-UC19" style="stroke:#181818;stroke-width:1;"/><polygon fill="#181818" points="227.36,1384.54,217.677,1382.7403,222.4968,1385.7016,219.5355,1390.5214,227.36,1384.54" style="stroke:#181818;stroke-width:1;"/></g><!--link LabTech to UC20--><g id="link_LabTech_UC20"><path d="M111.2,1444 C137.16,1444 163.24,1444 192.43,1444 " fill="transparent" id="LabTech-to-UC20" style="stroke:#181818;stroke-width:1;"/><polygon fill="#181818" points="198.43,1444,189.43,1440,193.43,1444,189.43,1448,198.43,1444" style="stroke:#181818;stroke-width:1;"/></g><!--link LabTech to UC21--><g id="link_LabTech_UC21"><path d="M111.02,1466.11 C122.76,1470.9 135.25,1475.78 147,1480 C169.63,1488.12 189.0172,1494.392 211.2872,1501.132 " fill="transparent" id="LabTech-to-UC21" style="stroke:#181818;stroke-width:1;"/><polygon fill="#181818" points="217.03,1502.87,209.5746,1496.4344,212.2444,1501.4216,207.2572,1504.0914,217.03,1502.87" style="stroke:#181818;stroke-width:1;"/></g><!--SRC=[TPHDZzem48Rl-HKMf-vXfIO15YwLM5RQhLIa5LjwzphJCDh4JctJ2bNzxxNZ3n8SE0JbUSSpuzSJD_1J4os8nFgeIOKIc4R1iumoBIHvfHg1Q__s9EoVVza3Wyx6eWhwfcgHXvL7AblABkBi6tqdtu4TEJAaV4Qe8WPPacMsBELr0sJs8bI7cZPaHpcjeJNboTjPQMXdv6z6pAz_VDf3RP93xF7E9ZniSwS-2l51DbqdaElseXPEtLBEe9dGIwV_GFX3Tb0XCtsyc392ddt4t4Niw0UOokV1siLWhU_9cYHafNp4qaKy8QsvK73L-ODJNoKe9l4TN0F8mUkhiEzV9r2QE3kL3idNW_9MsuCwDL7DFpjvenJMt9zaqBndpy11KWtaA_yja8MwUH6sRC-371J8cBKSIGC_OyHy5F68JOEy3gAtR6U6o8w8E-OWHhTK1rmbTkJUhqDN-PvDsSivvTwkhU3LYUcHLVdwQiDxw8ICSk6zUWDU1Sb-8ywq69LdVLWuwllxBt7yngoOOEK4cq-mXIlYIdksJD53YbOfMgV8p4KFXr_pQ2iJGd5BA6-ckfdB35SlzLT7O6MAvYbQf6ZfZoJUFICl4kn7AEKhbyTVJu6k9w2VbIkOP__-0m00]--></g></svg>