<svg xmlns="http://www.w3.org/2000/svg" xmlns:xlink="http://www.w3.org/1999/xlink" contentStyleType="text/css" data-diagram-type="DESCRIPTION" height="917px" preserveAspectRatio="none" style="width:1111px;height:917px;background:#FFFFFF;" version="1.1" viewBox="0 0 1111 917" width="1111px" zoomAndPan="magnify"><defs/><g><!--cluster Hospital Management System--><g id="cluster_Hospital Management System"><rect fill="transparent" height="904" rx="2.5" ry="2.5" style="stroke:#181818;stroke-width:1;" width="1098" x="7" y="7"/><text fill="#000000" font-family="sans-serif" font-size="14" font-weight="bold" lengthAdjust="spacing" textLength="236.5439" x="437.728" y="21.9951">Hospital Management System</text></g><!--cluster Patient Management Subsystem--><g id="cluster_Patient Management Subsystem"><rect fill="transparent" height="263" rx="2.5" ry="2.5" style="stroke:#181818;stroke-width:1;" width="348" x="733" y="50"/><text fill="#000000" font-family="sans-serif" font-size="14" font-weight="bold" lengthAdjust="spacing" textLength="256.792" x="778.604" y="64.9951">Patient Management Subsystem</text></g><!--cluster Appointment & Scheduling Subsystem--><g id="cluster_Appointment &amp; Scheduling Subsystem"><rect fill="transparent" height="263" rx="2.5" ry="2.5" style="stroke:#181818;stroke-width:1;" width="319" x="390" y="50"/><text fill="#000000" font-family="sans-serif" font-size="14" font-weight="bold" lengthAdjust="spacing" textLength="303.584" x="397.708" y="64.9951">Appointment &amp; Scheduling Subsystem</text></g><!--cluster Medical Records & Diagnosis Subsystem--><g id="cluster_Medical Records &amp; Diagnosis Subsystem"><rect fill="transparent" height="263" rx="2.5" ry="2.5" style="stroke:#181818;stroke-width:1;" width="335" x="31" y="50"/><text fill="#000000" font-family="sans-serif" font-size="14" font-weight="bold" lengthAdjust="spacing" textLength="319.5254" x="38.7373" y="64.9951">Medical Records &amp; Diagnosis Subsystem</text></g><!--cluster Billing & Payment Subsystem--><g id="cluster_Billing &amp; Payment Subsystem"><rect fill="transparent" height="263" rx="2.5" ry="2.5" style="stroke:#181818;stroke-width:1;" width="307" x="735" y="337"/><text fill="#000000" font-family="sans-serif" font-size="14" font-weight="bold" lengthAdjust="spacing" textLength="232.9004" x="772.0498" y="351.9951">Billing &amp; Payment Subsystem</text></g><!--cluster Pharmacy Management Subsystem--><g id="cluster_Pharmacy Management Subsystem"><rect fill="transparent" height="263" rx="2.5" ry="2.5" style="stroke:#181818;stroke-width:1;" width="327" x="384" y="337"/><text fill="#000000" font-family="sans-serif" font-size="14" font-weight="bold" lengthAdjust="spacing" textLength="277.4775" x="408.7612" y="351.9951">Pharmacy Management Subsystem</text></g><!--cluster Laboratory & Reports Subsystem--><g id="cluster_Laboratory &amp; Reports Subsystem"><rect fill="transparent" height="263" rx="2.5" ry="2.5" style="stroke:#181818;stroke-width:1;" width="321" x="39" y="337"/><text fill="#000000" font-family="sans-serif" font-size="14" font-weight="bold" lengthAdjust="spacing" textLength="262.0146" x="68.4927" y="351.9951">Laboratory &amp; Reports Subsystem</text></g><!--cluster Admin & User Management Subsystem--><g id="cluster_Admin &amp; User Management Subsystem"><rect fill="transparent" height="263" rx="2.5" ry="2.5" style="stroke:#181818;stroke-width:1;" width="341" x="740" y="624"/><text fill="#000000" font-family="sans-serif" font-size="14" font-weight="bold" lengthAdjust="spacing" textLength="307.7061" x="756.647" y="638.9951">Admin &amp; User Management Subsystem</text></g><!--entity Patient Registration--><g id="elem_Patient Registration"><ellipse cx="818.9395" cy="93.5" fill="#F1F1F1" rx="8" ry="8" style="stroke:#181818;stroke-width:0.5;"/><path d="M818.9395,101.5 L818.9395,128.5 M805.9395,109.5 L831.9395,109.5 M818.9395,128.5 L805.9395,143.5 M818.9395,128.5 L831.9395,143.5 " fill="transparent" style="stroke:#181818;stroke-width:0.5;"/><text fill="#000000" font-family="sans-serif" font-size="14" lengthAdjust="spacing" textLength="138.8789" x="749.5" y="157.9951">Patient Registration</text></g><!--entity Profile Management--><g id="elem_Profile Management"><ellipse cx="993.8794" cy="93.5" fill="#F1F1F1" rx="8" ry="8" style="stroke:#181818;stroke-width:0.5;"/><path d="M993.8794,101.5 L993.8794,128.5 M980.8794,109.5 L1006.8794,109.5 M993.8794,128.5 L980.8794,143.5 M993.8794,128.5 L1006.8794,143.5 " fill="transparent" style="stroke:#181818;stroke-width:0.5;"/><text fill="#000000" font-family="sans-serif" font-size="14" lengthAdjust="spacing" textLength="140.7588" x="923.5" y="157.9951">Profile Management</text></g><!--entity Medical History--><g id="elem_Medical History"><ellipse cx="814.9458" cy="229.5" fill="#F1F1F1" rx="8" ry="8" style="stroke:#181818;stroke-width:0.5;"/><path d="M814.9458,237.5 L814.9458,264.5 M801.9458,245.5 L827.9458,245.5 M814.9458,264.5 L801.9458,279.5 M814.9458,264.5 L827.9458,279.5 " fill="transparent" style="stroke:#181818;stroke-width:0.5;"/><text fill="#000000" font-family="sans-serif" font-size="14" lengthAdjust="spacing" textLength="107.8916" x="761" y="293.9951">Medical History</text></g><!--entity Book Appointment--><g id="elem_Book Appointment"><ellipse cx="483.0371" cy="93.5" fill="#F1F1F1" rx="8" ry="8" style="stroke:#181818;stroke-width:0.5;"/><path d="M483.0371,101.5 L483.0371,128.5 M470.0371,109.5 L496.0371,109.5 M483.0371,128.5 L470.0371,143.5 M483.0371,128.5 L496.0371,143.5 " fill="transparent" style="stroke:#181818;stroke-width:0.5;"/><text fill="#000000" font-family="sans-serif" font-size="14" lengthAdjust="spacing" textLength="130.0742" x="418" y="157.9951">Book Appointment</text></g><!--entity Assign Doctor--><g id="elem_Assign Doctor"><ellipse cx="632.0591" cy="93.5" fill="#F1F1F1" rx="8" ry="8" style="stroke:#181818;stroke-width:0.5;"/><path d="M632.0591,101.5 L632.0591,128.5 M619.0591,109.5 L645.0591,109.5 M632.0591,128.5 L619.0591,143.5 M632.0591,128.5 L645.0591,143.5 " fill="transparent" style="stroke:#181818;stroke-width:0.5;"/><text fill="#000000" font-family="sans-serif" font-size="14" lengthAdjust="spacing" textLength="97.1182" x="583.5" y="157.9951">Assign Doctor</text></g><!--entity Cancel Appointment--><g id="elem_Cancel Appointment"><ellipse cx="489.8296" cy="229.5" fill="#F1F1F1" rx="8" ry="8" style="stroke:#181818;stroke-width:0.5;"/><path d="M489.8296,237.5 L489.8296,264.5 M476.8296,245.5 L502.8296,245.5 M489.8296,264.5 L476.8296,279.5 M489.8296,264.5 L502.8296,279.5 " fill="transparent" style="stroke:#181818;stroke-width:0.5;"/><text fill="#000000" font-family="sans-serif" font-size="14" lengthAdjust="spacing" textLength="142.6592" x="418.5" y="293.9951">Cancel Appointment</text></g><!--entity View Patient Records--><g id="elem_View Patient Records"><ellipse cx="121.1733" cy="93.5" fill="#F1F1F1" rx="8" ry="8" style="stroke:#181818;stroke-width:0.5;"/><path d="M121.1733,101.5 L121.1733,128.5 M108.1733,109.5 L134.1733,109.5 M121.1733,128.5 L108.1733,143.5 M121.1733,128.5 L134.1733,143.5 " fill="transparent" style="stroke:#181818;stroke-width:0.5;"/><text fill="#000000" font-family="sans-serif" font-size="14" lengthAdjust="spacing" textLength="148.3467" x="47" y="157.9951">View Patient Records</text></g><!--entity Diagnose Patient--><g id="elem_Diagnose Patient"><ellipse cx="290.1538" cy="93.5" fill="#F1F1F1" rx="8" ry="8" style="stroke:#181818;stroke-width:0.5;"/><path d="M290.1538,101.5 L290.1538,128.5 M277.1538,109.5 L303.1538,109.5 M290.1538,128.5 L277.1538,143.5 M290.1538,128.5 L303.1538,143.5 " fill="transparent" style="stroke:#181818;stroke-width:0.5;"/><text fill="#000000" font-family="sans-serif" font-size="14" lengthAdjust="spacing" textLength="119.3076" x="230.5" y="157.9951">Diagnose Patient</text></g><!--entity Prescribe Medicine--><g id="elem_Prescribe Medicine"><ellipse cx="118.9702" cy="229.5" fill="#F1F1F1" rx="8" ry="8" style="stroke:#181818;stroke-width:0.5;"/><path d="M118.9702,237.5 L118.9702,264.5 M105.9702,245.5 L131.9702,245.5 M118.9702,264.5 L105.9702,279.5 M118.9702,264.5 L131.9702,279.5 " fill="transparent" style="stroke:#181818;stroke-width:0.5;"/><text fill="#000000" font-family="sans-serif" font-size="14" lengthAdjust="spacing" textLength="131.9404" x="53" y="293.9951">Prescribe Medicine</text></g><!--entity Request Lab Tests--><g id="elem_Request Lab Tests"><ellipse cx="284.9526" cy="229.5" fill="#F1F1F1" rx="8" ry="8" style="stroke:#181818;stroke-width:0.5;"/><path d="M284.9526,237.5 L284.9526,264.5 M271.9526,245.5 L297.9526,245.5 M284.9526,264.5 L271.9526,279.5 M284.9526,264.5 L297.9526,279.5 " fill="transparent" style="stroke:#181818;stroke-width:0.5;"/><text fill="#000000" font-family="sans-serif" font-size="14" lengthAdjust="spacing" textLength="128.9053" x="220.5" y="293.9951">Request Lab Tests</text></g><!--entity Generate Invoice--><g id="elem_Generate Invoice"><ellipse cx="810.9443" cy="380.5" fill="#F1F1F1" rx="8" ry="8" style="stroke:#181818;stroke-width:0.5;"/><path d="M810.9443,388.5 L810.9443,415.5 M797.9443,396.5 L823.9443,396.5 M810.9443,415.5 L797.9443,430.5 M810.9443,415.5 L823.9443,430.5 " fill="transparent" style="stroke:#181818;stroke-width:0.5;"/><text fill="#000000" font-family="sans-serif" font-size="14" lengthAdjust="spacing" textLength="119.8887" x="751" y="444.9951">Generate Invoice</text></g><!--entity Process Payment--><g id="elem_Process Payment"><ellipse cx="966.0161" cy="380.5" fill="#F1F1F1" rx="8" ry="8" style="stroke:#181818;stroke-width:0.5;"/><path d="M966.0161,388.5 L966.0161,415.5 M953.0161,396.5 L979.0161,396.5 M966.0161,415.5 L953.0161,430.5 M966.0161,415.5 L979.0161,430.5 " fill="transparent" style="stroke:#181818;stroke-width:0.5;"/><text fill="#000000" font-family="sans-serif" font-size="14" lengthAdjust="spacing" textLength="120.0322" x="906" y="444.9951">Process Payment</text></g><!--entity Insurance Management--><g id="elem_Insurance Management"><ellipse cx="834.1807" cy="516.5" fill="#F1F1F1" rx="8" ry="8" style="stroke:#181818;stroke-width:0.5;"/><path d="M834.1807,524.5 L834.1807,551.5 M821.1807,532.5 L847.1807,532.5 M834.1807,551.5 L821.1807,566.5 M834.1807,551.5 L847.1807,566.5 " fill="transparent" style="stroke:#181818;stroke-width:0.5;"/><text fill="#000000" font-family="sans-serif" font-size="14" lengthAdjust="spacing" textLength="165.3613" x="751.5" y="580.9951">Insurance Management</text></g><!--entity View Prescriptions--><g id="elem_View Prescriptions"><ellipse cx="464.2134" cy="380.5" fill="#F1F1F1" rx="8" ry="8" style="stroke:#181818;stroke-width:0.5;"/><path d="M464.2134,388.5 L464.2134,415.5 M451.2134,396.5 L477.2134,396.5 M464.2134,415.5 L451.2134,430.5 M464.2134,415.5 L477.2134,430.5 " fill="transparent" style="stroke:#181818;stroke-width:0.5;"/><text fill="#000000" font-family="sans-serif" font-size="14" lengthAdjust="spacing" textLength="128.4268" x="400" y="444.9951">View Prescriptions</text></g><!--entity Dispense Medicine--><g id="elem_Dispense Medicine"><ellipse cx="629.1182" cy="380.5" fill="#F1F1F1" rx="8" ry="8" style="stroke:#181818;stroke-width:0.5;"/><path d="M629.1182,388.5 L629.1182,415.5 M616.1182,396.5 L642.1182,396.5 M629.1182,415.5 L616.1182,430.5 M629.1182,415.5 L642.1182,430.5 " fill="transparent" style="stroke:#181818;stroke-width:0.5;"/><text fill="#000000" font-family="sans-serif" font-size="14" lengthAdjust="spacing" textLength="131.2363" x="563.5" y="444.9951">Dispense Medicine</text></g><!--entity Manage Inventory--><g id="elem_Manage Inventory"><ellipse cx="463.9648" cy="516.5" fill="#F1F1F1" rx="8" ry="8" style="stroke:#181818;stroke-width:0.5;"/><path d="M463.9648,524.5 L463.9648,551.5 M450.9648,532.5 L476.9648,532.5 M463.9648,551.5 L450.9648,566.5 M463.9648,551.5 L476.9648,566.5 " fill="transparent" style="stroke:#181818;stroke-width:0.5;"/><text fill="#000000" font-family="sans-serif" font-size="14" lengthAdjust="spacing" textLength="126.9297" x="400.5" y="580.9951">Manage Inventory</text></g><!--entity Conduct Lab Tests--><g id="elem_Conduct Lab Tests"><ellipse cx="119.7842" cy="380.5" fill="#F1F1F1" rx="8" ry="8" style="stroke:#181818;stroke-width:0.5;"/><path d="M119.7842,388.5 L119.7842,415.5 M106.7842,396.5 L132.7842,396.5 M119.7842,415.5 L106.7842,430.5 M119.7842,415.5 L132.7842,430.5 " fill="transparent" style="stroke:#181818;stroke-width:0.5;"/><text fill="#000000" font-family="sans-serif" font-size="14" lengthAdjust="spacing" textLength="129.5684" x="55" y="444.9951">Conduct Lab Tests</text></g><!--entity Generate Reports--><g id="elem_Generate Reports"><ellipse cx="282.084" cy="380.5" fill="#F1F1F1" rx="8" ry="8" style="stroke:#181818;stroke-width:0.5;"/><path d="M282.084,388.5 L282.084,415.5 M269.084,396.5 L295.084,396.5 M282.084,415.5 L269.084,430.5 M282.084,415.5 L295.084,430.5 " fill="transparent" style="stroke:#181818;stroke-width:0.5;"/><text fill="#000000" font-family="sans-serif" font-size="14" lengthAdjust="spacing" textLength="124.168" x="220" y="444.9951">Generate Reports</text></g><!--entity Send Reports to Doctors--><g id="elem_Send Reports to Doctors"><ellipse cx="141.0723" cy="516.5" fill="#F1F1F1" rx="8" ry="8" style="stroke:#181818;stroke-width:0.5;"/><path d="M141.0723,524.5 L141.0723,551.5 M128.0723,532.5 L154.0723,532.5 M141.0723,551.5 L128.0723,566.5 M141.0723,551.5 L154.0723,566.5 " fill="transparent" style="stroke:#181818;stroke-width:0.5;"/><text fill="#000000" font-family="sans-serif" font-size="14" lengthAdjust="spacing" textLength="171.1445" x="55.5" y="580.9951">Send Reports to Doctors</text></g><!--entity Manage Users--><g id="elem_Manage Users"><ellipse cx="806.1323" cy="667.5" fill="#F1F1F1" rx="8" ry="8" style="stroke:#181818;stroke-width:0.5;"/><path d="M806.1323,675.5 L806.1323,702.5 M793.1323,683.5 L819.1323,683.5 M806.1323,702.5 L793.1323,717.5 M806.1323,702.5 L819.1323,717.5 " fill="transparent" style="stroke:#181818;stroke-width:0.5;"/><text fill="#000000" font-family="sans-serif" font-size="14" lengthAdjust="spacing" textLength="99.2646" x="756.5" y="731.9951">Manage Users</text></g><!--entity Manage Hospital System--><g id="elem_Manage Hospital System"><ellipse cx="977.9189" cy="667.5" fill="#F1F1F1" rx="8" ry="8" style="stroke:#181818;stroke-width:0.5;"/><path d="M977.9189,675.5 L977.9189,702.5 M964.9189,683.5 L990.9189,683.5 M977.9189,702.5 L964.9189,717.5 M977.9189,702.5 L990.9189,717.5 " fill="transparent" style="stroke:#181818;stroke-width:0.5;"/><text fill="#000000" font-family="sans-serif" font-size="14" lengthAdjust="spacing" textLength="173.8379" x="891" y="731.9951">Manage Hospital System</text></g><!--entity Monitor Operations--><g id="elem_Monitor Operations"><ellipse cx="823.8169" cy="803.5" fill="#F1F1F1" rx="8" ry="8" style="stroke:#181818;stroke-width:0.5;"/><path d="M823.8169,811.5 L823.8169,838.5 M810.8169,819.5 L836.8169,819.5 M823.8169,838.5 L810.8169,853.5 M823.8169,838.5 L836.8169,853.5 " fill="transparent" style="stroke:#181818;stroke-width:0.5;"/><text fill="#000000" font-family="sans-serif" font-size="14" lengthAdjust="spacing" textLength="134.6338" x="756.5" y="867.9951">Monitor Operations</text></g><!--SRC=[XLDDJyCm3BttLqGxm8aVCOO4I22cRN3FKbCiMZl4AJ0X_ZlknxQKqj53rDP-py_FZhmYUHjiPN9ujdKPD_0PvoKML055u_I0a6NdPiF-eeHtA8ti94AL1N3HKb62cTsmU8osDFUMR04jSjrcpSnNPlHfZmInj16Rh1HGRsM0QPv3uWeAb1ZqYscMX0C_en8UUPBWFUJeLDMD8ZdikiXtzblBt7j6Ygs8CxDsBv3N9L8neUYI-TKacAJWN4IDCrVij5xoVs79gN4Zq5ZBNl8A78TSLCyLse9OK2RaF25ycADBBImftSDXdpBm3iG5tAfxJLKaI88hUAj1ehcpMxFH5vbIV8bbQzQPLjYT6EGr4EZumDpIEwE3uH0TYEm9aiWjIHqQyqO37WjPljXGMRVxVwSwoxhkVRDGGyF40ycVfdJCJGTAVcAZr3JMNZL3RLc1vn2dnhTWocitydbeMK-HXDP0-O4vShzoaqEQvnMIQdaK2F_xqxVP9Cku-yDbxszuai24gi8yUEWkwa7Fzmy0]--></g></svg>