<svg xmlns="http://www.w3.org/2000/svg" xmlns:xlink="http://www.w3.org/1999/xlink" contentStyleType="text/css" data-diagram-type="DESCRIPTION" height="200px" preserveAspectRatio="none" style="width:2077px;height:200px;background:#FFFFFF;" version="1.1" viewBox="0 0 2077 200" width="2077px" zoomAndPan="magnify"><defs/><g><!--entity HMS--><g id="elem_HMS"><rect fill="#F1F1F1" height="36.2969" rx="2.5" ry="2.5" style="stroke:#181818;stroke-width:0.5;" width="230.4512" x="943.5" y="158.5"/><text fill="#000000" font-family="sans-serif" font-size="14" lengthAdjust="spacing" textLength="210.4512" x="953.5" y="181.4951">Hospital Management System</text></g><!--entity Patient--><g id="elem_Patient"><ellipse cx="30.688" cy="14" fill="#F1F1F1" rx="8" ry="8" style="stroke:#181818;stroke-width:0.5;"/><path d="M30.688,22 L30.688,49 M17.688,30 L43.688,30 M30.688,49 L17.688,64 M30.688,49 L43.688,64 " fill="transparent" style="stroke:#181818;stroke-width:0.5;"/><text fill="#000000" font-family="sans-serif" font-size="14" lengthAdjust="spacing" textLength="49.376" x="6" y="78.4951">Patient</text></g><!--entity Doctor--><g id="elem_Doctor"><ellipse cx="378.4268" cy="14" fill="#F1F1F1" rx="8" ry="8" style="stroke:#181818;stroke-width:0.5;"/><path d="M378.4268,22 L378.4268,49 M365.4268,30 L391.4268,30 M378.4268,49 L365.4268,64 M378.4268,49 L391.4268,64 " fill="transparent" style="stroke:#181818;stroke-width:0.5;"/><text fill="#000000" font-family="sans-serif" font-size="14" lengthAdjust="spacing" textLength="46.8535" x="355" y="78.4951">Doctor</text></g><!--entity Receptionist--><g id="elem_Receptionist"><ellipse cx="631.5142" cy="14" fill="#F1F1F1" rx="8" ry="8" style="stroke:#181818;stroke-width:0.5;"/><path d="M631.5142,22 L631.5142,49 M618.5142,30 L644.5142,30 M631.5142,49 L618.5142,64 M631.5142,49 L644.5142,64 " fill="transparent" style="stroke:#181818;stroke-width:0.5;"/><text fill="#000000" font-family="sans-serif" font-size="14" lengthAdjust="spacing" textLength="87.0283" x="588" y="78.4951">Receptionist</text></g><!--entity Admin--><g id="elem_Admin"><ellipse cx="826.4321" cy="14" fill="#F1F1F1" rx="8" ry="8" style="stroke:#181818;stroke-width:0.5;"/><path d="M826.4321,22 L826.4321,49 M813.4321,30 L839.4321,30 M826.4321,49 L813.4321,64 M826.4321,49 L839.4321,64 " fill="transparent" style="stroke:#181818;stroke-width:0.5;"/><text fill="#000000" font-family="sans-serif" font-size="14" lengthAdjust="spacing" textLength="44.8643" x="804" y="78.4951">Admin</text></g><!--entity Pharmacist--><g id="elem_Pharmacist"><ellipse cx="1058.6187" cy="14" fill="#F1F1F1" rx="8" ry="8" style="stroke:#181818;stroke-width:0.5;"/><path d="M1058.6187,22 L1058.6187,49 M1045.6187,30 L1071.6187,30 M1058.6187,49 L1045.6187,64 M1058.6187,49 L1071.6187,64 " fill="transparent" style="stroke:#181818;stroke-width:0.5;"/><text fill="#000000" font-family="sans-serif" font-size="14" lengthAdjust="spacing" textLength="78.2373" x="1019.5" y="78.4951">Pharmacist</text></g><!--entity LabTech--><g id="elem_LabTech"><ellipse cx="1235.6265" cy="14" fill="#F1F1F1" rx="8" ry="8" style="stroke:#181818;stroke-width:0.5;"/><path d="M1235.6265,22 L1235.6265,49 M1222.6265,30 L1248.6265,30 M1235.6265,49 L1222.6265,64 M1235.6265,49 L1248.6265,64 " fill="transparent" style="stroke:#181818;stroke-width:0.5;"/><text fill="#000000" font-family="sans-serif" font-size="14" lengthAdjust="spacing" textLength="105.2529" x="1183" y="78.4951">Lab Technician</text></g><!--entity Insurance--><g id="elem_Insurance"><ellipse cx="1534.3701" cy="14" fill="#F1F1F1" rx="8" ry="8" style="stroke:#181818;stroke-width:0.5;"/><path d="M1534.3701,22 L1534.3701,49 M1521.3701,30 L1547.3701,30 M1534.3701,49 L1521.3701,64 M1534.3701,49 L1547.3701,64 " fill="transparent" style="stroke:#181818;stroke-width:0.5;"/><text fill="#000000" font-family="sans-serif" font-size="14" lengthAdjust="spacing" textLength="139.7402" x="1464.5" y="78.4951">Insurance Company</text></g><!--entity Payment--><g id="elem_Payment"><ellipse cx="1756.6074" cy="14" fill="#F1F1F1" rx="8" ry="8" style="stroke:#181818;stroke-width:0.5;"/><path d="M1756.6074,22 L1756.6074,49 M1743.6074,30 L1769.6074,30 M1756.6074,49 L1743.6074,64 M1756.6074,49 L1769.6074,64 " fill="transparent" style="stroke:#181818;stroke-width:0.5;"/><text fill="#000000" font-family="sans-serif" font-size="14" lengthAdjust="spacing" textLength="128.2148" x="1692.5" y="78.4951">Payment Gateway</text></g><!--entity GovtDB--><g id="elem_GovtDB"><ellipse cx="1965.6138" cy="14" fill="#F1F1F1" rx="8" ry="8" style="stroke:#181818;stroke-width:0.5;"/><path d="M1965.6138,22 L1965.6138,49 M1952.6138,30 L1978.6138,30 M1965.6138,49 L1952.6138,64 M1965.6138,49 L1978.6138,64 " fill="transparent" style="stroke:#181818;stroke-width:0.5;"/><text fill="#000000" font-family="sans-serif" font-size="14" lengthAdjust="spacing" textLength="209.2275" x="1861" y="78.4951">Government Health Database</text></g><!--link Patient to HMS--><g id="link_Patient_HMS"><path d="M53.59,81.87 C66.53,99.3 84.33,118.39 105.5,128.5 C179.26,163.73 705.78,172.57 943.06,174.78 " fill="transparent" id="Patient-HMS" style="stroke:#181818;stroke-width:1;"/><text fill="#000000" font-family="sans-serif" font-size="13" lengthAdjust="spacing" textLength="306.2808" x="106.5" y="124.5669">Registers, Books Appointments, Views Records</text></g><!--link Doctor to HMS--><g id="link_Doctor_HMS"><path d="M396.71,81.53 C407.28,98.87 422.32,117.98 441.5,128.5 C484.27,151.96 776.92,165.79 943.35,171.84 " fill="transparent" id="Doctor-HMS" style="stroke:#181818;stroke-width:1;"/><text fill="#000000" font-family="sans-serif" font-size="13" lengthAdjust="spacing" textLength="211.9038" x="442.5" y="124.5669">Diagnoses, Prescribes Medicines</text></g><!--link Receptionist to HMS--><g id="link_Receptionist_HMS"><path d="M643.93,81.83 C651.52,98.81 663,117.51 679.5,128.5 C721.58,156.52 848.02,167.84 943.38,172.41 " fill="transparent" id="Receptionist-HMS" style="stroke:#181818;stroke-width:1;"/><text fill="#000000" font-family="sans-serif" font-size="13" lengthAdjust="spacing" textLength="153.6133" x="680.5" y="124.5669">Manages Appointments</text></g><!--link Admin to HMS--><g id="link_Admin_HMS"><path d="M830.62,81.63 C834.32,98.13 841.3,116.51 854.5,128.5 C868.55,141.27 905.12,151.45 943.49,159.02 " fill="transparent" id="Admin-HMS" style="stroke:#181818;stroke-width:1;"/><text fill="#000000" font-family="sans-serif" font-size="13" lengthAdjust="spacing" textLength="190.8613" x="855.5" y="124.5669">Manages Users, System Data</text></g><!--link Pharmacist to HMS--><g id="link_Pharmacist_HMS"><path d="M1056.09,81.71 C1055.43,96.3 1055.01,113.19 1055.5,128.5 C1055.81,138.31 1056.49,149.25 1057.12,158.1 " fill="transparent" id="Pharmacist-HMS" style="stroke:#181818;stroke-width:1;"/><text fill="#000000" font-family="sans-serif" font-size="13" lengthAdjust="spacing" textLength="135.4082" x="1056.5" y="124.5669">Dispenses Medicines</text></g><!--link LabTech to HMS--><g id="link_LabTech_HMS"><path d="M1225.55,81.63 C1219.52,97.93 1210.25,116.14 1196.5,128.5 C1181.54,141.95 1162.56,151.58 1143.5,158.46 " fill="transparent" id="LabTech-HMS" style="stroke:#181818;stroke-width:1;"/><text fill="#000000" font-family="sans-serif" font-size="13" lengthAdjust="spacing" textLength="257.4229" x="1210.5" y="124.5669">Conducts Lab Tests, Generates Reports</text></g><!--link Insurance to HMS--><g id="link_Insurance_HMS"><path d="M1517.99,81.62 C1508.4,98.76 1494.6,117.67 1476.5,128.5 C1427,158.12 1279.37,169.08 1173.6,173.13 " fill="transparent" id="Insurance-HMS" style="stroke:#181818;stroke-width:1;"/><text fill="#000000" font-family="sans-serif" font-size="13" lengthAdjust="spacing" textLength="180.3496" x="1496.5" y="124.5669">Processes Insurance Claims</text></g><!--link Payment to HMS--><g id="link_Payment_HMS"><path d="M1734.96,81.61 C1722.79,98.97 1705.91,118.08 1685.5,128.5 C1641.2,151.11 1342.2,165.35 1173.6,171.68 " fill="transparent" id="Payment-HMS" style="stroke:#181818;stroke-width:1;"/><text fill="#000000" font-family="sans-serif" font-size="13" lengthAdjust="spacing" textLength="167.083" x="1707.5" y="124.5669">Handles Online Payments</text></g><!--link GovtDB to HMS--><g id="link_GovtDB_HMS"><path d="M1939.51,81.85 C1925.17,99.28 1905.76,118.37 1883.5,128.5 C1820.62,157.12 1385.28,169.28 1173.59,173.55 " fill="transparent" id="GovtDB-HMS" style="stroke:#181818;stroke-width:1;"/><text fill="#000000" font-family="sans-serif" font-size="13" lengthAdjust="spacing" textLength="155.3398" x="1908.5" y="124.5669">Sends Compliance Data</text></g><!--SRC=[RPF1JkGm38RlVOge5oxm0di3YcPMOiI8WRrxKjDQf4uKPu0HsdVVn6rfHzfBczYVdVo_Mtad3X1XC2s-mScb5_nAjuuw7f2JiVc1iQgkJ8Dln6XIZsO0OYDdIJXK4Mq2xXoQUkibK09dTi3GeTOVbAeDYDdk3kQx-bjwFNpbffp91qwK2AK2ctmqzHxoZfFoqtfEDRwyDJCkvyGpMWo9F9ECXUl03Dss0x5cTVLpNWzn03jNBjiPU8IZUK7RCrc2iK4EbSXC_6OvHM2BvjuF0VYiq4zqKNPMGpQGy1FEaqADpSZ6VsHNbDeYkDIR1X8SGL3fd4xDNR7l6HqKVT9Ja6hooTpSgCM_YYDTbe1HhisTz-zPSmYUE9NMEVQ7y5DTyh6LkXhTN9Kt11rxmOpk8ugDT4GnEsop1uovOctmgcuS- -LfTQL-_uTw5RtW-86eqhfQ_B-uZWHakRp2D8GLTk-vFTcayyaZaw9qWumn6rxK1X_BTPPnBQNxw2rAEM4rJ0SqP7wUsq9lWLkNsITsvOUOW8oE0rgH1-HMzBDmf4rLvJy0]--></g></svg>