<svg xmlns="http://www.w3.org/2000/svg" xmlns:xlink="http://www.w3.org/1999/xlink" contentStyleType="text/css" data-diagram-type="CLASS" height="698px" preserveAspectRatio="none" style="width:1117px;height:698px;background:#FFFFFF;" version="1.1" viewBox="0 0 1117 698" width="1117px" zoomAndPan="magnify"><defs/><g><!--class Patients--><g id="elem_Patients"><rect codeLine="1" fill="#F1F1F1" height="145.7813" id="Patients" rx="2.5" ry="2.5" style="stroke:#181818;stroke-width:0.5;" width="149.4502" x="526" y="197"/><ellipse cx="568.3511" cy="213" fill="#ADD1B2" rx="11" ry="11" style="stroke:#181818;stroke-width:1;"/><path d="M572.4605,219 L564.7417,219 L564.7417,206.6094 L572.4605,206.6094 L572.4605,208.7656 L567.1949,208.7656 L567.1949,211.4375 L571.9605,211.4375 L571.9605,213.5938 L567.1949,213.5938 L567.1949,216.8438 L572.4605,216.8438 L572.4605,219 Z " fill="#000000"/><text fill="#000000" font-family="sans-serif" font-size="14" lengthAdjust="spacing" textLength="56.6699" x="588.4292" y="217.8467">Patients</text><line style="stroke:#181818;stroke-width:0.5;" x1="527" x2="674.4502" y1="229" y2="229"/><ellipse cx="537" cy="242.6484" fill="#000000" rx="3" ry="3" style="stroke:#000000;stroke-width:1;"/><text fill="#000000" font-family="sans-serif" font-size="14" lengthAdjust="spacing" textLength="96.1543" x="546" y="245.9951">PatientID : int</text><ellipse cx="537" cy="258.9453" fill="#000000" rx="3" ry="3" style="stroke:#000000;stroke-width:1;"/><text fill="#000000" font-family="sans-serif" font-size="14" lengthAdjust="spacing" textLength="108.4453" x="546" y="262.292">Name : varchar</text><ellipse cx="537" cy="275.2422" fill="#000000" rx="3" ry="3" style="stroke:#000000;stroke-width:1;"/><text fill="#000000" font-family="sans-serif" font-size="14" lengthAdjust="spacing" textLength="58.9463" x="546" y="278.5889">Age : int</text><ellipse cx="537" cy="291.5391" fill="#000000" rx="3" ry="3" style="stroke:#000000;stroke-width:1;"/><text fill="#000000" font-family="sans-serif" font-size="14" lengthAdjust="spacing" textLength="121.6113" x="546" y="294.8857">Contact : varchar</text><ellipse cx="537" cy="307.8359" fill="#000000" rx="3" ry="3" style="stroke:#000000;stroke-width:1;"/><text fill="#000000" font-family="sans-serif" font-size="14" lengthAdjust="spacing" textLength="123.4502" x="546" y="311.1826">Address : varchar</text><ellipse cx="537" cy="324.1328" fill="#000000" rx="3" ry="3" style="stroke:#000000;stroke-width:1;"/><text fill="#000000" font-family="sans-serif" font-size="14" lengthAdjust="spacing" textLength="105.9844" x="546" y="327.4795">Email : varchar</text><line style="stroke:#181818;stroke-width:0.5;" x1="527" x2="674.4502" y1="334.7813" y2="334.7813"/></g><!--class Appointments--><g id="elem_Appointments"><rect codeLine="10" fill="#F1F1F1" height="113.1875" id="Appointments" rx="2.5" ry="2.5" style="stroke:#181818;stroke-width:0.5;" width="195.4287" x="287" y="436.5"/><ellipse cx="331.4268" cy="452.5" fill="#ADD1B2" rx="11" ry="11" style="stroke:#181818;stroke-width:1;"/><path d="M335.5361,458.5 L327.8174,458.5 L327.8174,446.1094 L335.5361,446.1094 L335.5361,448.2656 L330.2705,448.2656 L330.2705,450.9375 L335.0361,450.9375 L335.0361,453.0938 L330.2705,453.0938 L330.2705,456.3438 L335.5361,456.3438 L335.5361,458.5 Z " fill="#000000"/><text fill="#000000" font-family="sans-serif" font-size="14" lengthAdjust="spacing" textLength="98.0752" x="351.9268" y="457.3467">Appointments</text><line style="stroke:#181818;stroke-width:0.5;" x1="288" x2="481.4287" y1="468.5" y2="468.5"/><ellipse cx="298" cy="482.1484" fill="#000000" rx="3" ry="3" style="stroke:#000000;stroke-width:1;"/><text fill="#000000" font-family="sans-serif" font-size="14" lengthAdjust="spacing" textLength="137.5596" x="307" y="485.4951">AppointmentID : int</text><ellipse cx="298" cy="498.4453" fill="#000000" rx="3" ry="3" style="stroke:#000000;stroke-width:1;"/><text fill="#000000" font-family="sans-serif" font-size="14" lengthAdjust="spacing" textLength="169.4287" x="307" y="501.792">AppointmentDate : date</text><ellipse cx="298" cy="514.7422" fill="#000000" rx="3" ry="3" style="stroke:#000000;stroke-width:1;"/><text fill="#000000" font-family="sans-serif" font-size="14" lengthAdjust="spacing" textLength="93.6318" x="307" y="518.0889">DoctorID : int</text><ellipse cx="298" cy="531.0391" fill="#000000" rx="3" ry="3" style="stroke:#000000;stroke-width:1;"/><text fill="#000000" font-family="sans-serif" font-size="14" lengthAdjust="spacing" textLength="96.1543" x="307" y="534.3857">PatientID : int</text><line style="stroke:#181818;stroke-width:0.5;" x1="288" x2="481.4287" y1="541.6875" y2="541.6875"/></g><!--class Doctors--><g id="elem_Doctors"><rect codeLine="17" fill="#F1F1F1" height="113.1875" id="Doctors" rx="2.5" ry="2.5" style="stroke:#181818;stroke-width:0.5;" width="190.2197" x="239.5" y="213.5"/><ellipse cx="303.2861" cy="229.5" fill="#ADD1B2" rx="11" ry="11" style="stroke:#181818;stroke-width:1;"/><path d="M307.3955,235.5 L299.6768,235.5 L299.6768,223.1094 L307.3955,223.1094 L307.3955,225.2656 L302.1299,225.2656 L302.1299,227.9375 L306.8955,227.9375 L306.8955,230.0938 L302.1299,230.0938 L302.1299,233.3438 L307.3955,233.3438 L307.3955,235.5 Z " fill="#000000"/><text fill="#000000" font-family="sans-serif" font-size="14" lengthAdjust="spacing" textLength="54.1475" x="323.7861" y="234.3467">Doctors</text><line style="stroke:#181818;stroke-width:0.5;" x1="240.5" x2="428.7197" y1="245.5" y2="245.5"/><ellipse cx="250.5" cy="259.1484" fill="#000000" rx="3" ry="3" style="stroke:#000000;stroke-width:1;"/><text fill="#000000" font-family="sans-serif" font-size="14" lengthAdjust="spacing" textLength="93.6318" x="259.5" y="262.4951">DoctorID : int</text><ellipse cx="250.5" cy="275.4453" fill="#000000" rx="3" ry="3" style="stroke:#000000;stroke-width:1;"/><text fill="#000000" font-family="sans-serif" font-size="14" lengthAdjust="spacing" textLength="108.4453" x="259.5" y="278.792">Name : varchar</text><ellipse cx="250.5" cy="291.7422" fill="#000000" rx="3" ry="3" style="stroke:#000000;stroke-width:1;"/><text fill="#000000" font-family="sans-serif" font-size="14" lengthAdjust="spacing" textLength="164.2197" x="259.5" y="295.0889">Specialization : varchar</text><ellipse cx="250.5" cy="308.0391" fill="#000000" rx="3" ry="3" style="stroke:#000000;stroke-width:1;"/><text fill="#000000" font-family="sans-serif" font-size="14" lengthAdjust="spacing" textLength="131.4756" x="259.5" y="311.3857">Schedule : varchar</text><line style="stroke:#181818;stroke-width:0.5;" x1="240.5" x2="428.7197" y1="318.6875" y2="318.6875"/></g><!--class MedicalRecords--><g id="elem_MedicalRecords"><rect codeLine="24" fill="#F1F1F1" height="129.4844" id="MedicalRecords" rx="2.5" ry="2.5" style="stroke:#181818;stroke-width:0.5;" width="166.7451" x="517" y="428.5"/><ellipse cx="543.0566" cy="444.5" fill="#ADD1B2" rx="11" ry="11" style="stroke:#181818;stroke-width:1;"/><path d="M547.166,450.5 L539.4473,450.5 L539.4473,438.1094 L547.166,438.1094 L547.166,440.2656 L541.9004,440.2656 L541.9004,442.9375 L546.666,442.9375 L546.666,445.0938 L541.9004,445.0938 L541.9004,448.3438 L547.166,448.3438 L547.166,450.5 Z " fill="#000000"/><text fill="#000000" font-family="sans-serif" font-size="14" lengthAdjust="spacing" textLength="110.1748" x="559.5137" y="449.3467">MedicalRecords</text><line style="stroke:#181818;stroke-width:0.5;" x1="518" x2="682.7451" y1="460.5" y2="460.5"/><ellipse cx="528" cy="474.1484" fill="#000000" rx="3" ry="3" style="stroke:#000000;stroke-width:1;"/><text fill="#000000" font-family="sans-serif" font-size="14" lengthAdjust="spacing" textLength="96.0244" x="537" y="477.4951">RecordID : int</text><ellipse cx="528" cy="490.4453" fill="#000000" rx="3" ry="3" style="stroke:#000000;stroke-width:1;"/><text fill="#000000" font-family="sans-serif" font-size="14" lengthAdjust="spacing" textLength="96.1543" x="537" y="493.792">PatientID : int</text><ellipse cx="528" cy="506.7422" fill="#000000" rx="3" ry="3" style="stroke:#000000;stroke-width:1;"/><text fill="#000000" font-family="sans-serif" font-size="14" lengthAdjust="spacing" textLength="135.1943" x="537" y="510.0889">Diagnosis : varchar</text><ellipse cx="528" cy="523.0391" fill="#000000" rx="3" ry="3" style="stroke:#000000;stroke-width:1;"/><text fill="#000000" font-family="sans-serif" font-size="14" lengthAdjust="spacing" textLength="140.7451" x="537" y="526.3857">Treatment : varchar</text><ellipse cx="528" cy="539.3359" fill="#000000" rx="3" ry="3" style="stroke:#000000;stroke-width:1;"/><text fill="#000000" font-family="sans-serif" font-size="14" lengthAdjust="spacing" textLength="78.6475" x="537" y="542.6826">Date : date</text><line style="stroke:#181818;stroke-width:0.5;" x1="518" x2="682.7451" y1="549.9844" y2="549.9844"/></g><!--class Prescriptions--><g id="elem_Prescriptions"><rect codeLine="32" fill="#F1F1F1" height="145.7813" id="Prescriptions" rx="2.5" ry="2.5" style="stroke:#181818;stroke-width:0.5;" width="155.9307" x="95.5" y="420"/><ellipse cx="125.568" cy="436" fill="#ADD1B2" rx="11" ry="11" style="stroke:#181818;stroke-width:1;"/><path d="M129.6773,442 L121.9586,442 L121.9586,429.6094 L129.6773,429.6094 L129.6773,431.7656 L124.4117,431.7656 L124.4117,434.4375 L129.1773,434.4375 L129.1773,436.5938 L124.4117,436.5938 L124.4117,439.8438 L129.6773,439.8438 L129.6773,442 Z " fill="#000000"/><text fill="#000000" font-family="sans-serif" font-size="14" lengthAdjust="spacing" textLength="90.4463" x="142.9164" y="440.8467">Prescriptions</text><line style="stroke:#181818;stroke-width:0.5;" x1="96.5" x2="250.4307" y1="452" y2="452"/><ellipse cx="106.5" cy="465.6484" fill="#000000" rx="3" ry="3" style="stroke:#000000;stroke-width:1;"/><text fill="#000000" font-family="sans-serif" font-size="14" lengthAdjust="spacing" textLength="129.9307" x="115.5" y="468.9951">PrescriptionID : int</text><ellipse cx="106.5" cy="481.9453" fill="#000000" rx="3" ry="3" style="stroke:#000000;stroke-width:1;"/><text fill="#000000" font-family="sans-serif" font-size="14" lengthAdjust="spacing" textLength="93.6318" x="115.5" y="485.292">DoctorID : int</text><ellipse cx="106.5" cy="498.2422" fill="#000000" rx="3" ry="3" style="stroke:#000000;stroke-width:1;"/><text fill="#000000" font-family="sans-serif" font-size="14" lengthAdjust="spacing" textLength="96.1543" x="115.5" y="501.5889">PatientID : int</text><ellipse cx="106.5" cy="514.5391" fill="#000000" rx="3" ry="3" style="stroke:#000000;stroke-width:1;"/><text fill="#000000" font-family="sans-serif" font-size="14" lengthAdjust="spacing" textLength="129.6846" x="115.5" y="517.8857">Medicine : varchar</text><ellipse cx="106.5" cy="530.8359" fill="#000000" rx="3" ry="3" style="stroke:#000000;stroke-width:1;"/><text fill="#000000" font-family="sans-serif" font-size="14" lengthAdjust="spacing" textLength="119.8613" x="115.5" y="534.1826">Dosage : varchar</text><ellipse cx="106.5" cy="547.1328" fill="#000000" rx="3" ry="3" style="stroke:#000000;stroke-width:1;"/><text fill="#000000" font-family="sans-serif" font-size="14" lengthAdjust="spacing" textLength="78.6475" x="115.5" y="550.4795">Date : date</text><line style="stroke:#181818;stroke-width:0.5;" x1="96.5" x2="250.4307" y1="557.7813" y2="557.7813"/></g><!--class Payments--><g id="elem_Payments"><rect codeLine="41" fill="#F1F1F1" height="145.7813" id="Payments" rx="2.5" ry="2.5" style="stroke:#181818;stroke-width:0.5;" width="199.4346" x="719" y="420"/><ellipse cx="779.8604" cy="436" fill="#ADD1B2" rx="11" ry="11" style="stroke:#181818;stroke-width:1;"/><path d="M783.9697,442 L776.251,442 L776.251,429.6094 L783.9697,429.6094 L783.9697,431.7656 L778.7041,431.7656 L778.7041,434.4375 L783.4697,434.4375 L783.4697,436.5938 L778.7041,436.5938 L778.7041,439.8438 L783.9697,439.8438 L783.9697,442 Z " fill="#000000"/><text fill="#000000" font-family="sans-serif" font-size="14" lengthAdjust="spacing" textLength="69.2139" x="800.3604" y="440.8467">Payments</text><line style="stroke:#181818;stroke-width:0.5;" x1="720" x2="917.4346" y1="452" y2="452"/><ellipse cx="730" cy="465.6484" fill="#000000" rx="3" ry="3" style="stroke:#000000;stroke-width:1;"/><text fill="#000000" font-family="sans-serif" font-size="14" lengthAdjust="spacing" textLength="108.6982" x="739" y="468.9951">PaymentID : int</text><ellipse cx="730" cy="481.9453" fill="#000000" rx="3" ry="3" style="stroke:#000000;stroke-width:1;"/><text fill="#000000" font-family="sans-serif" font-size="14" lengthAdjust="spacing" textLength="96.1543" x="739" y="485.292">PatientID : int</text><ellipse cx="730" cy="498.2422" fill="#000000" rx="3" ry="3" style="stroke:#000000;stroke-width:1;"/><text fill="#000000" font-family="sans-serif" font-size="14" lengthAdjust="spacing" textLength="145.0996" x="739" y="501.5889">BillAmount : decimal</text><ellipse cx="730" cy="514.5391" fill="#000000" rx="3" ry="3" style="stroke:#000000;stroke-width:1;"/><text fill="#000000" font-family="sans-serif" font-size="14" lengthAdjust="spacing" textLength="173.4346" x="739" y="517.8857">InvoiceNumber : varchar</text><ellipse cx="730" cy="530.8359" fill="#000000" rx="3" ry="3" style="stroke:#000000;stroke-width:1;"/><text fill="#000000" font-family="sans-serif" font-size="14" lengthAdjust="spacing" textLength="140.5674" x="739" y="534.1826">PaymentDate : date</text><ellipse cx="730" cy="547.1328" fill="#000000" rx="3" ry="3" style="stroke:#000000;stroke-width:1;"/><text fill="#000000" font-family="sans-serif" font-size="14" lengthAdjust="spacing" textLength="115.4658" x="739" y="550.4795">InsuranceID : int</text><line style="stroke:#181818;stroke-width:0.5;" x1="720" x2="917.4346" y1="557.7813" y2="557.7813"/></g><!--class Pharmacy--><g id="elem_Pharmacy"><rect codeLine="50" fill="#F1F1F1" height="113.1875" id="Pharmacy" rx="2.5" ry="2.5" style="stroke:#181818;stroke-width:0.5;" width="196.9873" x="7" y="213.5"/><ellipse cx="66.3188" cy="229.5" fill="#ADD1B2" rx="11" ry="11" style="stroke:#181818;stroke-width:1;"/><path d="M70.4282,235.5 L62.7095,235.5 L62.7095,223.1094 L70.4282,223.1094 L70.4282,225.2656 L65.1626,225.2656 L65.1626,227.9375 L69.9282,227.9375 L69.9282,230.0938 L65.1626,230.0938 L65.1626,233.3438 L70.4282,233.3438 L70.4282,235.5 Z " fill="#000000"/><text fill="#000000" font-family="sans-serif" font-size="14" lengthAdjust="spacing" textLength="69.8496" x="86.8188" y="234.3467">Pharmacy</text><line style="stroke:#181818;stroke-width:0.5;" x1="8" x2="202.9873" y1="245.5" y2="245.5"/><ellipse cx="18" cy="259.1484" fill="#000000" rx="3" ry="3" style="stroke:#000000;stroke-width:1;"/><text fill="#000000" font-family="sans-serif" font-size="14" lengthAdjust="spacing" textLength="109.3203" x="27" y="262.4951">MedicineID : int</text><ellipse cx="18" cy="275.4453" fill="#000000" rx="3" ry="3" style="stroke:#000000;stroke-width:1;"/><text fill="#000000" font-family="sans-serif" font-size="14" lengthAdjust="spacing" textLength="170.9873" x="27" y="278.792">MedicineName : varchar</text><ellipse cx="18" cy="291.7422" fill="#000000" rx="3" ry="3" style="stroke:#000000;stroke-width:1;"/><text fill="#000000" font-family="sans-serif" font-size="14" lengthAdjust="spacing" textLength="92.3672" x="27" y="295.0889">Quantity : int</text><ellipse cx="18" cy="308.0391" fill="#000000" rx="3" ry="3" style="stroke:#000000;stroke-width:1;"/><text fill="#000000" font-family="sans-serif" font-size="14" lengthAdjust="spacing" textLength="103.209" x="27" y="311.3857">Price : decimal</text><line style="stroke:#181818;stroke-width:0.5;" x1="8" x2="202.9873" y1="318.6875" y2="318.6875"/></g><!--class LabReports--><g id="elem_LabReports"><rect codeLine="57" fill="#F1F1F1" height="129.4844" id="LabReports" rx="2.5" ry="2.5" style="stroke:#181818;stroke-width:0.5;" width="157.4277" x="953" y="428.5"/><ellipse cx="988.6235" cy="444.5" fill="#ADD1B2" rx="11" ry="11" style="stroke:#181818;stroke-width:1;"/><path d="M992.7329,450.5 L985.0142,450.5 L985.0142,438.1094 L992.7329,438.1094 L992.7329,440.2656 L987.4673,440.2656 L987.4673,442.9375 L992.2329,442.9375 L992.2329,445.0938 L987.4673,445.0938 L987.4673,448.3438 L992.7329,448.3438 L992.7329,450.5 Z " fill="#000000"/><text fill="#000000" font-family="sans-serif" font-size="14" lengthAdjust="spacing" textLength="79.5977" x="1007.2065" y="449.3467">LabReports</text><line style="stroke:#181818;stroke-width:0.5;" x1="954" x2="1109.4277" y1="460.5" y2="460.5"/><ellipse cx="964" cy="474.1484" fill="#000000" rx="3" ry="3" style="stroke:#000000;stroke-width:1;"/><text fill="#000000" font-family="sans-serif" font-size="14" lengthAdjust="spacing" textLength="93.8164" x="973" y="477.4951">ReportID : int</text><ellipse cx="964" cy="490.4453" fill="#000000" rx="3" ry="3" style="stroke:#000000;stroke-width:1;"/><text fill="#000000" font-family="sans-serif" font-size="14" lengthAdjust="spacing" textLength="96.1543" x="973" y="493.792">PatientID : int</text><ellipse cx="964" cy="506.7422" fill="#000000" rx="3" ry="3" style="stroke:#000000;stroke-width:1;"/><text fill="#000000" font-family="sans-serif" font-size="14" lengthAdjust="spacing" textLength="131.4277" x="973" y="510.0889">TestType : varchar</text><ellipse cx="964" cy="523.0391" fill="#000000" rx="3" ry="3" style="stroke:#000000;stroke-width:1;"/><text fill="#000000" font-family="sans-serif" font-size="14" lengthAdjust="spacing" textLength="125.6855" x="973" y="526.3857">ReportDate : date</text><ellipse cx="964" cy="539.3359" fill="#000000" rx="3" ry="3" style="stroke:#000000;stroke-width:1;"/><text fill="#000000" font-family="sans-serif" font-size="14" lengthAdjust="spacing" textLength="118.3232" x="973" y="542.6826">Results : varchar</text><line style="stroke:#181818;stroke-width:0.5;" x1="954" x2="1109.4277" y1="549.9844" y2="549.9844"/></g><!--class Users--><g id="elem_Users"><rect codeLine="65" fill="#F1F1F1" height="113.1875" id="Users" rx="2.5" ry="2.5" style="stroke:#181818;stroke-width:0.5;" width="164.7559" x="252" y="7"/><ellipse cx="310.5259" cy="23" fill="#ADD1B2" rx="11" ry="11" style="stroke:#181818;stroke-width:1;"/><path d="M314.6353,29 L306.9165,29 L306.9165,16.6094 L314.6353,16.6094 L314.6353,18.7656 L309.3696,18.7656 L309.3696,21.4375 L314.1353,21.4375 L314.1353,23.5938 L309.3696,23.5938 L309.3696,26.8438 L314.6353,26.8438 L314.6353,29 Z " fill="#000000"/><text fill="#000000" font-family="sans-serif" font-size="14" lengthAdjust="spacing" textLength="39.2041" x="331.0259" y="27.8467">Users</text><line style="stroke:#181818;stroke-width:0.5;" x1="253" x2="415.7559" y1="39" y2="39"/><ellipse cx="263" cy="52.6484" fill="#000000" rx="3" ry="3" style="stroke:#000000;stroke-width:1;"/><text fill="#000000" font-family="sans-serif" font-size="14" lengthAdjust="spacing" textLength="78.6885" x="272" y="55.9951">UserID : int</text><ellipse cx="263" cy="68.9453" fill="#000000" rx="3" ry="3" style="stroke:#000000;stroke-width:1;"/><text fill="#000000" font-family="sans-serif" font-size="14" lengthAdjust="spacing" textLength="138.7559" x="272" y="72.292">Username : varchar</text><ellipse cx="263" cy="85.2422" fill="#000000" rx="3" ry="3" style="stroke:#000000;stroke-width:1;"/><text fill="#000000" font-family="sans-serif" font-size="14" lengthAdjust="spacing" textLength="133.4102" x="272" y="88.5889">Password : varchar</text><ellipse cx="263" cy="101.5391" fill="#000000" rx="3" ry="3" style="stroke:#000000;stroke-width:1;"/><text fill="#000000" font-family="sans-serif" font-size="14" lengthAdjust="spacing" textLength="97.9385" x="272" y="104.8857">Role : varchar</text><line style="stroke:#181818;stroke-width:0.5;" x1="253" x2="415.7559" y1="112.1875" y2="112.1875"/></g><!--class Insurance--><g id="elem_Insurance"><rect fill="#F1F1F1" height="48" id="Insurance" rx="2.5" ry="2.5" style="stroke:#181818;stroke-width:0.5;" width="100.6875" x="768" y="643"/><ellipse cx="783" cy="659" fill="#ADD1B2" rx="11" ry="11" style="stroke:#181818;stroke-width:1;"/><path d="M785.9688,664.6406 Q785.3906,664.9375 784.75,665.0781 Q784.1094,665.2344 783.4063,665.2344 Q780.9063,665.2344 779.5781,663.5938 Q778.2656,661.9375 778.2656,658.8125 Q778.2656,655.6875 779.5781,654.0313 Q780.9063,652.375 783.4063,652.375 Q784.1094,652.375 784.75,652.5313 Q785.4063,652.6875 785.9688,652.9844 L785.9688,655.7031 Q785.3438,655.125 784.75,654.8594 Q784.1563,654.5781 783.5313,654.5781 Q782.1875,654.5781 781.5,655.6563 Q780.8125,656.7188 780.8125,658.8125 Q780.8125,660.9063 781.5,661.9844 Q782.1875,663.0469 783.5313,663.0469 Q784.1563,663.0469 784.75,662.7813 Q785.3438,662.5 785.9688,661.9219 L785.9688,664.6406 Z " fill="#000000"/><text fill="#000000" font-family="sans-serif" font-size="14" lengthAdjust="spacing" textLength="68.6875" x="797" y="663.8467">Insurance</text><line style="stroke:#181818;stroke-width:0.5;" x1="769" x2="867.6875" y1="675" y2="675"/><line style="stroke:#181818;stroke-width:0.5;" x1="769" x2="867.6875" y1="683" y2="683"/></g><!--link Patients to Appointments--><g id="link_Patients_Appointments"><path codeLine="73" d="M533.6297,349.1844 C519.6397,364.8944 509.96,375.24 495.5,390 C480.3,405.51 474.3142,411.5289 458.2642,426.3089 " fill="transparent" id="Patients-Appointments" style="stroke:#181818;stroke-width:1;"/><line style="stroke:#181818;stroke-width:1;" x1="533.3026" x2="539.2771" y1="343.5371" y2="348.8574"/><line style="stroke:#181818;stroke-width:1;" x1="531.3075" x2="537.2819" y1="345.7775" y2="351.0978"/><line style="stroke:#181818;stroke-width:1;" x1="533.6297" x2="538.95" y1="349.1844" y2="343.21"/><line style="stroke:#181818;stroke-width:1;" x1="455.3217" x2="447.23" y1="429.0186" y2="436.47"/><ellipse cx="455.3217" cy="429.0186" fill="transparent" rx="4" ry="4" style="stroke:#181818;stroke-width:1;"/><line style="stroke:#181818;stroke-width:1;" x1="452.8821" x2="447.4628" y1="436.7028" y2="430.8179"/><text fill="#000000" font-family="sans-serif" font-size="13" lengthAdjust="spacing" textLength="24.5146" x="511.5" y="386.0669">Has</text></g><!--link Doctors to Appointments--><g id="link_Doctors_Appointments"><path codeLine="74" d="M326.6404,334.7379 C325.5304,354.9079 326.55,369.72 331.5,390 C335.36,405.8 335.3011,408.5246 342.7511,423.0946 " fill="transparent" id="Doctors-Appointments" style="stroke:#181818;stroke-width:1;"/><line style="stroke:#181818;stroke-width:1;" x1="322.8662" x2="330.8542" y1="330.5242" y2="330.9638"/><line style="stroke:#181818;stroke-width:1;" x1="322.7014" x2="330.6893" y1="333.5196" y2="333.9592"/><line style="stroke:#181818;stroke-width:1;" x1="326.6404" x2="327.08" y1="334.7379" y2="326.75"/><line style="stroke:#181818;stroke-width:1;" x1="344.5721" x2="349.58" y1="426.6561" y2="436.45"/><ellipse cx="344.5721" cy="426.6561" fill="transparent" rx="4" ry="4" style="stroke:#181818;stroke-width:1;"/><line style="stroke:#181818;stroke-width:1;" x1="351.3204" x2="344.1975" y1="431.0675" y2="434.7096"/><text fill="#000000" font-family="sans-serif" font-size="13" lengthAdjust="spacing" textLength="58.4937" x="332.5" y="386.0669">Performs</text></g><!--link Doctors to Prescriptions--><g id="link_Doctors_Prescriptions"><path codeLine="75" d="M289.1605,333.2369 C268.5805,361.4969 256.8731,377.5566 234.8331,407.8066 " fill="transparent" id="Doctors-Prescriptions" style="stroke:#181818;stroke-width:1;"/><line style="stroke:#181818;stroke-width:1;" x1="288.2818" x2="294.7487" y1="327.6487" y2="332.3582"/><line style="stroke:#181818;stroke-width:1;" x1="286.5158" x2="292.9827" y1="330.0738" y2="334.7833"/><line style="stroke:#181818;stroke-width:1;" x1="289.1605" x2="293.87" y1="333.2369" y2="326.77"/><line style="stroke:#181818;stroke-width:1;" x1="232.4776" x2="226" y1="411.0395" y2="419.93"/><ellipse cx="232.4776" cy="411.0395" fill="transparent" rx="4" ry="4" style="stroke:#181818;stroke-width:1;"/><line style="stroke:#181818;stroke-width:1;" x1="231.5884" x2="225.1226" y1="419.0526" y2="414.3416"/><text fill="#000000" font-family="sans-serif" font-size="13" lengthAdjust="spacing" textLength="41.6787" x="260.5" y="386.0669">Writes</text></g><!--link Patients to Prescriptions--><g id="link_Patients_Prescriptions"><path codeLine="76" d="M518.9825,319.0527 C463.3125,351.7627 402.58,387.17 395.5,390 C342.04,411.34 321.62,395.55 269.5,420 C263.46,422.83 270.3387,418.4234 264.4087,421.9434 " fill="transparent" id="Patients-Prescriptions" style="stroke:#181818;stroke-width:1;"/><line style="stroke:#181818;stroke-width:1;" x1="520.4049" x2="524.4576" y1="313.5776" y2="320.4751"/><line style="stroke:#181818;stroke-width:1;" x1="517.8183" x2="521.8711" y1="315.0974" y2="321.9949"/><line style="stroke:#181818;stroke-width:1;" x1="518.9825" x2="525.88" y1="319.0527" y2="315"/><line style="stroke:#181818;stroke-width:1;" x1="260.9691" x2="251.51" y1="423.9852" y2="429.6"/><ellipse cx="260.9691" cy="423.9852" fill="transparent" rx="4" ry="4" style="stroke:#181818;stroke-width:1;"/><line style="stroke:#181818;stroke-width:1;" x1="256.9914" x2="252.9079" y1="430.9979" y2="424.1186"/><text fill="#000000" font-family="sans-serif" font-size="13" lengthAdjust="spacing" textLength="58.2524" x="427.5" y="386.0669">Receives</text></g><!--link Patients to MedicalRecords--><g id="link_Patients_MedicalRecords"><path codeLine="77" d="M600.5,351.06 C600.5,378.52 600.5,386.6 600.5,413.23 " fill="transparent" id="Patients-MedicalRecords" style="stroke:#181818;stroke-width:1;"/><line style="stroke:#181818;stroke-width:1;" x1="596.5" x2="604.5" y1="347.06" y2="347.06"/><line style="stroke:#181818;stroke-width:1;" x1="596.5" x2="604.5" y1="350.06" y2="350.06"/><line style="stroke:#181818;stroke-width:1;" x1="600.5" x2="600.5" y1="351.06" y2="343.06"/><line style="stroke:#181818;stroke-width:1;" x1="600.5" x2="600.5" y1="417.23" y2="428.23"/><ellipse cx="600.5" cy="417.23" fill="transparent" rx="4" ry="4" style="stroke:#181818;stroke-width:1;"/><line style="stroke:#181818;stroke-width:1;" x1="604.5" x2="596.5" y1="424.23" y2="424.23"/><text fill="#000000" font-family="sans-serif" font-size="13" lengthAdjust="spacing" textLength="24.5146" x="601.5" y="386.0669">Has</text></g><!--link Patients to Payments--><g id="link_Patients_Payments"><path codeLine="78" d="M677.1985,348.755 C701.4285,373.315 712.3553,384.402 736.6053,408.982 " fill="transparent" id="Patients-Payments" style="stroke:#181818;stroke-width:1;"/><line style="stroke:#181818;stroke-width:1;" x1="671.5417" x2="677.2367" y1="348.7167" y2="343.0983"/><line style="stroke:#181818;stroke-width:1;" x1="673.6487" x2="679.3436" y1="350.8523" y2="345.2339"/><line style="stroke:#181818;stroke-width:1;" x1="677.1985" x2="671.58" y1="348.755" y2="343.06"/><line style="stroke:#181818;stroke-width:1;" x1="739.4146" x2="747.14" y1="411.8294" y2="419.66"/><ellipse cx="739.4146" cy="411.8294" fill="transparent" rx="4" ry="4" style="stroke:#181818;stroke-width:1;"/><line style="stroke:#181818;stroke-width:1;" x1="747.1782" x2="741.4833" y1="414.0033" y2="419.6218"/><text fill="#000000" font-family="sans-serif" font-size="13" lengthAdjust="spacing" textLength="41.4819" x="717.5" y="386.0669">Makes</text></g><!--link Patients to LabReports--><g id="link_Patients_LabReports"><path codeLine="79" d="M682.5081,301.4542 C752.0081,328.4242 850.01,369.8 935.5,420 C941.25,423.38 934.5526,418.7496 940.3226,422.5696 " fill="transparent" id="Patients-LabReports" style="stroke:#181818;stroke-width:1;"/><line style="stroke:#181818;stroke-width:1;" x1="677.332" x2="680.2262" y1="303.7362" y2="296.278"/><line style="stroke:#181818;stroke-width:1;" x1="680.1288" x2="683.023" y1="304.8215" y2="297.3633"/><line style="stroke:#181818;stroke-width:1;" x1="682.5081" x2="675.05" y1="301.4542" y2="298.56"/><line style="stroke:#181818;stroke-width:1;" x1="943.6579" x2="952.83" y1="424.7777" y2="430.85"/><ellipse cx="943.6579" cy="424.7777" fill="transparent" rx="4" ry="4" style="stroke:#181818;stroke-width:1;"/><line style="stroke:#181818;stroke-width:1;" x1="951.7028" x2="947.2866" y1="425.3066" y2="431.9772"/><text fill="#000000" font-family="sans-serif" font-size="13" lengthAdjust="spacing" textLength="24.5146" x="875.5" y="386.0669">Has</text></g><!--link Pharmacy to Prescriptions--><g id="link_Pharmacy_Prescriptions"><path codeLine="80" d="M113.5377,334.4089 C116.7877,354.6589 120.14,369.68 126.5,390 C129.59,399.86 127.6467,396.1614 131.7667,406.0614 " fill="transparent" id="Pharmacy-Prescriptions" style="stroke:#181818;stroke-width:1;"/><line style="stroke:#181818;stroke-width:1;" x1="108.9544" x2="116.8533" y1="331.0933" y2="329.8256"/><line style="stroke:#181818;stroke-width:1;" x1="109.4298" x2="117.3287" y1="334.0554" y2="332.7877"/><line style="stroke:#181818;stroke-width:1;" x1="113.5377" x2="112.27" y1="334.4089" y2="326.51"/><line style="stroke:#181818;stroke-width:1;" x1="133.3036" x2="137.53" y1="409.7543" y2="419.91"/><ellipse cx="133.3036" cy="409.7543" fill="transparent" rx="4" ry="4" style="stroke:#181818;stroke-width:1;"/><line style="stroke:#181818;stroke-width:1;" x1="139.6861" x2="132.3002" y1="414.6802" y2="417.7539"/><text fill="#000000" font-family="sans-serif" font-size="13" lengthAdjust="spacing" textLength="56.9575" x="127.5" y="386.0669">Contains</text></g><!--link Payments to Insurance--><g id="link_Payments_Insurance"><path codeLine="81" d="M818.5,574.44 C818.5,601.8 818.5,608.04 818.5,627.7 " fill="transparent" id="Payments-Insurance" style="stroke:#181818;stroke-width:1;"/><line style="stroke:#181818;stroke-width:1;" x1="814.5" x2="822.5" y1="570.44" y2="570.44"/><line style="stroke:#181818;stroke-width:1;" x1="814.5" x2="822.5" y1="573.44" y2="573.44"/><line style="stroke:#181818;stroke-width:1;" x1="818.5" x2="818.5" y1="574.44" y2="566.44"/><line style="stroke:#181818;stroke-width:1;" x1="818.5" x2="818.5" y1="631.7" y2="642.7"/><ellipse cx="818.5" cy="631.7" fill="transparent" rx="4" ry="4" style="stroke:#181818;stroke-width:1;"/><line style="stroke:#181818;stroke-width:1;" x1="822.5" x2="814.5" y1="638.7" y2="638.7"/><text fill="#000000" font-family="sans-serif" font-size="13" lengthAdjust="spacing" textLength="86.8232" x="819.5" y="609.0669">Processed By</text></g><!--link Users to Doctors--><g id="link_Users_Doctors"><path codeLine="82" d="M334.5,128.11 C334.5,157.09 334.5,169.43 334.5,198.4 " fill="transparent" id="Users-Doctors" style="stroke:#181818;stroke-width:1;"/><line style="stroke:#181818;stroke-width:1;" x1="330.5" x2="338.5" y1="124.11" y2="124.11"/><line style="stroke:#181818;stroke-width:1;" x1="330.5" x2="338.5" y1="127.11" y2="127.11"/><line style="stroke:#181818;stroke-width:1;" x1="334.5" x2="334.5" y1="128.11" y2="120.11"/><line style="stroke:#181818;stroke-width:1;" x1="334.5" x2="334.5" y1="202.4" y2="213.4"/><ellipse cx="334.5" cy="202.4" fill="transparent" rx="4" ry="4" style="stroke:#181818;stroke-width:1;"/><line style="stroke:#181818;stroke-width:1;" x1="338.5" x2="330.5" y1="209.4" y2="209.4"/><text fill="#000000" font-family="sans-serif" font-size="13" lengthAdjust="spacing" textLength="58.4111" x="335.5" y="163.0669">Manages</text></g><!--SRC=[ZLJBRjim4BphAmXT0XJ83-Jcn0Lge0bKnqNE6sfh4-L382a7Qfr_BqMHAaKnZvEqez7kx72NA2sp0waRi0obDJK1Gs90_bQ4V8dXRajk29FMOmyWq8LdqFG4saER8oQ4EoKjK9jpsbQZCHdwLG3Z2VPQLHXqRRfEkPHYrfO2GLy2BJGc-1RiAAvr3_zfgwXLUi7Ekqn4JEofVdWFfGjv2iuyTaWPSFR7bL0o_qXFsFOSo_tVOyiey3rIfTj9mH8AGgRetOQyNWP7gGpBJ-2W4RnH6PxwbgXgt25IpRgndJ0oAHBd9i6MAZvsVyHyeqpcRcwLWID-KYWC8XdhGIp6UbYDJ4d6BUDy8rJlpMdTIGhW_iDEdXMZ-D2BPzIPdf0ydxkTDBq6IR4qPetxMG0T9h4X26AZ5qM32YFteuSfQzARTcAJ5fBAt-5vZvtImQZ_uJnTO_IXKmSqzZ1qkPRfxzoAFPgUMrCU-vy6mxxvjo1ZV5yK706vRhu1OrxSEkGwLBvbLqu5zqjfJgmprNpnNIxNr-gol6nkIFqDJ5t56-0DJeFwbz9YJLokY6C-QMRHyVAgAw9RRcJd4ZMx2wB4LSOu-Ovm3xzBcP8pdxF44NnBbx_ZcVJPGe50dUVSEw8LTPS-jkHsgAlfG0ClMkHrIRVMflu7]--></g></svg>