<svg xmlns="http://www.w3.org/2000/svg" xmlns:xlink="http://www.w3.org/1999/xlink" contentStyleType="text/css" data-diagram-type="ACTIVITY" height="352px" preserveAspectRatio="none" style="width:287px;height:352px;background:#FFFFFF;" version="1.1" viewBox="0 0 287 352" width="287px" zoomAndPan="magnify"><defs/><g><ellipse cx="143.7803" cy="20" fill="#222222" rx="10" ry="10" style="stroke:#222222;stroke-width:1;"/><rect fill="#F1F1F1" height="33.9688" rx="12.5" ry="12.5" style="stroke:#181818;stroke-width:0.5;" width="265.5605" x="11" y="50"/><text fill="#000000" font-family="sans-serif" font-size="12" lengthAdjust="spacing" textLength="245.5605" x="21" y="71.1387">Doctor Reviews Patient's Medical History</text><rect fill="#F1F1F1" height="33.9688" rx="12.5" ry="12.5" style="stroke:#181818;stroke-width:0.5;" width="192.8926" x="47.334" y="103.9688"/><text fill="#000000" font-family="sans-serif" font-size="12" lengthAdjust="spacing" textLength="172.8926" x="57.334" y="125.1074">Diagnose Patient's Condition</text><rect fill="#F1F1F1" height="33.9688" rx="12.5" ry="12.5" style="stroke:#181818;stroke-width:0.5;" width="196.0391" x="45.7607" y="157.9375"/><text fill="#000000" font-family="sans-serif" font-size="12" lengthAdjust="spacing" textLength="176.0391" x="55.7607" y="179.0762">Select Medicines to Prescribe</text><rect fill="#F1F1F1" height="33.9688" rx="12.5" ry="12.5" style="stroke:#181818;stroke-width:0.5;" width="151.1328" x="68.2139" y="211.9063"/><text fill="#000000" font-family="sans-serif" font-size="12" lengthAdjust="spacing" textLength="131.1328" x="78.2139" y="233.0449">Generate Prescription</text><rect fill="#F1F1F1" height="33.9688" rx="12.5" ry="12.5" style="stroke:#181818;stroke-width:0.5;" width="200.6152" x="43.4727" y="265.875"/><text fill="#000000" font-family="sans-serif" font-size="12" lengthAdjust="spacing" textLength="180.6152" x="53.4727" y="287.0137">Record Prescription in System</text><ellipse cx="143.7803" cy="330.8438" fill="transparent" rx="11" ry="11" style="stroke:#222222;stroke-width:1;"/><ellipse cx="143.7803" cy="330.8438" fill="#222222" rx="6" ry="6" style="stroke:#222222;stroke-width:1;"/><line style="stroke:#181818;stroke-width:1;" x1="143.7803" x2="143.7803" y1="30" y2="50"/><polygon fill="#181818" points="139.7803,40,143.7803,50,147.7803,40,143.7803,44" style="stroke:#181818;stroke-width:1;"/><line style="stroke:#181818;stroke-width:1;" x1="143.7803" x2="143.7803" y1="83.9688" y2="103.9688"/><polygon fill="#181818" points="139.7803,93.9688,143.7803,103.9688,147.7803,93.9688,143.7803,97.9688" style="stroke:#181818;stroke-width:1;"/><line style="stroke:#181818;stroke-width:1;" x1="143.7803" x2="143.7803" y1="137.9375" y2="157.9375"/><polygon fill="#181818" points="139.7803,147.9375,143.7803,157.9375,147.7803,147.9375,143.7803,151.9375" style="stroke:#181818;stroke-width:1;"/><line style="stroke:#181818;stroke-width:1;" x1="143.7803" x2="143.7803" y1="191.9063" y2="211.9063"/><polygon fill="#181818" points="139.7803,201.9063,143.7803,211.9063,147.7803,201.9063,143.7803,205.9063" style="stroke:#181818;stroke-width:1;"/><line style="stroke:#181818;stroke-width:1;" x1="143.7803" x2="143.7803" y1="245.875" y2="265.875"/><polygon fill="#181818" points="139.7803,255.875,143.7803,265.875,147.7803,255.875,143.7803,259.875" style="stroke:#181818;stroke-width:1;"/><line style="stroke:#181818;stroke-width:1;" x1="143.7803" x2="143.7803" y1="299.8438" y2="319.8438"/><polygon fill="#181818" points="139.7803,309.8438,143.7803,319.8438,147.7803,309.8438,143.7803,313.8438" style="stroke:#181818;stroke-width:1;"/><!--SRC=[LOr12i9034NtFKLsti4k5Un6AEq9niod16fIag3qzWweeDltt-D75i_kU3PESvhm43o3nf82pKFG5LMuh3H8D67lcofbKGlyI2VJAYccRPwnWlFTYI8eZKP7iCiDRRz0uINnXTkdcy3czO-IACrx9Evzrzwt5m00]--></g></svg>