<svg xmlns="http://www.w3.org/2000/svg" xmlns:xlink="http://www.w3.org/1999/xlink" contentStyleType="text/css" data-diagram-type="ACTIVITY" height="524px" preserveAspectRatio="none" style="width:428px;height:524px;background:#FFFFFF;" version="1.1" viewBox="0 0 428 524" width="428px" zoomAndPan="magnify"><defs/><g><ellipse cx="201.0386" cy="20" fill="#222222" rx="10" ry="10" style="stroke:#222222;stroke-width:1;"/><rect fill="#F1F1F1" height="33.9688" rx="12.5" ry="12.5" style="stroke:#181818;stroke-width:0.5;" width="137.791" x="132.1431" y="50"/><text fill="#000000" font-family="sans-serif" font-size="12" lengthAdjust="spacing" textLength="117.791" x="142.1431" y="71.1387">Patient Reviews Bill</text><rect fill="#F1F1F1" height="33.9688" rx="12.5" ry="12.5" style="stroke:#181818;stroke-width:0.5;" width="315.998" x="43.0396" y="103.9688"/><text fill="#000000" font-family="sans-serif" font-size="12" lengthAdjust="spacing" textLength="295.998" x="53.0396" y="125.1074">Select Payment Method (Insurance / Cash / Card)</text><polygon fill="#F1F1F1" points="116.5432,157.9375,285.5339,157.9375,297.5339,169.9375,285.5339,181.9375,116.5432,181.9375,104.5432,169.9375,116.5432,157.9375" style="stroke:#181818;stroke-width:0.5;"/><text fill="#000000" font-family="sans-serif" font-size="11" lengthAdjust="spacing" textLength="168.9907" x="116.5432" y="173.7456">Payment Method is Insurance?</text><text fill="#000000" font-family="sans-serif" font-size="11" lengthAdjust="spacing" textLength="19.0083" x="85.5349" y="167.3433">yes</text><text fill="#000000" font-family="sans-serif" font-size="11" lengthAdjust="spacing" textLength="13.7017" x="297.5339" y="167.3433">no</text><rect fill="#F1F1F1" height="33.9688" rx="12.5" ry="12.5" style="stroke:#181818;stroke-width:0.5;" width="166.5898" x="11" y="191.9375"/><text fill="#000000" font-family="sans-serif" font-size="12" lengthAdjust="spacing" textLength="146.5898" x="21" y="213.0762">Process Insurance Claim</text><rect fill="#F1F1F1" height="33.9688" rx="12.5" ry="12.5" style="stroke:#181818;stroke-width:0.5;" width="116.4922" x="36.0488" y="245.9063"/><text fill="#000000" font-family="sans-serif" font-size="12" lengthAdjust="spacing" textLength="96.4922" x="46.0488" y="267.0449">Verify Coverage</text><rect fill="#F1F1F1" height="33.9688" rx="12.5" ry="12.5" style="stroke:#181818;stroke-width:0.5;" width="124.3965" x="32.0967" y="299.875"/><text fill="#000000" font-family="sans-serif" font-size="12" lengthAdjust="spacing" textLength="104.3965" x="42.0967" y="321.0137">Confirm Payment</text><rect fill="#F1F1F1" height="33.9688" rx="12.5" ry="12.5" style="stroke:#181818;stroke-width:0.5;" width="220.3848" x="197.5898" y="191.9375"/><text fill="#000000" font-family="sans-serif" font-size="12" lengthAdjust="spacing" textLength="200.3848" x="207.5898" y="213.0762">Proceed with Cash/Card Payment</text><rect fill="#F1F1F1" height="33.9688" rx="12.5" ry="12.5" style="stroke:#181818;stroke-width:0.5;" width="124.3965" x="245.584" y="245.9063"/><text fill="#000000" font-family="sans-serif" font-size="12" lengthAdjust="spacing" textLength="104.3965" x="255.584" y="267.0449">Confirm Payment</text><polygon fill="#F1F1F1" points="201.0386,339.8438,213.0386,351.8438,201.0386,363.8438,189.0386,351.8438,201.0386,339.8438" style="stroke:#181818;stroke-width:0.5;"/><rect fill="#F1F1F1" height="33.9688" rx="12.5" ry="12.5" style="stroke:#181818;stroke-width:0.5;" width="182.1055" x="109.9858" y="383.8438"/><text fill="#000000" font-family="sans-serif" font-size="12" lengthAdjust="spacing" textLength="162.1055" x="119.9858" y="404.9824">Generate Payment Receipt</text><rect fill="#F1F1F1" height="33.9688" rx="12.5" ry="12.5" style="stroke:#181818;stroke-width:0.5;" width="172.625" x="114.7261" y="437.8125"/><text fill="#000000" font-family="sans-serif" font-size="12" lengthAdjust="spacing" textLength="152.625" x="124.7261" y="458.9512">Update Payment Records</text><ellipse cx="201.0386" cy="502.7813" fill="transparent" rx="11" ry="11" style="stroke:#222222;stroke-width:1;"/><ellipse cx="201.0386" cy="502.7813" fill="#222222" rx="6" ry="6" style="stroke:#222222;stroke-width:1;"/><line style="stroke:#181818;stroke-width:1;" x1="201.0386" x2="201.0386" y1="30" y2="50"/><polygon fill="#181818" points="197.0386,40,201.0386,50,205.0386,40,201.0386,44" style="stroke:#181818;stroke-width:1;"/><line style="stroke:#181818;stroke-width:1;" x1="201.0386" x2="201.0386" y1="83.9688" y2="103.9688"/><polygon fill="#181818" points="197.0386,93.9688,201.0386,103.9688,205.0386,93.9688,201.0386,97.9688" style="stroke:#181818;stroke-width:1;"/><line style="stroke:#181818;stroke-width:1;" x1="94.2949" x2="94.2949" y1="225.9063" y2="245.9063"/><polygon fill="#181818" points="90.2949,235.9063,94.2949,245.9063,98.2949,235.9063,94.2949,239.9063" style="stroke:#181818;stroke-width:1;"/><line style="stroke:#181818;stroke-width:1;" x1="94.2949" x2="94.2949" y1="279.875" y2="299.875"/><polygon fill="#181818" points="90.2949,289.875,94.2949,299.875,98.2949,289.875,94.2949,293.875" style="stroke:#181818;stroke-width:1;"/><line style="stroke:#181818;stroke-width:1;" x1="307.7822" x2="307.7822" y1="225.9063" y2="245.9063"/><polygon fill="#181818" points="303.7822,235.9063,307.7822,245.9063,311.7822,235.9063,307.7822,239.9063" style="stroke:#181818;stroke-width:1;"/><line style="stroke:#181818;stroke-width:1;" x1="104.5432" x2="94.2949" y1="169.9375" y2="169.9375"/><line style="stroke:#181818;stroke-width:1;" x1="94.2949" x2="94.2949" y1="169.9375" y2="191.9375"/><polygon fill="#181818" points="90.2949,181.9375,94.2949,191.9375,98.2949,181.9375,94.2949,185.9375" style="stroke:#181818;stroke-width:1;"/><line style="stroke:#181818;stroke-width:1;" x1="297.5339" x2="307.7822" y1="169.9375" y2="169.9375"/><line style="stroke:#181818;stroke-width:1;" x1="307.7822" x2="307.7822" y1="169.9375" y2="191.9375"/><polygon fill="#181818" points="303.7822,181.9375,307.7822,191.9375,311.7822,181.9375,307.7822,185.9375" style="stroke:#181818;stroke-width:1;"/><line style="stroke:#181818;stroke-width:1;" x1="94.2949" x2="94.2949" y1="333.8438" y2="351.8438"/><line style="stroke:#181818;stroke-width:1;" x1="94.2949" x2="189.0386" y1="351.8438" y2="351.8438"/><polygon fill="#181818" points="179.0386,347.8438,189.0386,351.8438,179.0386,355.8438,183.0386,351.8438" style="stroke:#181818;stroke-width:1;"/><line style="stroke:#181818;stroke-width:1;" x1="307.7822" x2="307.7822" y1="279.875" y2="351.8438"/><line style="stroke:#181818;stroke-width:1;" x1="307.7822" x2="213.0386" y1="351.8438" y2="351.8438"/><polygon fill="#181818" points="223.0386,347.8438,213.0386,351.8438,223.0386,355.8438,219.0386,351.8438" style="stroke:#181818;stroke-width:1;"/><line style="stroke:#181818;stroke-width:1;" x1="201.0386" x2="201.0386" y1="137.9375" y2="157.9375"/><polygon fill="#181818" points="197.0386,147.9375,201.0386,157.9375,205.0386,147.9375,201.0386,151.9375" style="stroke:#181818;stroke-width:1;"/><line style="stroke:#181818;stroke-width:1;" x1="201.0386" x2="201.0386" y1="363.8438" y2="383.8438"/><polygon fill="#181818" points="197.0386,373.8438,201.0386,383.8438,205.0386,373.8438,201.0386,377.8438" style="stroke:#181818;stroke-width:1;"/><line style="stroke:#181818;stroke-width:1;" x1="201.0386" x2="201.0386" y1="417.8125" y2="437.8125"/><polygon fill="#181818" points="197.0386,427.8125,201.0386,437.8125,205.0386,427.8125,201.0386,431.8125" style="stroke:#181818;stroke-width:1;"/><line style="stroke:#181818;stroke-width:1;" x1="201.0386" x2="201.0386" y1="471.7813" y2="491.7813"/><polygon fill="#181818" points="197.0386,481.7813,201.0386,491.7813,205.0386,481.7813,201.0386,485.7813" style="stroke:#181818;stroke-width:1;"/><!--SRC=[RO-xYiCm44LxVSMKTfLUAXRY8conOB9iUc5ThmTaoMXcO_ptiGrv4BOQc7EuSqVK5pMszSf8IcTS6RFGaMDqnduZebDg_J9kz0iwv43LPvA_ubC7Eb3ZPTX72RKpt5FrPhFGm_-eIGSagXP8ROXiMt87UJ6eYPv7jx4B2lSBDVcAud-nxvgSUYxZlP4pY0AgKdwc8T3CEkp53bkjf_nlG0hS6tj2Mgye7h-UqO6dLR0_KtW3kGHnHZHFDm00]--></g></svg>