<svg xmlns="http://www.w3.org/2000/svg" xmlns:xlink="http://www.w3.org/1999/xlink" contentStyleType="text/css" data-diagram-type="ACTIVITY" height="406px" preserveAspectRatio="none" style="width:283px;height:406px;background:#FFFFFF;" version="1.1" viewBox="0 0 283 406" width="283px" zoomAndPan="magnify"><defs/><g><ellipse cx="141.7119" cy="20" fill="#222222" rx="10" ry="10" style="stroke:#222222;stroke-width:1;"/><rect fill="#F1F1F1" height="33.9688" rx="12.5" ry="12.5" style="stroke:#181818;stroke-width:0.5;" width="165.5293" x="58.9473" y="50"/><text fill="#000000" font-family="sans-serif" font-size="12" lengthAdjust="spacing" textLength="145.5293" x="68.9473" y="71.1387">Admin Logs into System</text><rect fill="#F1F1F1" height="33.9688" rx="12.5" ry="12.5" style="stroke:#181818;stroke-width:0.5;" width="214.9121" x="34.2559" y="103.9688"/><text fill="#000000" font-family="sans-serif" font-size="12" lengthAdjust="spacing" textLength="194.9121" x="44.2559" y="125.1074">Select User Management Option</text><rect fill="#F1F1F1" height="33.9688" rx="12.5" ry="12.5" style="stroke:#181818;stroke-width:0.5;" width="182.2754" x="50.5742" y="157.9375"/><text fill="#000000" font-family="sans-serif" font-size="12" lengthAdjust="spacing" textLength="162.2754" x="60.5742" y="179.0762">Create/Update/Delete User</text><rect fill="#F1F1F1" height="33.9688" rx="12.5" ry="12.5" style="stroke:#181818;stroke-width:0.5;" width="261.4238" x="11" y="211.9063"/><text fill="#000000" font-family="sans-serif" font-size="12" lengthAdjust="spacing" textLength="241.4238" x="21" y="233.0449">Assign Roles (Doctor, Receptionist, etc.)</text><rect fill="#F1F1F1" height="33.9688" rx="12.5" ry="12.5" style="stroke:#181818;stroke-width:0.5;" width="126.0371" x="78.6934" y="265.875"/><text fill="#000000" font-family="sans-serif" font-size="12" lengthAdjust="spacing" textLength="106.0371" x="88.6934" y="287.0137">Save User Details</text><rect fill="#F1F1F1" height="33.9688" rx="12.5" ry="12.5" style="stroke:#181818;stroke-width:0.5;" width="206.9082" x="38.2578" y="319.8438"/><text fill="#000000" font-family="sans-serif" font-size="12" lengthAdjust="spacing" textLength="186.9082" x="48.2578" y="340.9824">Notify User of Role Assignment</text><ellipse cx="141.7119" cy="384.8125" fill="transparent" rx="11" ry="11" style="stroke:#222222;stroke-width:1;"/><ellipse cx="141.7119" cy="384.8125" fill="#222222" rx="6" ry="6" style="stroke:#222222;stroke-width:1;"/><line style="stroke:#181818;stroke-width:1;" x1="141.7119" x2="141.7119" y1="30" y2="50"/><polygon fill="#181818" points="137.7119,40,141.7119,50,145.7119,40,141.7119,44" style="stroke:#181818;stroke-width:1;"/><line style="stroke:#181818;stroke-width:1;" x1="141.7119" x2="141.7119" y1="83.9688" y2="103.9688"/><polygon fill="#181818" points="137.7119,93.9688,141.7119,103.9688,145.7119,93.9688,141.7119,97.9688" style="stroke:#181818;stroke-width:1;"/><line style="stroke:#181818;stroke-width:1;" x1="141.7119" x2="141.7119" y1="137.9375" y2="157.9375"/><polygon fill="#181818" points="137.7119,147.9375,141.7119,157.9375,145.7119,147.9375,141.7119,151.9375" style="stroke:#181818;stroke-width:1;"/><line style="stroke:#181818;stroke-width:1;" x1="141.7119" x2="141.7119" y1="191.9063" y2="211.9063"/><polygon fill="#181818" points="137.7119,201.9063,141.7119,211.9063,145.7119,201.9063,141.7119,205.9063" style="stroke:#181818;stroke-width:1;"/><line style="stroke:#181818;stroke-width:1;" x1="141.7119" x2="141.7119" y1="245.875" y2="265.875"/><polygon fill="#181818" points="137.7119,255.875,141.7119,265.875,145.7119,255.875,141.7119,259.875" style="stroke:#181818;stroke-width:1;"/><line style="stroke:#181818;stroke-width:1;" x1="141.7119" x2="141.7119" y1="299.8438" y2="319.8438"/><polygon fill="#181818" points="137.7119,309.8438,141.7119,319.8438,145.7119,309.8438,141.7119,313.8438" style="stroke:#181818;stroke-width:1;"/><line style="stroke:#181818;stroke-width:1;" x1="141.7119" x2="141.7119" y1="353.8125" y2="373.8125"/><polygon fill="#181818" points="137.7119,363.8125,141.7119,373.8125,145.7119,363.8125,141.7119,367.8125" style="stroke:#181818;stroke-width:1;"/><!--SRC=[9Kux2eD05EmznIiJaAJNIcAP3oWUO5b7MT1zicy8vFPPjHgOlz4b5bKphY7AKsUJ4AdI_unOwwBgiS1J1aEIbujknef8-MmC6hF-I734VTZ67Thi9WvtrXgpC4VfT879fLLFJQLqy3ZImLWAw6_NVSTzpvoqe0kBPUwj3DFlP7KwUkJit3_KXL6tFm00]--></g></svg>