<svg xmlns="http://www.w3.org/2000/svg" xmlns:xlink="http://www.w3.org/1999/xlink" contentStyleType="text/css" data-diagram-type="ACTIVITY" height="352px" preserveAspectRatio="none" style="width:258px;height:352px;background:#FFFFFF;" version="1.1" viewBox="0 0 258 352" width="258px" zoomAndPan="magnify"><defs/><g><ellipse cx="129.3457" cy="20" fill="#222222" rx="10" ry="10" style="stroke:#222222;stroke-width:1;"/><rect fill="#F1F1F1" height="33.9688" rx="12.5" ry="12.5" style="stroke:#181818;stroke-width:0.5;" width="167.2344" x="45.7285" y="50"/><text fill="#000000" font-family="sans-serif" font-size="12" lengthAdjust="spacing" textLength="147.2344" x="55.7285" y="71.1387">Doctor Logs into System</text><rect fill="#F1F1F1" height="33.9688" rx="12.5" ry="12.5" style="stroke:#181818;stroke-width:0.5;" width="103.1563" x="77.7676" y="103.9688"/><text fill="#000000" font-family="sans-serif" font-size="12" lengthAdjust="spacing" textLength="83.1563" x="87.7676" y="125.1074">Select Patient</text><rect fill="#F1F1F1" height="33.9688" rx="12.5" ry="12.5" style="stroke:#181818;stroke-width:0.5;" width="215.334" x="21.6787" y="157.9375"/><text fill="#000000" font-family="sans-serif" font-size="12" lengthAdjust="spacing" textLength="195.334" x="31.6787" y="179.0762">Review Patient's Medical History</text><rect fill="#F1F1F1" height="33.9688" rx="12.5" ry="12.5" style="stroke:#181818;stroke-width:0.5;" width="199.6953" x="29.498" y="211.9063"/><text fill="#000000" font-family="sans-serif" font-size="12" lengthAdjust="spacing" textLength="179.6953" x="39.498" y="233.0449">Review Previous Prescriptions</text><rect fill="#F1F1F1" height="33.9688" rx="12.5" ry="12.5" style="stroke:#181818;stroke-width:0.5;" width="236.6914" x="11" y="265.875"/><text fill="#000000" font-family="sans-serif" font-size="12" lengthAdjust="spacing" textLength="216.6914" x="21" y="287.0137">Update Medical Record if Necessary</text><ellipse cx="129.3457" cy="330.8438" fill="transparent" rx="11" ry="11" style="stroke:#222222;stroke-width:1;"/><ellipse cx="129.3457" cy="330.8438" fill="#222222" rx="6" ry="6" style="stroke:#222222;stroke-width:1;"/><line style="stroke:#181818;stroke-width:1;" x1="129.3457" x2="129.3457" y1="30" y2="50"/><polygon fill="#181818" points="125.3457,40,129.3457,50,133.3457,40,129.3457,44" style="stroke:#181818;stroke-width:1;"/><line style="stroke:#181818;stroke-width:1;" x1="129.3457" x2="129.3457" y1="83.9688" y2="103.9688"/><polygon fill="#181818" points="125.3457,93.9688,129.3457,103.9688,133.3457,93.9688,129.3457,97.9688" style="stroke:#181818;stroke-width:1;"/><line style="stroke:#181818;stroke-width:1;" x1="129.3457" x2="129.3457" y1="137.9375" y2="157.9375"/><polygon fill="#181818" points="125.3457,147.9375,129.3457,157.9375,133.3457,147.9375,129.3457,151.9375" style="stroke:#181818;stroke-width:1;"/><line style="stroke:#181818;stroke-width:1;" x1="129.3457" x2="129.3457" y1="191.9063" y2="211.9063"/><polygon fill="#181818" points="125.3457,201.9063,129.3457,211.9063,133.3457,201.9063,129.3457,205.9063" style="stroke:#181818;stroke-width:1;"/><line style="stroke:#181818;stroke-width:1;" x1="129.3457" x2="129.3457" y1="245.875" y2="265.875"/><polygon fill="#181818" points="125.3457,255.875,129.3457,265.875,133.3457,255.875,129.3457,259.875" style="stroke:#181818;stroke-width:1;"/><line style="stroke:#181818;stroke-width:1;" x1="129.3457" x2="129.3457" y1="299.8438" y2="319.8438"/><polygon fill="#181818" points="125.3457,309.8438,129.3457,319.8438,133.3457,309.8438,129.3457,313.8438" style="stroke:#181818;stroke-width:1;"/><!--SRC=[JOmx3i9034JxdC8TTmWj1GL1A147iBmJP2ciLsj3bDkpAK1KCvhFy-0QNNyo2QjqiOUJvZ2QDWyyZrq_OO44tJWKELemugrOly71QK1IuONEwesn_KrgKtlvRbogbb3BtlfxIHpu7KU8rKGwqnK2TzuXZLK-]--></g></svg>