<svg xmlns="http://www.w3.org/2000/svg" xmlns:xlink="http://www.w3.org/1999/xlink" contentStyleType="text/css" data-diagram-type="ACTIVITY" height="416px" preserveAspectRatio="none" style="width:384px;height:416px;background:#FFFFFF;" version="1.1" viewBox="0 0 384 416" width="384px" zoomAndPan="magnify"><defs/><g><ellipse cx="206.3442" cy="20" fill="#222222" rx="10" ry="10" style="stroke:#222222;stroke-width:1;"/><rect fill="#F1F1F1" height="33.9688" rx="12.5" ry="12.5" style="stroke:#181818;stroke-width:0.5;" width="143.7617" x="134.4634" y="50"/><text fill="#000000" font-family="sans-serif" font-size="12" lengthAdjust="spacing" textLength="123.7617" x="144.4634" y="71.1387">Enter Patient Details</text><rect fill="#F1F1F1" height="33.9688" rx="12.5" ry="12.5" style="stroke:#181818;stroke-width:0.5;" width="188.9141" x="111.8872" y="103.9688"/><text fill="#000000" font-family="sans-serif" font-size="12" lengthAdjust="spacing" textLength="168.9141" x="121.8872" y="125.1074">Validate Patient Information</text><polygon fill="#F1F1F1" points="156.0627,157.9375,256.6257,157.9375,268.6257,169.9375,256.6257,181.9375,156.0627,181.9375,144.0627,169.9375,156.0627,157.9375" style="stroke:#181818;stroke-width:0.5;"/><text fill="#000000" font-family="sans-serif" font-size="11" lengthAdjust="spacing" textLength="100.563" x="156.0627" y="173.7456">Information Valid?</text><text fill="#000000" font-family="sans-serif" font-size="11" lengthAdjust="spacing" textLength="19.0083" x="125.0544" y="167.3433">yes</text><text fill="#000000" font-family="sans-serif" font-size="11" lengthAdjust="spacing" textLength="13.7017" x="268.6257" y="167.3433">no</text><rect fill="#F1F1F1" height="33.9688" rx="12.5" ry="12.5" style="stroke:#181818;stroke-width:0.5;" width="173.9434" x="23.8701" y="191.9375"/><text fill="#000000" font-family="sans-serif" font-size="12" lengthAdjust="spacing" textLength="153.9434" x="33.8701" y="213.0762">Store Patient in Database</text><rect fill="#F1F1F1" height="33.9688" rx="12.5" ry="12.5" style="stroke:#181818;stroke-width:0.5;" width="138.7754" x="41.4541" y="245.9063"/><text fill="#000000" font-family="sans-serif" font-size="12" lengthAdjust="spacing" textLength="118.7754" x="51.4541" y="267.0449">Generate Patient ID</text><rect fill="#F1F1F1" height="33.9688" rx="12.5" ry="12.5" style="stroke:#181818;stroke-width:0.5;" width="199.6836" x="11" y="299.875"/><text fill="#000000" font-family="sans-serif" font-size="12" lengthAdjust="spacing" textLength="179.6836" x="21" y="321.0137">Notify Registration Successful</text><rect fill="#F1F1F1" height="33.9688" rx="12.5" ry="12.5" style="stroke:#181818;stroke-width:0.5;" width="142.3262" x="230.6836" y="191.9375"/><text fill="#000000" font-family="sans-serif" font-size="12" lengthAdjust="spacing" textLength="122.3262" x="240.6836" y="213.0762">Show Error Message</text><polygon fill="#F1F1F1" points="206.3442,339.8438,218.3442,351.8438,206.3442,363.8438,194.3442,351.8438,206.3442,339.8438" style="stroke:#181818;stroke-width:0.5;"/><ellipse cx="206.3442" cy="394.8438" fill="transparent" rx="11" ry="11" style="stroke:#222222;stroke-width:1;"/><ellipse cx="206.3442" cy="394.8438" fill="#222222" rx="6" ry="6" style="stroke:#222222;stroke-width:1;"/><line style="stroke:#181818;stroke-width:1;" x1="206.3442" x2="206.3442" y1="30" y2="50"/><polygon fill="#181818" points="202.3442,40,206.3442,50,210.3442,40,206.3442,44" style="stroke:#181818;stroke-width:1;"/><line style="stroke:#181818;stroke-width:1;" x1="206.3442" x2="206.3442" y1="83.9688" y2="103.9688"/><polygon fill="#181818" points="202.3442,93.9688,206.3442,103.9688,210.3442,93.9688,206.3442,97.9688" style="stroke:#181818;stroke-width:1;"/><line style="stroke:#181818;stroke-width:1;" x1="110.8418" x2="110.8418" y1="225.9063" y2="245.9063"/><polygon fill="#181818" points="106.8418,235.9063,110.8418,245.9063,114.8418,235.9063,110.8418,239.9063" style="stroke:#181818;stroke-width:1;"/><line style="stroke:#181818;stroke-width:1;" x1="110.8418" x2="110.8418" y1="279.875" y2="299.875"/><polygon fill="#181818" points="106.8418,289.875,110.8418,299.875,114.8418,289.875,110.8418,293.875" style="stroke:#181818;stroke-width:1;"/><line style="stroke:#181818;stroke-width:1;" x1="144.0627" x2="110.8418" y1="169.9375" y2="169.9375"/><line style="stroke:#181818;stroke-width:1;" x1="110.8418" x2="110.8418" y1="169.9375" y2="191.9375"/><polygon fill="#181818" points="106.8418,181.9375,110.8418,191.9375,114.8418,181.9375,110.8418,185.9375" style="stroke:#181818;stroke-width:1;"/><line style="stroke:#181818;stroke-width:1;" x1="268.6257" x2="301.8467" y1="169.9375" y2="169.9375"/><line style="stroke:#181818;stroke-width:1;" x1="301.8467" x2="301.8467" y1="169.9375" y2="191.9375"/><polygon fill="#181818" points="297.8467,181.9375,301.8467,191.9375,305.8467,181.9375,301.8467,185.9375" style="stroke:#181818;stroke-width:1;"/><line style="stroke:#181818;stroke-width:1;" x1="110.8418" x2="110.8418" y1="333.8438" y2="351.8438"/><line style="stroke:#181818;stroke-width:1;" x1="110.8418" x2="194.3442" y1="351.8438" y2="351.8438"/><polygon fill="#181818" points="184.3442,347.8438,194.3442,351.8438,184.3442,355.8438,188.3442,351.8438" style="stroke:#181818;stroke-width:1;"/><line style="stroke:#181818;stroke-width:1;" x1="301.8467" x2="301.8467" y1="225.9063" y2="351.8438"/><line style="stroke:#181818;stroke-width:1;" x1="301.8467" x2="218.3442" y1="351.8438" y2="351.8438"/><polygon fill="#181818" points="228.3442,347.8438,218.3442,351.8438,228.3442,355.8438,224.3442,351.8438" style="stroke:#181818;stroke-width:1;"/><line style="stroke:#181818;stroke-width:1;" x1="206.3442" x2="206.3442" y1="137.9375" y2="157.9375"/><polygon fill="#181818" points="202.3442,147.9375,206.3442,157.9375,210.3442,147.9375,206.3442,151.9375" style="stroke:#181818;stroke-width:1;"/><line style="stroke:#181818;stroke-width:1;" x1="206.3442" x2="206.3442" y1="363.8438" y2="383.8438"/><polygon fill="#181818" points="202.3442,373.8438,206.3442,383.8438,210.3442,373.8438,206.3442,377.8438" style="stroke:#181818;stroke-width:1;"/><!--SRC=[LOsz3e9048JxUuejuHMumWPYB3H64liLzk2ISy_iBZ6ylGY9F-NCVFb63SLSrR2Hm1aj4XlKP1YJUbTTCSKUZJxJWKEM-n8oUnS353y5hFIk11k9ePX9ImTGjPRbAuWCDHhUKCc_rpqnoTz3lVQdR37CSA4XgidcRwUk8zKm9UyeAK71URiOynCQaInmN00S5ZTn7uDJouyN]--></g></svg>