<svg xmlns="http://www.w3.org/2000/svg" xmlns:xlink="http://www.w3.org/1999/xlink" contentStyleType="text/css" data-diagram-type="ACTIVITY" height="470px" preserveAspectRatio="none" style="width:443px;height:470px;background:#FFFFFF;" version="1.1" viewBox="0 0 443 470" width="443px" zoomAndPan="magnify"><defs/><g><ellipse cx="208.4814" cy="20" fill="#222222" rx="10" ry="10" style="stroke:#222222;stroke-width:1;"/><rect fill="#F1F1F1" height="33.9688" rx="12.5" ry="12.5" style="stroke:#181818;stroke-width:0.5;" width="192.9043" x="112.0293" y="50"/><text fill="#000000" font-family="sans-serif" font-size="12" lengthAdjust="spacing" textLength="172.9043" x="122.0293" y="71.1387">Patient Logs into the System</text><rect fill="#F1F1F1" height="33.9688" rx="12.5" ry="12.5" style="stroke:#181818;stroke-width:0.5;" width="241.5078" x="87.7275" y="103.9688"/><text fill="#000000" font-family="sans-serif" font-size="12" lengthAdjust="spacing" textLength="221.5078" x="97.7275" y="125.1074">Select Doctor and Appointment Date</text><rect fill="#F1F1F1" height="33.9688" rx="12.5" ry="12.5" style="stroke:#181818;stroke-width:0.5;" width="180.3652" x="118.2988" y="157.9375"/><text fill="#000000" font-family="sans-serif" font-size="12" lengthAdjust="spacing" textLength="160.3652" x="128.2988" y="179.0762">Check Doctor's Availability</text><polygon fill="#F1F1F1" points="160.1899,211.9063,256.7729,211.9063,268.7729,223.9063,256.7729,235.9063,160.1899,235.9063,148.1899,223.9063,160.1899,211.9063" style="stroke:#181818;stroke-width:0.5;"/><text fill="#000000" font-family="sans-serif" font-size="11" lengthAdjust="spacing" textLength="96.583" x="160.1899" y="227.7144">Doctor Available?</text><text fill="#000000" font-family="sans-serif" font-size="11" lengthAdjust="spacing" textLength="19.0083" x="129.1816" y="221.312">yes</text><text fill="#000000" font-family="sans-serif" font-size="11" lengthAdjust="spacing" textLength="13.7017" x="268.7729" y="221.312">no</text><rect fill="#F1F1F1" height="33.9688" rx="12.5" ry="12.5" style="stroke:#181818;stroke-width:0.5;" width="131.4922" x="32.3867" y="245.9063"/><text fill="#000000" font-family="sans-serif" font-size="12" lengthAdjust="spacing" textLength="111.4922" x="42.3867" y="267.0449">Book Appointment</text><rect fill="#F1F1F1" height="33.9688" rx="12.5" ry="12.5" style="stroke:#181818;stroke-width:0.5;" width="174.2656" x="11" y="299.875"/><text fill="#000000" font-family="sans-serif" font-size="12" lengthAdjust="spacing" textLength="154.2656" x="21" y="321.0137">Generate Appointment ID</text><rect fill="#F1F1F1" height="33.9688" rx="12.5" ry="12.5" style="stroke:#181818;stroke-width:0.5;" width="149.1348" x="23.5654" y="353.8438"/><text fill="#000000" font-family="sans-serif" font-size="12" lengthAdjust="spacing" textLength="129.1348" x="33.5654" y="374.9824">Confirm Appointment</text><rect fill="#F1F1F1" height="33.9688" rx="12.5" ry="12.5" style="stroke:#181818;stroke-width:0.5;" width="227.1289" x="205.2656" y="245.9063"/><text fill="#000000" font-family="sans-serif" font-size="12" lengthAdjust="spacing" textLength="207.1289" x="215.2656" y="267.0449">Show Doctor Unavailable Message</text><polygon fill="#F1F1F1" points="208.4814,393.8125,220.4814,405.8125,208.4814,417.8125,196.4814,405.8125,208.4814,393.8125" style="stroke:#181818;stroke-width:0.5;"/><ellipse cx="208.4814" cy="448.8125" fill="transparent" rx="11" ry="11" style="stroke:#222222;stroke-width:1;"/><ellipse cx="208.4814" cy="448.8125" fill="#222222" rx="6" ry="6" style="stroke:#222222;stroke-width:1;"/><line style="stroke:#181818;stroke-width:1;" x1="208.4814" x2="208.4814" y1="30" y2="50"/><polygon fill="#181818" points="204.4814,40,208.4814,50,212.4814,40,208.4814,44" style="stroke:#181818;stroke-width:1;"/><line style="stroke:#181818;stroke-width:1;" x1="208.4814" x2="208.4814" y1="83.9688" y2="103.9688"/><polygon fill="#181818" points="204.4814,93.9688,208.4814,103.9688,212.4814,93.9688,208.4814,97.9688" style="stroke:#181818;stroke-width:1;"/><line style="stroke:#181818;stroke-width:1;" x1="208.4814" x2="208.4814" y1="137.9375" y2="157.9375"/><polygon fill="#181818" points="204.4814,147.9375,208.4814,157.9375,212.4814,147.9375,208.4814,151.9375" style="stroke:#181818;stroke-width:1;"/><line style="stroke:#181818;stroke-width:1;" x1="98.1328" x2="98.1328" y1="279.875" y2="299.875"/><polygon fill="#181818" points="94.1328,289.875,98.1328,299.875,102.1328,289.875,98.1328,293.875" style="stroke:#181818;stroke-width:1;"/><line style="stroke:#181818;stroke-width:1;" x1="98.1328" x2="98.1328" y1="333.8438" y2="353.8438"/><polygon fill="#181818" points="94.1328,343.8438,98.1328,353.8438,102.1328,343.8438,98.1328,347.8438" style="stroke:#181818;stroke-width:1;"/><line style="stroke:#181818;stroke-width:1;" x1="148.1899" x2="98.1328" y1="223.9063" y2="223.9063"/><line style="stroke:#181818;stroke-width:1;" x1="98.1328" x2="98.1328" y1="223.9063" y2="245.9063"/><polygon fill="#181818" points="94.1328,235.9063,98.1328,245.9063,102.1328,235.9063,98.1328,239.9063" style="stroke:#181818;stroke-width:1;"/><line style="stroke:#181818;stroke-width:1;" x1="268.7729" x2="318.8301" y1="223.9063" y2="223.9063"/><line style="stroke:#181818;stroke-width:1;" x1="318.8301" x2="318.8301" y1="223.9063" y2="245.9063"/><polygon fill="#181818" points="314.8301,235.9063,318.8301,245.9063,322.8301,235.9063,318.8301,239.9063" style="stroke:#181818;stroke-width:1;"/><line style="stroke:#181818;stroke-width:1;" x1="98.1328" x2="98.1328" y1="387.8125" y2="405.8125"/><line style="stroke:#181818;stroke-width:1;" x1="98.1328" x2="196.4814" y1="405.8125" y2="405.8125"/><polygon fill="#181818" points="186.4814,401.8125,196.4814,405.8125,186.4814,409.8125,190.4814,405.8125" style="stroke:#181818;stroke-width:1;"/><line style="stroke:#181818;stroke-width:1;" x1="318.8301" x2="318.8301" y1="279.875" y2="405.8125"/><line style="stroke:#181818;stroke-width:1;" x1="318.8301" x2="220.4814" y1="405.8125" y2="405.8125"/><polygon fill="#181818" points="230.4814,401.8125,220.4814,405.8125,230.4814,409.8125,226.4814,405.8125" style="stroke:#181818;stroke-width:1;"/><line style="stroke:#181818;stroke-width:1;" x1="208.4814" x2="208.4814" y1="191.9063" y2="211.9063"/><polygon fill="#181818" points="204.4814,201.9063,208.4814,211.9063,212.4814,201.9063,208.4814,205.9063" style="stroke:#181818;stroke-width:1;"/><line style="stroke:#181818;stroke-width:1;" x1="208.4814" x2="208.4814" y1="417.8125" y2="437.8125"/><polygon fill="#181818" points="204.4814,427.8125,208.4814,437.8125,212.4814,427.8125,208.4814,431.8125" style="stroke:#181818;stroke-width:1;"/><!--SRC=[LOvD2eD038NtSuhigbVGHR4AfT12GNg0gKOT71EPX1PlNnM5kdr_tnErGKtojEgG5ExS2ZXI1kqGoaaKXzGa9Ngi50gkb0DOgY4RHvvpmr8ghE8SoZki-Yrp4iW-rddxTjxfb1hNGBJLDyFZELue1D644Xk0vCBS_o-dYtX5mZ0J3iXRiNevK-F2SEoW5uI8U9qiE_xklrzaTpGyKCIsyssasZL6bCSV]--></g></svg>